<svg xmlns="http://www.w3.org/2000/svg" width="1741" height="626" fill="none"><g clip-path="url(#a)"><g clip-path="url(#b)"><g clip-path="url(#c)" opacity=".02"><g clip-path="url(#d)"><path stroke="#000" stroke-width="1.772" d="M375.378.887h-74.116c-6.194 0-11.215 5.095-11.215 11.38V87.47c0 6.285 5.021 11.38 11.215 11.38h74.116c6.195 0 11.216-5.095 11.216-11.38V12.267c0-6.285-5.021-11.38-11.216-11.38Zm96.77 0h-74.116c-6.194 0-11.216 5.095-11.216 11.38V87.47c0 6.285 5.022 11.38 11.216 11.38h74.116c6.194 0 11.215-5.095 11.215-11.38V12.267c0-6.285-5.021-11.38-11.215-11.38Zm96.771 0h-74.116c-6.194 0-11.215 5.095-11.215 11.38V87.47c0 6.285 5.021 11.38 11.215 11.38h74.116c6.195 0 11.216-5.095 11.216-11.38V12.267c0-6.285-5.021-11.38-11.216-11.38ZM375.378 99.01h-74.116c-6.194 0-11.215 5.095-11.215 11.38v75.203c0 6.285 5.021 11.38 11.215 11.38h74.116c6.195 0 11.216-5.095 11.216-11.38V110.39c0-6.285-5.021-11.38-11.216-11.38Zm193.541 0h-74.116c-6.194 0-11.215 5.095-11.215 11.38v75.203c0 6.285 5.021 11.38 11.215 11.38h74.116c6.195 0 11.216-5.095 11.216-11.38V110.39c0-6.285-5.021-11.38-11.216-11.38Z"/><path fill="#000" d="M472.15 99.348h-74.117c-6.01 0-10.883 4.944-10.883 11.042v75.203c0 6.099 4.873 11.043 10.883 11.043h74.117c6.01 0 10.883-4.944 10.883-11.043V110.39c0-6.098-4.873-11.042-10.883-11.042Z"/><mask id="e" width="61" height="63" x="405" y="117" maskUnits="userSpaceOnUse" style="mask-type:luminance"><path fill="#fff" d="M465.555 117.787h-60.461v61.348h60.461v-61.348Z"/></mask><g mask="url(#e)" opacity=".5"><path fill="#000" d="M454.218 127.372h-37.789c-.501 0-.982.203-1.336.562-.354.36-.554.848-.554 1.356v38.342c0 .508.2.997.554 1.356.354.36.835.562 1.336.562h2.052l25.897-26.279a1.876 1.876 0 0 1 2.061-.417c.229.097.437.238.613.417l9.056 9.19V129.29c0-.508-.2-.996-.554-1.356a1.881 1.881 0 0 0-1.336-.562Zm-26.452 17.255a3.737 3.737 0 0 1-2.1-.647 3.812 3.812 0 0 1-1.391-1.72 3.878 3.878 0 0 1 .818-4.179 3.766 3.766 0 0 1 1.935-1.049 3.731 3.731 0 0 1 2.184.218c.69.29 1.28.782 1.695 1.413.416.63.637 1.371.637 2.13a3.86 3.86 0 0 1-1.106 2.711 3.752 3.752 0 0 1-2.672 1.123Z" opacity=".2"/><path stroke="#000" stroke-linecap="round" stroke-linejoin="round" stroke-width="2.444" d="M454.218 127.372h-37.789c-1.043 0-1.89.859-1.89 1.918v38.342c0 1.059.847 1.918 1.89 1.918h37.789c1.043 0 1.89-.859 1.89-1.918V129.29c0-1.059-.847-1.918-1.89-1.918Z"/><path stroke="#000" stroke-linecap="round" stroke-linejoin="round" stroke-width="2.444" d="M427.765 144.628c2.087 0 3.779-1.717 3.779-3.835 0-2.117-1.692-3.834-3.779-3.834-2.087 0-3.779 1.717-3.779 3.834 0 2.118 1.692 3.835 3.779 3.835Zm-9.281 24.923 25.897-26.279a1.881 1.881 0 0 1 2.061-.417c.23.097.438.238.613.417l9.055 9.19"/></g><path stroke="#000" stroke-width="1.222" d="M1149.55 589.334h-74.12c-6.34 0-11.49 5.219-11.49 11.656v75.203c0 6.438 5.15 11.656 11.49 11.656h74.12c6.34 0 11.48-5.218 11.48-11.656V600.99c0-6.437-5.14-11.656-11.48-11.656Zm193.53 0h-74.11c-6.35 0-11.49 5.219-11.49 11.656v75.203c0 6.438 5.14 11.656 11.49 11.656h74.11c6.35 0 11.49-5.218 11.49-11.656V600.99c0-6.437-5.14-11.656-11.49-11.656Z"/><path fill="#000" d="M1246.32 589.947h-74.12c-6.01 0-10.88 4.944-10.88 11.043v75.203c0 6.099 4.87 11.043 10.88 11.043h74.12c6.01 0 10.88-4.944 10.88-11.043V600.99c0-6.099-4.87-11.043-10.88-11.043Z"/><mask id="f" width="61" height="62" x="1179" y="607" maskUnits="userSpaceOnUse" style="mask-type:luminance"><path fill="#fff" d="M1239.46 607.349H1179v61.348h60.46v-61.348Z"/></mask><g mask="url(#f)"><path fill="#000" d="m1231.91 630.354-18.55 13.42h-8.25l-18.55-13.42 22.67-15.337 22.68 15.337Z" opacity=".2"/><path stroke="#000" stroke-linecap="round" stroke-linejoin="round" stroke-width="2.444" d="M1186.56 630.354v24.922c0 .509.2.996.55 1.356a1.9 1.9 0 0 0 1.34.562h41.57c.5 0 .98-.203 1.33-.562.36-.36.56-.847.56-1.356v-24.922l-22.68-15.337-22.67 15.337Z"/></g><path stroke="#000" stroke-width="1.772" d="M85.064 393.37H10.948c-6.194 0-11.216 5.095-11.216 11.38v75.203c0 6.285 5.022 11.38 11.216 11.38h74.116c6.194 0 11.215-5.095 11.215-11.38V404.75c0-6.285-5.02-11.38-11.215-11.38Zm96.771 0h-74.116c-6.194 0-11.215 5.095-11.215 11.38v75.203c0 6.285 5.021 11.38 11.215 11.38h74.116c6.195 0 11.216-5.095 11.216-11.38V404.75c0-6.285-5.021-11.38-11.216-11.38Z"/><path stroke="#000" stroke-width="1.222" d="M85.065 589.334H10.949c-6.345 0-11.488 5.219-11.488 11.656v75.203c0 6.438 5.143 11.656 11.488 11.656h74.116c6.344 0 11.487-5.218 11.487-11.656V600.99c0-6.437-5.143-11.656-11.487-11.656Z"/><path stroke="#000" stroke-width="1.222" d="M181.836 589.334H107.72c-6.344 0-11.488 5.219-11.488 11.656v75.203c0 6.438 5.144 11.656 11.488 11.656h74.116c6.345 0 11.488-5.218 11.488-11.656V600.99c0-6.437-5.143-11.656-11.488-11.656Z"/><path stroke="#000" stroke-width="1.772" d="M181.835 491.49h-74.116c-6.194 0-11.215 5.095-11.215 11.38v75.203c0 6.285 5.021 11.38 11.215 11.38h74.116c6.195 0 11.216-5.095 11.216-11.38V502.87c0-6.285-5.021-11.38-11.216-11.38Z"/><path fill="#000" d="M85.067 491.827H10.951c-6.01 0-10.883 4.944-10.883 11.043v75.203c0 6.099 4.873 11.043 10.883 11.043h74.116c6.011 0 10.884-4.944 10.884-11.043V502.87c0-6.099-4.873-11.043-10.883-11.043Z"/><path fill="#000" d="m49.401 550.835-7.23 7.612a1.883 1.883 0 0 1-.965.544 1.86 1.86 0 0 1-1.1-.096 1.893 1.893 0 0 1-.86-.704 1.935 1.935 0 0 1-.324-1.071v-15.608l10.48 9.323Zm23.533-33.685a.245.245 0 0 0-.077-.234.234.234 0 0 0-.24-.041l-47.864 19.006a1.468 1.468 0 0 0-.718.6 1.512 1.512 0 0 0 .148 1.785c.211.242.494.408.807.471l13.934 2.773 34.01-24.36Z" opacity=".2"/><path fill="#000" fill-rule="evenodd" d="M72.175 515.732a1.43 1.43 0 0 1 1.468.253 1.475 1.475 0 0 1 .469 1.434l-.002.008-9.6 42.312a3.158 3.158 0 0 1-.737 1.423 3.069 3.069 0 0 1-4.331.233l-.002-.001-21.07-18.743-13.622-2.711a2.664 2.664 0 0 1-1.47-.857 2.753 2.753 0 0 1-.269-3.253 2.688 2.688 0 0 1 1.305-1.092l.003-.001 47.858-19.005Zm-.835 2.967-46.154 18.327a.269.269 0 0 0-.102.426.264.264 0 0 0 .142.083h.002l13.927 2.771c.21.042.404.14.564.282l21.32 18.965a.672.672 0 0 0 .951-.05.695.695 0 0 0 .163-.313l9.187-40.491Z" clip-rule="evenodd"/><path fill="#000" fill-rule="evenodd" d="M73.775 516.165a1.237 1.237 0 0 1-.278 1.711l-33.87 24.632a1.2 1.2 0 0 1-1.688-.284 1.238 1.238 0 0 1 .279-1.711l33.87-24.631a1.198 1.198 0 0 1 1.687.283Z" clip-rule="evenodd"/><path fill="#000" fill-rule="evenodd" d="M38.922 540.282c.668 0 1.21.55 1.21 1.227v15.607a.694.694 0 0 0 .425.638.664.664 0 0 0 .397.035.68.68 0 0 0 .347-.196l7.23-7.612a1.199 1.199 0 0 1 1.71-.032 1.24 1.24 0 0 1 .031 1.735l-7.23 7.611a3.09 3.09 0 0 1-1.583.894 3.048 3.048 0 0 1-1.805-.159 3.099 3.099 0 0 1-1.409-1.154 3.181 3.181 0 0 1-.532-1.757v-15.61c0-.677.541-1.227 1.21-1.227Z" clip-rule="evenodd"/><path stroke="#000" stroke-width="1.222" d="M1536.63.611h-74.11c-6.35 0-11.49 5.219-11.49 11.656v75.204c0 6.437 5.14 11.656 11.49 11.656h74.11c6.35 0 11.49-5.219 11.49-11.656V12.267c0-6.437-5.14-11.656-11.49-11.656Z"/><path stroke="#000" stroke-width="1.222" d="M1633.41.611h-74.12c-6.34 0-11.49 5.219-11.49 11.656v75.204c0 6.437 5.15 11.656 11.49 11.656h74.12c6.34 0 11.48-5.219 11.48-11.656V12.267c0-6.437-5.14-11.656-11.48-11.656Z"/><path stroke="#000" stroke-width="1.222" d="M1730.17.611h-74.12c-6.34 0-11.48 5.219-11.48 11.656v75.204c0 6.437 5.14 11.656 11.48 11.656h74.12c6.34 0 11.49-5.219 11.49-11.656V12.267c0-6.437-5.15-11.656-11.49-11.656Zm-193.54 196.242h-74.11c-6.35 0-11.49 5.218-11.49 11.656v75.203c0 6.437 5.14 11.656 11.49 11.656h74.11c6.35 0 11.49-5.219 11.49-11.656v-75.203c0-6.438-5.14-11.656-11.49-11.656Z"/><path stroke="#000" stroke-width="1.222" d="M1633.41 196.853h-74.12c-6.34 0-11.49 5.218-11.49 11.656v75.203c0 6.437 5.15 11.656 11.49 11.656h74.12c6.34 0 11.48-5.219 11.48-11.656v-75.203c0-6.438-5.14-11.656-11.48-11.656Z"/><path fill="#000" stroke="#000" stroke-width="1.222" d="M1730.17 196.853h-74.12c-6.34 0-11.48 5.218-11.48 11.656v75.203c0 6.437 5.14 11.656 11.48 11.656h74.12c6.34 0 11.49-5.219 11.49-11.656v-75.203c0-6.438-5.15-11.656-11.49-11.656Z" opacity=".5"/><path stroke="#000" stroke-width="1.222" d="M1826.94 196.853h-74.11c-6.35 0-11.49 5.218-11.49 11.656v75.203c0 6.437 5.14 11.656 11.49 11.656h74.11c6.35 0 11.49-5.219 11.49-11.656v-75.203c0-6.438-5.14-11.656-11.49-11.656Zm-290.31-98.119h-74.11c-6.35 0-11.49 5.219-11.49 11.657v75.203c0 6.437 5.14 11.656 11.49 11.656h74.11c6.35 0 11.49-5.219 11.49-11.656v-75.203c0-6.438-5.14-11.657-11.49-11.657Zm193.54 0h-74.12c-6.34 0-11.48 5.219-11.48 11.657v75.203c0 6.437 5.14 11.656 11.48 11.656h74.12c6.34 0 11.49-5.219 11.49-11.656v-75.203c0-6.438-5.15-11.657-11.49-11.657Z"/><path stroke="#000" stroke-width="1.222" d="M1826.94 98.734h-74.11c-6.35 0-11.49 5.219-11.49 11.657v75.203c0 6.437 5.14 11.656 11.49 11.656h74.11c6.35 0 11.49-5.219 11.49-11.656v-75.203c0-6.438-5.14-11.657-11.49-11.657Z"/><path fill="#000" stroke="#000" stroke-width="2.444" d="M1633.41 99.348h-74.12c-6.01 0-10.88 4.944-10.88 11.042v75.203c0 6.099 4.87 11.043 10.88 11.043h74.12c6.01 0 10.88-4.944 10.88-11.043V110.39c0-6.098-4.87-11.042-10.88-11.042Z"/><path stroke="#000" stroke-width="1.222" d="M1536.63 294.973h-74.11c-6.35 0-11.49 5.218-11.49 11.656v75.203c0 6.437 5.14 11.656 11.49 11.656h74.11c6.35 0 11.49-5.219 11.49-11.656v-75.203c0-6.438-5.14-11.656-11.49-11.656Z"/><path stroke="#000" stroke-width="1.772" d="M181.835.887h-74.116c-6.194 0-11.215 5.095-11.215 11.38V87.47c0 6.285 5.021 11.38 11.215 11.38h74.116c6.195 0 11.216-5.095 11.216-11.38V12.267c0-6.285-5.021-11.38-11.216-11.38Zm96.774 0h-74.116c-6.194 0-11.216 5.095-11.216 11.38V87.47c0 6.285 5.022 11.38 11.216 11.38h74.116c6.194 0 11.215-5.095 11.215-11.38V12.267c0-6.285-5.021-11.38-11.215-11.38Zm387.084 0h-74.116c-6.194 0-11.216 5.095-11.216 11.38V87.47c0 6.285 5.022 11.38 11.216 11.38h74.116c6.194 0 11.215-5.095 11.215-11.38V12.267c0-6.285-5.021-11.38-11.215-11.38Zm96.769 0h-74.116c-6.194 0-11.215 5.095-11.215 11.38V87.47c0 6.285 5.021 11.38 11.215 11.38h74.116c6.195 0 11.216-5.095 11.216-11.38V12.267c0-6.285-5.021-11.38-11.216-11.38Zm96.772 0h-74.116c-6.194 0-11.216 5.095-11.216 11.38V87.47c0 6.285 5.022 11.38 11.216 11.38h74.116c6.194 0 11.215-5.095 11.215-11.38V12.267c0-6.285-5.021-11.38-11.215-11.38Z"/><path stroke="#000" stroke-width="1.222" d="M1633.41 294.973h-74.12c-6.34 0-11.49 5.218-11.49 11.656v75.203c0 6.437 5.15 11.656 11.49 11.656h74.12c6.34 0 11.48-5.219 11.48-11.656v-75.203c0-6.438-5.14-11.656-11.48-11.656Z"/><path stroke="#000" stroke-width="1.222" d="M1730.17 294.973h-74.12c-6.34 0-11.48 5.218-11.48 11.656v75.203c0 6.437 5.14 11.656 11.48 11.656h74.12c6.34 0 11.49-5.219 11.49-11.656v-75.203c0-6.438-5.15-11.656-11.49-11.656Z"/><path fill="#000" stroke="#000" stroke-width="1.772" d="M85.064.887H10.948C4.754.887-.268 5.982-.268 12.267V87.47c0 6.285 5.022 11.38 11.216 11.38h74.116c6.194 0 11.215-5.095 11.215-11.38V12.267c0-6.285-5.02-11.38-11.215-11.38Z" opacity=".5"/><path stroke="#000" stroke-width="1.772" d="M956.007.887h-74.116c-6.194 0-11.215 5.095-11.215 11.38V87.47c0 6.285 5.021 11.38 11.215 11.38h74.116c6.194 0 11.216-5.095 11.216-11.38V12.267c0-6.285-5.022-11.38-11.216-11.38Z"/><path fill="#000" stroke="#000" stroke-width="1.772" d="M1052.78.887h-74.119c-6.194 0-11.216 5.095-11.216 11.38V87.47c0 6.285 5.022 11.38 11.216 11.38h74.119c6.19 0 11.21-5.095 11.21-11.38V12.267c0-6.285-5.02-11.38-11.21-11.38Z"/><path stroke="#000" stroke-width="1.772" d="M1149.55.887h-74.12c-6.19 0-11.22 5.095-11.22 11.38V87.47c0 6.285 5.03 11.38 11.22 11.38h74.12c6.19 0 11.21-5.095 11.21-11.38V12.267c0-6.285-5.02-11.38-11.21-11.38Zm96.77 0h-74.12c-6.19 0-11.21 5.095-11.21 11.38V87.47c0 6.285 5.02 11.38 11.21 11.38h74.12c6.19 0 11.21-5.095 11.21-11.38V12.267c0-6.285-5.02-11.38-11.21-11.38Zm96.77 0h-74.11c-6.2 0-11.22 5.095-11.22 11.38V87.47c0 6.285 5.02 11.38 11.22 11.38h74.11c6.2 0 11.22-5.095 11.22-11.38V12.267c0-6.285-5.02-11.38-11.22-11.38Zm96.77 0h-74.11c-6.2 0-11.22 5.095-11.22 11.38V87.47c0 6.285 5.02 11.38 11.22 11.38h74.11c6.2 0 11.22-5.095 11.22-11.38V12.267c0-6.285-5.02-11.38-11.22-11.38ZM85.064 197.13H10.948c-6.194 0-11.216 5.095-11.216 11.38v75.203c0 6.285 5.022 11.38 11.216 11.38h74.116c6.194 0 11.215-5.095 11.215-11.38V208.51c0-6.285-5.02-11.38-11.215-11.38Z"/><path fill="#000" stroke="#000" stroke-width="1.772" d="M181.835 197.13h-74.116c-6.194 0-11.215 5.095-11.215 11.38v75.203c0 6.285 5.021 11.38 11.215 11.38h74.116c6.195 0 11.216-5.095 11.216-11.38V208.51c0-6.285-5.021-11.38-11.216-11.38Z"/><mask id="g" width="74" height="76" x="108" y="208" maskUnits="userSpaceOnUse" style="mask-type:luminance"><path fill="#fff" d="M181.386 208.583h-72.554v74.845h72.554v-74.845Z"/></mask><g mask="url(#g)" opacity=".5"><path fill="#000" d="m163.246 243.666-15.871-16.373 8.407-8.671a2.226 2.226 0 0 1 1.602-.684c.601 0 1.178.245 1.602.684l12.667 13.056c.424.44.662 1.033.662 1.654 0 .62-.238 1.215-.662 1.653l-8.407 8.681Z" opacity=".2"/><path stroke="#000" stroke-linecap="round" stroke-linejoin="round" stroke-width="2.444" d="M170.049 271.733h-34.01l-15.727-16.223m34.999-20.031-27.207 28.067"/><path stroke="#000" stroke-linecap="round" stroke-linejoin="round" stroke-width="2.444" d="M136.039 271.733h-13.604a2.232 2.232 0 0 1-1.603-.686 2.375 2.375 0 0 1-.664-1.653v-13.066c0-.62.239-1.213.663-1.653l34.951-36.053a2.228 2.228 0 0 1 1.602-.684 2.23 2.23 0 0 1 1.603.684l12.666 13.056c.425.44.663 1.033.663 1.654 0 .62-.238 1.215-.663 1.653l-35.614 36.748Zm11.336-44.439 15.871 16.373"/></g><path stroke="#000" stroke-width="1.772" d="M278.609 197.13h-74.116c-6.194 0-11.216 5.095-11.216 11.38v75.203c0 6.285 5.022 11.38 11.216 11.38h74.116c6.194 0 11.215-5.095 11.215-11.38V208.51c0-6.285-5.021-11.38-11.215-11.38Zm96.769 0h-74.116c-6.194 0-11.215 5.095-11.215 11.38v75.203c0 6.285 5.021 11.38 11.215 11.38h74.116c6.195 0 11.216-5.095 11.216-11.38V208.51c0-6.285-5.021-11.38-11.216-11.38Zm193.541 0h-74.116c-6.194 0-11.215 5.095-11.215 11.38v75.203c0 6.285 5.021 11.38 11.215 11.38h74.116c6.195 0 11.216-5.095 11.216-11.38V208.51c0-6.285-5.021-11.38-11.216-11.38Zm96.774 0h-74.116c-6.194 0-11.216 5.095-11.216 11.38v75.203c0 6.285 5.022 11.38 11.216 11.38h74.116c6.194 0 11.215-5.095 11.215-11.38V208.51c0-6.285-5.021-11.38-11.215-11.38Zm96.769 0h-74.116c-6.194 0-11.215 5.095-11.215 11.38v75.203c0 6.285 5.021 11.38 11.215 11.38h74.116c6.195 0 11.216-5.095 11.216-11.38V208.51c0-6.285-5.021-11.38-11.216-11.38Zm96.772 0h-74.116c-6.194 0-11.216 5.095-11.216 11.38v75.203c0 6.285 5.022 11.38 11.216 11.38h74.116c6.194 0 11.215-5.095 11.215-11.38V208.51c0-6.285-5.021-11.38-11.215-11.38Z"/><path fill="#000" stroke="#000" stroke-width="1.772" d="M956.007 197.13h-74.116c-6.194 0-11.215 5.095-11.215 11.38v75.203c0 6.285 5.021 11.38 11.215 11.38h74.116c6.194 0 11.216-5.095 11.216-11.38V208.51c0-6.285-5.022-11.38-11.216-11.38Z"/><path stroke="#000" stroke-width="1.772" d="M1052.78 197.13h-74.119c-6.194 0-11.216 5.095-11.216 11.38v75.203c0 6.285 5.022 11.38 11.216 11.38h74.119c6.19 0 11.21-5.095 11.21-11.38V208.51c0-6.285-5.02-11.38-11.21-11.38Zm96.77 0h-74.12c-6.19 0-11.22 5.095-11.22 11.38v75.203c0 6.285 5.03 11.38 11.22 11.38h74.12c6.19 0 11.21-5.095 11.21-11.38V208.51c0-6.285-5.02-11.38-11.21-11.38Zm96.77 0h-74.12c-6.19 0-11.21 5.095-11.21 11.38v75.203c0 6.285 5.02 11.38 11.21 11.38h74.12c6.19 0 11.21-5.095 11.21-11.38V208.51c0-6.285-5.02-11.38-11.21-11.38Zm96.77 0h-74.11c-6.2 0-11.22 5.095-11.22 11.38v75.203c0 6.285 5.02 11.38 11.22 11.38h74.11c6.2 0 11.22-5.095 11.22-11.38V208.51c0-6.285-5.02-11.38-11.22-11.38Zm96.77 0h-74.11c-6.2 0-11.22 5.095-11.22 11.38v75.203c0 6.285 5.02 11.38 11.22 11.38h74.11c6.2 0 11.22-5.095 11.22-11.38V208.51c0-6.285-5.02-11.38-11.22-11.38ZM85.064 295.249H10.948c-6.194 0-11.216 5.095-11.216 11.38v75.203c0 6.285 5.022 11.38 11.216 11.38h74.116c6.194 0 11.215-5.095 11.215-11.38v-75.203c0-6.285-5.02-11.38-11.215-11.38Zm96.771 0h-74.116c-6.194 0-11.215 5.095-11.215 11.38v75.203c0 6.285 5.021 11.38 11.215 11.38h74.116c6.195 0 11.216-5.095 11.216-11.38v-75.203c0-6.285-5.021-11.38-11.216-11.38Zm96.774 0h-74.116c-6.194 0-11.216 5.095-11.216 11.38v75.203c0 6.285 5.022 11.38 11.216 11.38h74.116c6.194 0 11.215-5.095 11.215-11.38v-75.203c0-6.285-5.021-11.38-11.215-11.38Zm96.769 0h-74.116c-6.194 0-11.215 5.095-11.215 11.38v75.203c0 6.285 5.021 11.38 11.215 11.38h74.116c6.195 0 11.216-5.095 11.216-11.38v-75.203c0-6.285-5.021-11.38-11.216-11.38Zm96.77 0h-74.116c-6.194 0-11.216 5.095-11.216 11.38v75.203c0 6.285 5.022 11.38 11.216 11.38h74.116c6.194 0 11.215-5.095 11.215-11.38v-75.203c0-6.285-5.021-11.38-11.215-11.38Zm96.771 0h-74.116c-6.194 0-11.215 5.095-11.215 11.38v75.203c0 6.285 5.021 11.38 11.215 11.38h74.116c6.195 0 11.216-5.095 11.216-11.38v-75.203c0-6.285-5.021-11.38-11.216-11.38Zm96.774 0h-74.116c-6.194 0-11.216 5.095-11.216 11.38v75.203c0 6.285 5.022 11.38 11.216 11.38h74.116c6.194 0 11.215-5.095 11.215-11.38v-75.203c0-6.285-5.021-11.38-11.215-11.38Zm96.769 0h-74.116c-6.194 0-11.215 5.095-11.215 11.38v75.203c0 6.285 5.021 11.38 11.215 11.38h74.116c6.195 0 11.216-5.095 11.216-11.38v-75.203c0-6.285-5.021-11.38-11.216-11.38Zm96.772 0h-74.116c-6.194 0-11.216 5.095-11.216 11.38v75.203c0 6.285 5.022 11.38 11.216 11.38h74.116c6.194 0 11.215-5.095 11.215-11.38v-75.203c0-6.285-5.021-11.38-11.215-11.38Zm96.773 0h-74.116c-6.194 0-11.215 5.095-11.215 11.38v75.203c0 6.285 5.021 11.38 11.215 11.38h74.116c6.194 0 11.216-5.095 11.216-11.38v-75.203c0-6.285-5.022-11.38-11.216-11.38Zm96.773 0h-74.119c-6.194 0-11.216 5.095-11.216 11.38v75.203c0 6.285 5.022 11.38 11.216 11.38h74.119c6.19 0 11.21-5.095 11.21-11.38v-75.203c0-6.285-5.02-11.38-11.21-11.38Zm96.77 0h-74.12c-6.19 0-11.22 5.095-11.22 11.38v75.203c0 6.285 5.03 11.38 11.22 11.38h74.12c6.19 0 11.21-5.095 11.21-11.38v-75.203c0-6.285-5.02-11.38-11.21-11.38Zm96.77 0h-74.12c-6.19 0-11.21 5.095-11.21 11.38v75.203c0 6.285 5.02 11.38 11.21 11.38h74.12c6.19 0 11.21-5.095 11.21-11.38v-75.203c0-6.285-5.02-11.38-11.21-11.38Z"/><path fill="#000" stroke="#000" stroke-width="1.772" d="M1343.09 295.249h-74.11c-6.2 0-11.22 5.095-11.22 11.38v75.203c0 6.285 5.02 11.38 11.22 11.38h74.11c6.2 0 11.22-5.095 11.22-11.38v-75.203c0-6.285-5.02-11.38-11.22-11.38Z"/><path stroke="#000" stroke-width="1.772" d="M1439.86 295.249h-74.11c-6.2 0-11.22 5.095-11.22 11.38v75.203c0 6.285 5.02 11.38 11.22 11.38h74.11c6.2 0 11.22-5.095 11.22-11.38v-75.203c0-6.285-5.02-11.38-11.22-11.38ZM278.609 393.37h-74.116c-6.194 0-11.216 5.095-11.216 11.38v75.203c0 6.285 5.022 11.38 11.216 11.38h74.116c6.194 0 11.215-5.095 11.215-11.38V404.75c0-6.285-5.021-11.38-11.215-11.38Zm96.769 0h-74.116c-6.194 0-11.215 5.095-11.215 11.38v75.203c0 6.285 5.021 11.38 11.215 11.38h74.116c6.195 0 11.216-5.095 11.216-11.38V404.75c0-6.285-5.021-11.38-11.216-11.38Zm96.77 0h-74.116c-6.194 0-11.216 5.095-11.216 11.38v75.203c0 6.285 5.022 11.38 11.216 11.38h74.116c6.194 0 11.215-5.095 11.215-11.38V404.75c0-6.285-5.021-11.38-11.215-11.38Zm96.771 0h-74.116c-6.194 0-11.215 5.095-11.215 11.38v75.203c0 6.285 5.021 11.38 11.215 11.38h74.116c6.195 0 11.216-5.095 11.216-11.38V404.75c0-6.285-5.021-11.38-11.216-11.38Zm96.774 0h-74.116c-6.194 0-11.216 5.095-11.216 11.38v75.203c0 6.285 5.022 11.38 11.216 11.38h74.116c6.194 0 11.215-5.095 11.215-11.38V404.75c0-6.285-5.021-11.38-11.215-11.38Zm96.769 0h-74.116c-6.194 0-11.215 5.095-11.215 11.38v75.203c0 6.285 5.021 11.38 11.215 11.38h74.116c6.195 0 11.216-5.095 11.216-11.38V404.75c0-6.285-5.021-11.38-11.216-11.38Zm96.772 0h-74.116c-6.194 0-11.216 5.095-11.216 11.38v75.203c0 6.285 5.022 11.38 11.216 11.38h74.116c6.194 0 11.215-5.095 11.215-11.38V404.75c0-6.285-5.021-11.38-11.215-11.38Zm96.773 0h-74.116c-6.194 0-11.215 5.095-11.215 11.38v75.203c0 6.285 5.021 11.38 11.215 11.38h74.116c6.194 0 11.216-5.095 11.216-11.38V404.75c0-6.285-5.022-11.38-11.216-11.38Z"/><path fill="#000" stroke="#000" stroke-width="1.772" d="M1052.78 393.37h-74.119c-6.194 0-11.216 5.095-11.216 11.38v75.203c0 6.285 5.022 11.38 11.216 11.38h74.119c6.19 0 11.21-5.095 11.21-11.38V404.75c0-6.285-5.02-11.38-11.21-11.38Z"/><path stroke="#000" stroke-width="1.772" d="M1149.55 393.37h-74.12c-6.19 0-11.22 5.095-11.22 11.38v75.203c0 6.285 5.03 11.38 11.22 11.38h74.12c6.19 0 11.21-5.095 11.21-11.38V404.75c0-6.285-5.02-11.38-11.21-11.38Zm96.77 0h-74.12c-6.19 0-11.21 5.095-11.21 11.38v75.203c0 6.285 5.02 11.38 11.21 11.38h74.12c6.19 0 11.21-5.095 11.21-11.38V404.75c0-6.285-5.02-11.38-11.21-11.38Zm96.77 0h-74.11c-6.2 0-11.22 5.095-11.22 11.38v75.203c0 6.285 5.02 11.38 11.22 11.38h74.11c6.2 0 11.22-5.095 11.22-11.38V404.75c0-6.285-5.02-11.38-11.22-11.38Zm96.77 0h-74.11c-6.2 0-11.22 5.095-11.22 11.38v75.203c0 6.285 5.02 11.38 11.22 11.38h74.11c6.2 0 11.22-5.095 11.22-11.38V404.75c0-6.285-5.02-11.38-11.22-11.38Z"/><path stroke="#000" stroke-width="1.222" d="M1536.63 393.094h-74.11c-6.35 0-11.49 5.218-11.49 11.656v75.203c0 6.437 5.14 11.656 11.49 11.656h74.11c6.35 0 11.49-5.219 11.49-11.656V404.75c0-6.438-5.14-11.656-11.49-11.656Z"/><path stroke="#000" stroke-width="1.222" d="M1633.41 393.094h-74.12c-6.34 0-11.49 5.218-11.49 11.656v75.203c0 6.437 5.15 11.656 11.49 11.656h74.12c6.34 0 11.48-5.219 11.48-11.656V404.75c0-6.438-5.14-11.656-11.48-11.656ZM278.606 589.334H204.49c-6.345 0-11.488 5.219-11.488 11.656v75.203c0 6.438 5.143 11.656 11.488 11.656h74.116c6.344 0 11.487-5.218 11.487-11.656V600.99c0-6.437-5.143-11.656-11.487-11.656Z"/><path stroke="#000" stroke-width="1.222" d="M375.377 589.334h-74.116c-6.344 0-11.488 5.219-11.488 11.656v75.203c0 6.438 5.144 11.656 11.488 11.656h74.116c6.345 0 11.488-5.218 11.488-11.656V600.99c0-6.437-5.143-11.656-11.488-11.656Z"/><path stroke="#000" stroke-width="1.222" d="M472.149 589.334h-74.116c-6.345 0-11.488 5.219-11.488 11.656v75.203c0 6.438 5.143 11.656 11.488 11.656h74.116c6.344 0 11.487-5.218 11.487-11.656V600.99c0-6.437-5.143-11.656-11.487-11.656Z"/><path stroke="#000" stroke-width="1.222" d="M568.922 589.334h-74.116c-6.344 0-11.488 5.219-11.488 11.656v75.203c0 6.438 5.144 11.656 11.488 11.656h74.116c6.345 0 11.488-5.218 11.488-11.656V600.99c0-6.437-5.143-11.656-11.488-11.656Z"/><path stroke="#000" stroke-width="1.222" d="M665.692 589.334h-74.116c-6.345 0-11.488 5.219-11.488 11.656v75.203c0 6.438 5.143 11.656 11.488 11.656h74.116c6.344 0 11.487-5.218 11.487-11.656V600.99c0-6.437-5.143-11.656-11.487-11.656Z"/><path fill="#000" stroke="#000" stroke-width="1.222" d="M762.461 589.334h-74.116c-6.344 0-11.488 5.219-11.488 11.656v75.203c0 6.438 5.144 11.656 11.488 11.656h74.116c6.345 0 11.488-5.218 11.488-11.656V600.99c0-6.437-5.143-11.656-11.488-11.656Z" opacity=".5"/><path stroke="#000" stroke-width="1.222" d="M859.233 589.334h-74.116c-6.345 0-11.488 5.219-11.488 11.656v75.203c0 6.438 5.143 11.656 11.488 11.656h74.116c6.344 0 11.487-5.218 11.487-11.656V600.99c0-6.437-5.143-11.656-11.487-11.656Z"/><path stroke="#000" stroke-width="1.222" d="M956.004 589.334h-74.116c-6.344 0-11.488 5.219-11.488 11.656v75.203c0 6.438 5.144 11.656 11.488 11.656h74.116c6.345 0 11.488-5.218 11.488-11.656V600.99c0-6.437-5.143-11.656-11.488-11.656Z"/><path stroke="#000" stroke-width="1.222" d="M1052.78 589.334h-74.12c-6.345 0-11.488 5.219-11.488 11.656v75.203c0 6.438 5.143 11.656 11.488 11.656h74.12c6.34 0 11.48-5.218 11.48-11.656V600.99c0-6.437-5.14-11.656-11.48-11.656Zm387.08 0h-74.12c-6.34 0-11.49 5.219-11.49 11.656v75.203c0 6.438 5.15 11.656 11.49 11.656h74.12c6.34 0 11.49-5.218 11.49-11.656V600.99c0-6.437-5.15-11.656-11.49-11.656Z"/><path stroke="#000" stroke-width="1.222" d="M1536.63 589.334h-74.11c-6.35 0-11.49 5.219-11.49 11.656v75.203c0 6.438 5.14 11.656 11.49 11.656h74.11c6.35 0 11.49-5.218 11.49-11.656V600.99c0-6.437-5.14-11.656-11.49-11.656Z"/><path stroke="#000" stroke-width="1.222" d="M1633.41 589.334h-74.12c-6.34 0-11.49 5.219-11.49 11.656v75.203c0 6.438 5.15 11.656 11.49 11.656h74.12c6.34 0 11.48-5.218 11.48-11.656V600.99c0-6.437-5.14-11.656-11.48-11.656Z"/><path stroke="#000" stroke-width="1.222" d="M1730.17 589.334h-74.12c-6.34 0-11.48 5.219-11.48 11.656v75.203c0 6.438 5.14 11.656 11.48 11.656h74.12c6.34 0 11.49-5.218 11.49-11.656V600.99c0-6.437-5.15-11.656-11.49-11.656Z"/><path stroke="#000" stroke-width="1.222" d="M1826.94 589.334h-74.11c-6.35 0-11.49 5.219-11.49 11.656v75.203c0 6.438 5.14 11.656 11.49 11.656h74.11c6.35 0 11.49-5.218 11.49-11.656V600.99c0-6.437-5.14-11.656-11.49-11.656Z"/><path stroke="#000" stroke-width="1.772" d="M278.609 491.49h-74.116c-6.194 0-11.216 5.095-11.216 11.38v75.203c0 6.285 5.022 11.38 11.216 11.38h74.116c6.194 0 11.215-5.095 11.215-11.38V502.87c0-6.285-5.021-11.38-11.215-11.38Z"/><path fill="#000" stroke="#000" stroke-width="1.772" d="M375.378 491.49h-74.116c-6.194 0-11.215 5.095-11.215 11.38v75.203c0 6.285 5.021 11.38 11.215 11.38h74.116c6.195 0 11.216-5.095 11.216-11.38V502.87c0-6.285-5.021-11.38-11.216-11.38Z"/><path stroke="#000" stroke-width="1.772" d="M472.148 491.49h-74.116c-6.194 0-11.216 5.095-11.216 11.38v75.203c0 6.285 5.022 11.38 11.216 11.38h74.116c6.194 0 11.215-5.095 11.215-11.38V502.87c0-6.285-5.021-11.38-11.215-11.38Zm96.771 0h-74.116c-6.194 0-11.215 5.095-11.215 11.38v75.203c0 6.285 5.021 11.38 11.215 11.38h74.116c6.195 0 11.216-5.095 11.216-11.38V502.87c0-6.285-5.021-11.38-11.216-11.38Zm96.774 0h-74.116c-6.194 0-11.216 5.095-11.216 11.38v75.203c0 6.285 5.022 11.38 11.216 11.38h74.116c6.194 0 11.215-5.095 11.215-11.38V502.87c0-6.285-5.021-11.38-11.215-11.38Zm96.769 0h-74.116c-6.194 0-11.215 5.095-11.215 11.38v75.203c0 6.285 5.021 11.38 11.215 11.38h74.116c6.195 0 11.216-5.095 11.216-11.38V502.87c0-6.285-5.021-11.38-11.216-11.38Zm96.772 0h-74.116c-6.194 0-11.216 5.095-11.216 11.38v75.203c0 6.285 5.022 11.38 11.216 11.38h74.116c6.194 0 11.215-5.095 11.215-11.38V502.87c0-6.285-5.021-11.38-11.215-11.38Zm96.773 0h-74.116c-6.194 0-11.215 5.095-11.215 11.38v75.203c0 6.285 5.021 11.38 11.215 11.38h74.116c6.194 0 11.216-5.095 11.216-11.38V502.87c0-6.285-5.022-11.38-11.216-11.38Zm96.773 0h-74.119c-6.194 0-11.216 5.095-11.216 11.38v75.203c0 6.285 5.022 11.38 11.216 11.38h74.119c6.19 0 11.21-5.095 11.21-11.38V502.87c0-6.285-5.02-11.38-11.21-11.38Zm96.77 0h-74.12c-6.19 0-11.22 5.095-11.22 11.38v75.203c0 6.285 5.03 11.38 11.22 11.38h74.12c6.19 0 11.21-5.095 11.21-11.38V502.87c0-6.285-5.02-11.38-11.21-11.38Zm193.54 0h-74.11c-6.2 0-11.22 5.095-11.22 11.38v75.203c0 6.285 5.02 11.38 11.22 11.38h74.11c6.2 0 11.22-5.095 11.22-11.38V502.87c0-6.285-5.02-11.38-11.22-11.38Zm96.77 0h-74.11c-6.2 0-11.22 5.095-11.22 11.38v75.203c0 6.285 5.02 11.38 11.22 11.38h74.11c6.2 0 11.22-5.095 11.22-11.38V502.87c0-6.285-5.02-11.38-11.22-11.38Z"/><path stroke="#000" stroke-width="1.222" d="M1536.63 491.214h-74.11c-6.35 0-11.49 5.219-11.49 11.656v75.203c0 6.438 5.14 11.656 11.49 11.656h74.11c6.35 0 11.49-5.218 11.49-11.656V502.87c0-6.437-5.14-11.656-11.49-11.656Z"/><path stroke="#000" stroke-width="1.222" d="M1633.41 491.214h-74.12c-6.34 0-11.49 5.219-11.49 11.656v75.203c0 6.438 5.15 11.656 11.49 11.656h74.12c6.34 0 11.48-5.218 11.48-11.656V502.87c0-6.437-5.14-11.656-11.48-11.656Z"/><path fill="#000" stroke="#000" stroke-width="1.222" d="M1730.17 491.214h-74.12c-6.34 0-11.48 5.219-11.48 11.656v75.203c0 6.438 5.14 11.656 11.48 11.656h74.12c6.34 0 11.49-5.218 11.49-11.656V502.87c0-6.437-5.15-11.656-11.49-11.656Z"/><path stroke="#000" stroke-width="1.222" d="M1826.94 491.214h-74.11c-6.35 0-11.49 5.219-11.49 11.656v75.203c0 6.438 5.14 11.656 11.49 11.656h74.11c6.35 0 11.49-5.218 11.49-11.656V502.87c0-6.437-5.14-11.656-11.49-11.656Z"/><path stroke="#000" stroke-width="1.772" d="M85.064 99.01H10.948c-6.194 0-11.216 5.095-11.216 11.38v75.203c0 6.285 5.022 11.38 11.216 11.38h74.116c6.194 0 11.215-5.095 11.215-11.38V110.39c0-6.285-5.02-11.38-11.215-11.38Zm96.771 0h-74.116c-6.194 0-11.215 5.095-11.215 11.38v75.203c0 6.285 5.021 11.38 11.215 11.38h74.116c6.195 0 11.216-5.095 11.216-11.38V110.39c0-6.285-5.021-11.38-11.216-11.38Zm96.774 0h-74.116c-6.194 0-11.216 5.095-11.216 11.38v75.203c0 6.285 5.022 11.38 11.216 11.38h74.116c6.194 0 11.215-5.095 11.215-11.38V110.39c0-6.285-5.021-11.38-11.215-11.38Zm387.084 0h-74.116c-6.194 0-11.216 5.095-11.216 11.38v75.203c0 6.285 5.022 11.38 11.216 11.38h74.116c6.194 0 11.215-5.095 11.215-11.38V110.39c0-6.285-5.021-11.38-11.215-11.38Zm96.769 0h-74.116c-6.194 0-11.215 5.095-11.215 11.38v75.203c0 6.285 5.021 11.38 11.215 11.38h74.116c6.195 0 11.216-5.095 11.216-11.38V110.39c0-6.285-5.021-11.38-11.216-11.38Zm96.772 0h-74.116c-6.194 0-11.216 5.095-11.216 11.38v75.203c0 6.285 5.022 11.38 11.216 11.38h74.116c6.194 0 11.215-5.095 11.215-11.38V110.39c0-6.285-5.021-11.38-11.215-11.38Zm96.773 0h-74.116c-6.194 0-11.215 5.095-11.215 11.38v75.203c0 6.285 5.021 11.38 11.215 11.38h74.116c6.194 0 11.216-5.095 11.216-11.38V110.39c0-6.285-5.022-11.38-11.216-11.38Zm96.773 0h-74.119c-6.194 0-11.216 5.095-11.216 11.38v75.203c0 6.285 5.022 11.38 11.216 11.38h74.119c6.19 0 11.21-5.095 11.21-11.38V110.39c0-6.285-5.02-11.38-11.21-11.38Zm96.77 0h-74.12c-6.19 0-11.22 5.095-11.22 11.38v75.203c0 6.285 5.03 11.38 11.22 11.38h74.12c6.19 0 11.21-5.095 11.21-11.38V110.39c0-6.285-5.02-11.38-11.21-11.38Z"/><path fill="#000" stroke="#000" stroke-width="1.772" d="M1246.32 99.01h-74.12c-6.19 0-11.21 5.095-11.21 11.38v75.203c0 6.285 5.02 11.38 11.21 11.38h74.12c6.19 0 11.21-5.095 11.21-11.38V110.39c0-6.285-5.02-11.38-11.21-11.38Z" opacity=".5"/><path stroke="#000" stroke-width="1.772" d="M1343.09 99.01h-74.11c-6.2 0-11.22 5.095-11.22 11.38v75.203c0 6.285 5.02 11.38 11.22 11.38h74.11c6.2 0 11.22-5.095 11.22-11.38V110.39c0-6.285-5.02-11.38-11.22-11.38Zm96.77 0h-74.11c-6.2 0-11.22 5.095-11.22 11.38v75.203c0 6.285 5.02 11.38 11.22 11.38h74.11c6.2 0 11.22-5.095 11.22-11.38V110.39c0-6.285-5.02-11.38-11.22-11.38Z"/><mask id="h" width="61" height="62" x="985" y="19" maskUnits="userSpaceOnUse" style="mask-type:luminance"><path fill="#fff" d="M1045.99 19.63h-60.465v61.35h60.465V19.63Z"/></mask><g mask="url(#h)" opacity=".5"><path fill="#000" d="m1034.62 49.15 3.96-5.032a23.542 23.542 0 0 0-2.38-5.821l-6.3-.719a20 20 0 0 0-1.61-1.632l-.71-6.4a23.282 23.282 0 0 0-5.74-2.397l-4.96 4.019c-.76-.046-1.52-.046-2.28 0l-4.96-4.021c-2 .544-3.92 1.355-5.71 2.413l-.71 6.398c-.57.511-1.11 1.056-1.61 1.632l-6.309.719a24.054 24.054 0 0 0-2.361 5.823l3.96 5.033a19.78 19.78 0 0 0 0 2.31l-3.962 5.032a23.888 23.888 0 0 0 2.378 5.821l6.304.72c.51.575 1.04 1.12 1.61 1.631l.71 6.4a23.283 23.283 0 0 0 5.74 2.398l4.96-4.02c.76.046 1.52.046 2.27 0l4.96 4.022a23.262 23.262 0 0 0 5.74-2.413l.71-6.399a19.89 19.89 0 0 0 1.61-1.632l6.31-.719a24.337 24.337 0 0 0 2.36-5.823l-3.96-5.032c.04-.77.03-1.542-.02-2.31Zm-18.86 10.741c-1.87 0-3.7-.562-5.25-1.615a9.484 9.484 0 0 1-3.48-4.302 9.713 9.713 0 0 1-.54-5.539 9.688 9.688 0 0 1 2.59-4.908 9.39 9.39 0 0 1 4.83-2.623c1.84-.37 3.74-.18 5.46.545a9.469 9.469 0 0 1 4.24 3.53 9.668 9.668 0 0 1 1.59 5.327c0 2.542-.99 4.98-2.76 6.778a9.385 9.385 0 0 1-6.68 2.807Z" opacity=".2"/><path stroke="#000" stroke-linecap="round" stroke-linejoin="round" stroke-width="2.444" d="M1015.76 59.892c5.21 0 9.44-4.292 9.44-9.586 0-5.294-4.23-9.585-9.44-9.585-5.22 0-9.45 4.291-9.45 9.585 0 5.294 4.23 9.586 9.45 9.586Z"/><path stroke="#000" stroke-linecap="round" stroke-linejoin="round" stroke-width="2.444" d="M995.312 62.31a23.888 23.888 0 0 1-2.378-5.822l3.962-5.032a19.78 19.78 0 0 1 0-2.31l-3.96-5.033a23.954 23.954 0 0 1 2.374-5.823l6.31-.72c.5-.575 1.04-1.12 1.61-1.631l.71-6.398a23.142 23.142 0 0 1 5.72-2.395l4.96 4.022c.76-.046 1.52-.046 2.28 0l4.96-4.02c2.01.542 3.94 1.352 5.74 2.41l.71 6.4c.57.511 1.1 1.056 1.61 1.632l6.3.719a23.542 23.542 0 0 1 2.38 5.82l-3.96 5.033c.04.77.04 1.541 0 2.31l3.96 5.033a24.334 24.334 0 0 1-2.36 5.823l-6.31.72c-.51.575-1.04 1.12-1.61 1.631l-.71 6.399a23.397 23.397 0 0 1-5.73 2.413l-4.96-4.021c-.76.045-1.52.045-2.28 0l-4.96 4.018a23.286 23.286 0 0 1-5.74-2.396l-.71-6.4c-.57-.512-1.1-1.057-1.61-1.633l-6.308-.75Z"/></g><mask id="i" width="62" height="63" x="1565" y="117" maskUnits="userSpaceOnUse" style="mask-type:luminance"><path fill="#fff" d="M1626.42 117.787h-60.46v61.348h60.46v-61.348Z"/></mask><g mask="url(#i)"><path fill="#000" d="M1596.19 154.218c3.13 0 5.67-2.576 5.67-5.752 0-3.177-2.54-5.752-5.67-5.752s-5.67 2.575-5.67 5.752c0 3.176 2.54 5.752 5.67 5.752Z" opacity=".2"/><path stroke="#000" stroke-linecap="round" stroke-linejoin="round" stroke-width="2.444" d="m1593.89 143.207-2.96-6.743m16.89 8.068-6.25 2.114m7.15 11.709-8.06-6.361m-8.7.287-8.54 7.698m12.77-5.761c3.13 0 5.67-2.576 5.67-5.752 0-3.177-2.54-5.752-5.67-5.752s-5.67 2.575-5.67 5.752c0 3.176 2.54 5.752 5.67 5.752Zm-7.56-17.257c3.13 0 5.67-2.576 5.67-5.751 0-3.177-2.54-5.752-5.67-5.752s-5.67 2.575-5.67 5.752c0 3.175 2.54 5.751 5.67 5.751Zm24.56 11.502c3.13 0 5.67-2.576 5.67-5.752 0-3.176-2.54-5.751-5.67-5.751s-5.66 2.575-5.66 5.751 2.53 5.752 5.66 5.752Zm0 19.172c3.13 0 5.67-2.576 5.67-5.751 0-3.177-2.54-5.752-5.67-5.752s-5.66 2.575-5.66 5.752c0 3.175 2.53 5.751 5.66 5.751Zm-34 1.918c3.13 0 5.66-2.576 5.66-5.752 0-3.177-2.53-5.752-5.66-5.752-3.14 0-5.67 2.575-5.67 5.752 0 3.176 2.53 5.752 5.67 5.752Z"/></g><mask id="j" width="62" height="62" x="1662" y="509" maskUnits="userSpaceOnUse" style="mask-type:luminance"><path fill="#fff" d="M1723.15 509.19h-60.46v61.349h60.46V509.19Z"/></mask><g mask="url(#j)" opacity=".5"><path fill="#000" d="M1711.82 518.776h-13.22v40.261h13.22v-40.261Z" opacity=".2"/><path stroke="#000" stroke-linecap="round" stroke-linejoin="round" stroke-width="2.444" d="M1674.04 559.038v-17.255h11.33m30.23 17.253h-45.35"/><path stroke="#000" stroke-linecap="round" stroke-linejoin="round" stroke-width="2.444" d="M1685.37 559.037V530.28h13.23m0 28.757v-40.261h13.22v40.261"/></g><mask id="k" width="61" height="62" x="695" y="607" maskUnits="userSpaceOnUse" style="mask-type:luminance"><path fill="#fff" d="M755.772 607.349h-60.461v61.348h60.461v-61.348Z"/></mask><g mask="url(#k)" opacity=".25"><path fill="#000" d="M725.542 661.028c12.522 0 22.673-10.301 22.673-23.006s-10.151-23.005-22.673-23.005c-12.521 0-22.673 10.3-22.673 23.005 0 12.705 10.152 23.006 22.673 23.006Z" opacity=".2"/><path stroke="#000" stroke-linecap="round" stroke-linejoin="round" stroke-width="2.444" d="M725.541 624.602v3.835m.001 32.591c12.522 0 22.673-10.301 22.673-23.006s-10.151-23.005-22.673-23.005c-12.521 0-22.673 10.3-22.673 23.005 0 12.705 10.152 23.006 22.673 23.006Z"/></g><mask id="l" width="61" height="62" x="18" y="19" maskUnits="userSpaceOnUse" style="mask-type:luminance"><path fill="#fff" d="M78.596 19.63H18.135v61.35h60.461V19.63Z"/></mask><g mask="url(#l)" opacity=".25"><path fill="#000" d="m55.925 23.467-3.78 19.171 15.116 5.752L40.81 77.147l3.779-19.172-15.115-5.751 26.452-28.757Z" opacity=".2"/><path stroke="#000" stroke-linecap="round" stroke-linejoin="round" stroke-width="2.444" d="m55.925 23.467-3.78 19.171 15.116 5.752L40.81 77.147l3.779-19.172-15.115-5.751 26.452-28.757Z"/></g><mask id="m" width="61" height="62" x="1179" y="114" maskUnits="userSpaceOnUse" style="mask-type:luminance"><path fill="#fff" d="M1239.46 114.109H1179v61.349h60.46v-61.349Z"/></mask><g mask="url(#m)" opacity=".25"><path fill="#000" d="M1196.56 165.31c-.36.36-.84.562-1.34.562-.5 0-.98-.202-1.33-.562l-4.89-4.951a1.943 1.943 0 0 1 0-2.71l24.02-24.369 7.55 7.669-24.01 24.361Z" opacity=".2"/><path stroke="#000" stroke-linecap="round" stroke-linejoin="round" stroke-width="2.444" d="M1230.02 144.781v11.503m-5.67-5.749h11.34m-37.8-26.842v11.504m-5.66-5.75h11.33m15.11 28.756v7.669m-3.77-3.836h7.56M1213 133.28l7.57 7.669m1.33-16.694L1189 157.64a1.933 1.933 0 0 0 0 2.711l4.89 4.957c.73.748 1.93.748 2.67 0l32.9-33.386c.74-.748.74-1.962 0-2.712l-4.88-4.955a1.88 1.88 0 0 0-2.68 0Z"/></g></g></g></g></g><defs><clipPath id="a"><path fill="#fff" d="M0 0h1741v626H0z"/></clipPath><clipPath id="b"><path fill="#fff" d="M0 0h1741.29v786H0z"/></clipPath><clipPath id="c"><path fill="#fff" d="M0 0h1741.29v787.712H0z"/></clipPath><clipPath id="d"><path fill="#fff" d="M0 0h1741.29v787.712H0z"/></clipPath></defs></svg>