<svg xmlns="http://www.w3.org/2000/svg" width="308" height="233" viewBox="0 0 308 233" fill="none" id="svg1755817966_32795">
<g clip-path="url(#svg1755817966_32795_clip0_54646_1287)">
<mask id="svg1755817966_32795_mask0_54646_1287" style="mask-type:alpha" maskUnits="userSpaceOnUse" x="0" y="0" width="308" height="233">
<path d="M297.957 0H10.0435C4.49662 0 0 4.46749 0 9.97843V222.852C0 228.363 4.49662 232.83 10.0435 232.83H297.957C303.503 232.83 308 228.363 308 222.852V9.97843C308 4.46749 303.503 0 297.957 0Z" fill="url(#svg1755817966_32795_paint0_linear_54646_1287)"/>
</mask>
<g mask="url(#svg1755817966_32795_mask0_54646_1287)">
<mask id="svg1755817966_32795_mask1_54646_1287" style="mask-type:alpha" maskUnits="userSpaceOnUse" x="0" y="0" width="308" height="233">
<path d="M297.957 0H10.0435C4.49662 0 0 4.46749 0 9.97843V222.852C0 228.363 4.49662 232.83 10.0435 232.83H297.957C303.503 232.83 308 228.363 308 222.852V9.97843C308 4.46749 303.503 0 297.957 0Z" fill="url(#svg1755817966_32795_paint1_linear_54646_1287)"/>
</mask>
<g mask="url(#svg1755817966_32795_mask1_54646_1287)">
<g filter="url(#svg1755817966_32795_filter0_d_54646_1287)">
<path d="M400.065 6.65234H13.391C9.69306 6.65234 6.69531 9.63067 6.69531 13.3046V419.094C6.69531 422.768 9.69306 425.746 13.391 425.746H400.065C403.763 425.746 406.76 422.768 406.76 419.094V13.3046C406.76 9.63067 403.763 6.65234 400.065 6.65234Z" fill="white" fill-opacity="0.01"/>
<path d="M400.065 6.65234H13.391C9.69306 6.65234 6.69531 9.63067 6.69531 13.3046V419.094C6.69531 422.768 9.69306 425.746 13.391 425.746H400.065C403.763 425.746 406.76 422.768 406.76 419.094V13.3046C406.76 9.63067 403.763 6.65234 400.065 6.65234Z" fill="url(#svg1755817966_32795_paint2_linear_54646_1287)" fill-opacity="0.04"/>
<path d="M390.021 19.957H23.4338C21.5848 19.957 20.0859 21.4462 20.0859 23.2832V143.024C20.0859 144.861 21.5848 146.35 23.4338 146.35H390.021C391.87 146.35 393.369 144.861 393.369 143.024V23.2832C393.369 21.4462 391.87 19.957 390.021 19.957Z" fill="white" fill-opacity="0.05"/>
<path d="M60.2611 46.5663C60.2611 39.2184 54.2656 33.2617 46.8698 33.2617C39.474 33.2617 33.4785 39.2184 33.4785 46.5663C33.4785 53.9142 39.474 59.8709 46.8698 59.8709C54.2656 59.8709 60.2611 53.9142 60.2611 46.5663Z" fill="white" fill-opacity="0.1"/>
<path d="M43.5207 39.8695C41.0425 41.0943 39.3359 43.6289 39.3359 46.5659C39.3359 48.5507 40.1296 50.4542 41.5422 51.8577C42.9548 53.2612 44.8708 54.0497 46.8685 54.0497L46.0316 52.3866M47.7055 40.7451L46.8685 39.082C48.8663 39.082 50.7823 39.8705 52.1949 41.274C53.6075 42.6775 54.4012 44.581 54.4012 46.5659C54.4012 49.5028 52.6946 52.0374 50.2164 53.2622" stroke="white" stroke-width="1.5" stroke-linecap="round" stroke-linejoin="round"/>
<mask id="svg1755817966_32795_mask2_54646_1287" style="mask-type:luminance" maskUnits="userSpaceOnUse" x="186" y="36" width="21" height="21">
<path d="M186.641 36.5879H206.728V56.5447H186.641V36.5879Z" fill="white"/>
</mask>
<g mask="url(#svg1755817966_32795_mask2_54646_1287)">
<path d="M196.685 54.0497C194.687 54.0497 192.771 53.2612 191.359 51.8577C189.946 50.4542 189.152 48.5507 189.152 46.5659C189.152 44.581 189.946 42.6775 191.359 41.274C192.771 39.8705 194.687 39.082 196.685 39.082C198.683 39.082 200.599 39.8705 202.011 41.274C203.424 42.6775 204.218 44.581 204.218 46.5659C204.218 48.5507 203.424 50.4542 202.011 51.8577C200.599 53.2612 198.683 54.0497 196.685 54.0497Z" fill="white" fill-opacity="0.2"/>
</g>
<path d="M381.653 73.1748H31.8049C29.0315 73.1748 26.7832 75.4086 26.7832 78.164V134.708C26.7832 137.464 29.0315 139.698 31.8049 139.698H381.653C384.426 139.698 386.675 137.464 386.675 134.708V78.164C386.675 75.4086 384.426 73.1748 381.653 73.1748Z" fill="white" fill-opacity="0.05"/>
<mask id="svg1755817966_32795_mask3_54646_1287" style="mask-type:luminance" maskUnits="userSpaceOnUse" x="36" y="83" width="21" height="21">
<path d="M36.8262 83.1533H56.9131V103.11H36.8262V83.1533Z" fill="white"/>
</mask>
<g mask="url(#svg1755817966_32795_mask3_54646_1287)">
<path d="M50.2171 91.4688L46.0324 95.6264L43.5215 93.1318" stroke="white" stroke-opacity="0.6" stroke-width="1.5" stroke-linecap="round" stroke-linejoin="round"/>
</g>
<mask id="svg1755817966_32795_mask4_54646_1287" style="mask-type:luminance" maskUnits="userSpaceOnUse" x="36" y="109" width="21" height="21">
<path d="M36.8262 109.763H56.9131V129.72H36.8262V109.763Z" fill="white"/>
</mask>
<g mask="url(#svg1755817966_32795_mask4_54646_1287)">
<path d="M50.2171 118.078L46.0324 122.236L43.5215 119.741" stroke="white" stroke-opacity="0.6" stroke-width="1.5" stroke-linecap="round" stroke-linejoin="round"/>
</g>
<path d="M381.652 73.5908H31.8044C29.2621 73.5908 27.2012 75.6384 27.2012 78.1643V134.709C27.2012 137.235 29.2621 139.282 31.8044 139.282H381.652C384.195 139.282 386.256 137.235 386.256 134.709V78.1643C386.256 75.6384 384.195 73.5908 381.652 73.5908Z" stroke="white" stroke-opacity="0.1"/>
<path d="M390.022 20.373H23.4352C21.8174 20.373 20.5059 21.6761 20.5059 23.2834V143.025C20.5059 144.632 21.8174 145.935 23.4352 145.935H390.022C391.64 145.935 392.951 144.632 392.951 143.025V23.2834C392.951 21.6761 391.64 20.373 390.022 20.373Z" stroke="white" stroke-opacity="0.1"/>
<path d="M390.021 153.003H23.4338C21.5848 153.003 20.0859 154.492 20.0859 156.329V409.116C20.0859 410.953 21.5848 412.442 23.4338 412.442H390.021C391.87 412.442 393.369 410.953 393.369 409.116V156.329C393.369 154.492 391.87 153.003 390.021 153.003Z" fill="white" fill-opacity="0.05"/>
<path d="M60.2611 179.612C60.2611 172.264 54.2656 166.308 46.8698 166.308C39.474 166.308 33.4785 172.264 33.4785 179.612C33.4785 186.96 39.474 192.917 46.8698 192.917C54.2656 192.917 60.2611 186.96 60.2611 179.612Z" fill="white" fill-opacity="0.1"/>
<mask id="svg1755817966_32795_mask5_54646_1287" style="mask-type:luminance" maskUnits="userSpaceOnUse" x="164" y="169" width="21" height="21">
<path d="M164.043 169.634H184.13V189.591H164.043V169.634Z" fill="white"/>
</mask>
<g mask="url(#svg1755817966_32795_mask5_54646_1287)">
<path d="M174.087 187.096C172.09 187.096 170.174 186.307 168.761 184.904C167.348 183.5 166.555 181.597 166.555 179.612C166.555 177.627 167.348 175.723 168.761 174.32C170.174 172.916 172.09 172.128 174.087 172.128C176.085 172.128 178.001 172.916 179.414 174.32C180.826 175.723 181.62 177.627 181.62 179.612C181.62 181.597 180.826 183.5 179.414 184.904C178.001 186.307 176.085 187.096 174.087 187.096Z" fill="white" fill-opacity="0.2"/>
<path d="M177.436 177.948L173.251 182.106L170.74 179.611" stroke="white" stroke-opacity="0.5" stroke-width="1.5" stroke-linecap="round" stroke-linejoin="round"/>
</g>
<path d="M374.956 166.308H286.239C283.465 166.308 281.217 168.541 281.217 171.297V187.928C281.217 190.683 283.465 192.917 286.239 192.917H374.956C377.729 192.917 379.978 190.683 379.978 187.928V171.297C379.978 168.541 377.729 166.308 374.956 166.308Z" fill="white" fill-opacity="0.03"/>
<path d="M294.375 175.681L296.408 181.591H296.49L298.523 175.681H299.714L297.085 182.938H295.812L293.184 175.681H294.375ZM300.684 182.938V177.495H301.75V182.938H300.684ZM301.222 176.655C301.044 176.658 300.873 176.592 300.744 176.471C300.682 176.414 300.632 176.345 300.598 176.268C300.565 176.191 300.547 176.108 300.548 176.024C300.548 175.85 300.613 175.701 300.744 175.578C300.872 175.455 301.044 175.387 301.222 175.39C301.408 175.39 301.566 175.453 301.696 175.578C301.76 175.633 301.811 175.702 301.845 175.779C301.88 175.856 301.897 175.94 301.896 176.024C301.896 176.196 301.829 176.345 301.696 176.471C301.633 176.531 301.559 176.578 301.478 176.61C301.396 176.642 301.309 176.657 301.222 176.655ZM305.545 183.047C305.006 183.047 304.541 182.933 304.151 182.704C303.763 182.472 303.451 182.133 303.252 181.729C303.043 181.309 302.938 180.816 302.938 180.252C302.938 179.694 303.043 179.203 303.252 178.777C303.464 178.352 303.759 178.021 304.137 177.782C304.517 177.543 304.962 177.424 305.471 177.424C305.78 177.424 306.079 177.474 306.37 177.577C306.659 177.678 306.92 177.837 307.151 178.055C307.381 178.272 307.563 178.555 307.696 178.901C307.829 179.246 307.896 179.665 307.896 180.159V180.535H303.541V179.741H306.851C306.856 179.484 306.797 179.23 306.68 179.001C306.571 178.789 306.404 178.61 306.198 178.487C305.981 178.358 305.731 178.293 305.478 178.299C305.178 178.299 304.917 178.372 304.693 178.519C304.475 178.66 304.298 178.855 304.18 179.086C304.06 179.32 303.999 179.579 304.001 179.841V180.46C304.001 180.825 304.066 181.134 304.194 181.389C304.324 181.645 304.507 181.839 304.739 181.974C304.973 182.106 305.245 182.173 305.556 182.173C305.758 182.173 305.943 182.143 306.109 182.087C306.272 182.033 306.421 181.942 306.544 181.823C306.667 181.703 306.761 181.557 306.818 181.396L307.828 181.577C307.75 181.868 307.601 182.134 307.393 182.353C307.186 182.573 306.926 182.744 306.612 182.867C306.271 182.992 305.909 183.054 305.545 183.047ZM310.257 182.938L308.645 177.495H309.747L310.821 181.492H310.874L311.951 177.495H313.053L314.123 181.474H314.177L315.243 177.495H316.346L314.737 182.938H313.649L312.536 179.008H312.454L311.341 182.938H310.257ZM322.323 183.047C321.809 183.047 321.361 182.93 320.978 182.696C320.593 182.46 320.284 182.12 320.087 181.715C319.875 181.294 319.769 180.803 319.769 180.241C319.769 179.676 319.875 179.182 320.087 178.76C320.283 178.354 320.592 178.012 320.978 177.775C321.361 177.541 321.809 177.424 322.323 177.424C322.836 177.424 323.285 177.541 323.667 177.775C324.051 178.008 324.348 178.337 324.559 178.76C324.77 179.182 324.877 179.676 324.877 180.241C324.877 180.803 324.77 181.294 324.559 181.715C324.362 182.12 324.053 182.46 323.667 182.696C323.285 182.93 322.836 183.047 322.323 183.047ZM322.326 182.158C322.66 182.158 322.935 182.07 323.154 181.896C323.373 181.721 323.534 181.488 323.639 181.198C323.749 180.89 323.803 180.565 323.799 180.238C323.799 179.89 323.746 179.572 323.639 179.28C323.546 179.005 323.379 178.761 323.154 178.575C322.935 178.398 322.66 178.31 322.326 178.31C321.991 178.31 321.713 178.398 321.492 178.575C321.267 178.761 321.098 179.005 321.003 179.28C320.899 179.572 320.846 179.89 320.846 180.238C320.846 180.587 320.899 180.907 321.003 181.198C321.11 181.488 321.273 181.721 321.492 181.896C321.713 182.07 321.991 182.158 322.326 182.158ZM327.133 179.706V182.938H326.067V177.495H327.09V178.381H327.158C327.285 178.092 327.481 177.861 327.75 177.686C328.021 177.511 328.363 177.424 328.774 177.424C329.147 177.424 329.474 177.502 329.754 177.658C330.035 177.811 330.252 178.041 330.407 178.345C330.562 178.65 330.639 179.027 330.639 179.476V182.938H329.573V179.603C329.573 179.209 329.469 178.9 329.262 178.678C329.056 178.454 328.772 178.342 328.41 178.342C328.163 178.342 327.942 178.395 327.75 178.501C327.557 178.611 327.4 178.773 327.297 178.969C327.187 179.172 327.133 179.418 327.133 179.706ZM337.898 183.037C337.239 183.037 336.66 182.886 336.161 182.583C335.662 182.281 335.273 181.852 334.995 181.297C334.717 180.74 334.578 180.078 334.578 179.313C334.578 178.734 334.66 178.214 334.824 177.754C334.974 177.32 335.211 176.921 335.519 176.58C335.811 176.261 336.169 176.008 336.568 175.84C336.982 175.665 337.427 175.577 337.876 175.581C338.271 175.581 338.641 175.639 338.986 175.755C339.333 175.87 339.643 176.035 339.917 176.248C340.19 176.457 340.416 176.709 340.595 177.002C340.775 177.295 340.896 177.619 340.958 177.973H339.827C339.768 177.767 339.675 177.572 339.553 177.395C339.436 177.225 339.29 177.077 339.122 176.956C338.952 176.832 338.763 176.737 338.562 176.676C338.343 176.611 338.116 176.578 337.887 176.58C337.474 176.58 337.099 176.686 336.764 176.896C336.428 177.106 336.162 177.415 335.965 177.821C335.77 178.224 335.673 178.72 335.673 179.305C335.673 179.893 335.769 180.391 335.961 180.797C336.154 181.204 336.418 181.512 336.753 181.722C337.089 181.932 337.47 182.038 337.898 182.038C338.307 182.038 338.664 181.952 338.968 181.783C339.272 181.612 339.507 181.378 339.674 181.077C339.843 180.777 339.928 180.434 339.928 180.046L340.103 180.128H338.065V179.224H341.008V182.938H340.159L340.059 182.069H340.024C339.771 182.366 339.46 182.61 339.111 182.785C338.773 182.953 338.369 183.037 337.898 183.037ZM342.319 182.938V177.495H343.385V182.938H342.319ZM342.857 176.655C342.68 176.658 342.508 176.592 342.379 176.471C342.317 176.414 342.267 176.345 342.234 176.268C342.2 176.191 342.183 176.108 342.183 176.024C342.183 175.85 342.248 175.701 342.379 175.578C342.513 175.453 342.672 175.39 342.857 175.39C343.043 175.39 343.201 175.453 343.332 175.578C343.395 175.633 343.446 175.702 343.48 175.779C343.515 175.856 343.532 175.94 343.532 176.024C343.532 176.196 343.465 176.345 343.332 176.471C343.269 176.531 343.194 176.578 343.113 176.61C343.031 176.642 342.944 176.657 342.857 176.655ZM347.377 177.495V178.345H344.384V177.495H347.377ZM345.187 176.19H346.253V181.339C346.253 181.545 346.284 181.699 346.346 181.803C346.4 181.898 346.484 181.972 346.586 182.013C346.685 182.048 346.793 182.066 346.909 182.066C346.996 182.066 347.07 182.06 347.135 182.048C347.185 182.039 347.235 182.03 347.284 182.02L347.477 182.895C347.254 182.971 347.02 183.009 346.785 183.008C346.516 183.015 346.248 182.964 346.001 182.859C345.762 182.759 345.558 182.591 345.412 182.378C345.262 182.16 345.187 181.887 345.187 181.559V176.19ZM348.76 182.938V175.681H349.862V178.834H353.504V175.681H354.61V182.938H353.504V179.774H349.862V182.938H348.76ZM359.599 180.681V177.495H360.669V182.938H359.62V181.995H359.563C359.437 182.286 359.235 182.528 358.957 182.721C358.681 182.913 358.337 183.008 357.926 183.008C357.574 183.008 357.263 182.932 356.991 182.778C356.716 182.615 356.495 182.375 356.357 182.087C356.205 181.783 356.129 181.406 356.129 180.957V177.495H357.195V180.829C357.195 181.2 357.299 181.496 357.505 181.715C357.712 181.935 357.981 182.044 358.311 182.044C358.511 182.044 358.71 181.995 358.907 181.896C359.106 181.797 359.272 181.646 359.403 181.446C359.536 181.245 359.601 180.99 359.599 180.681ZM362.187 182.938V175.681H363.254V178.377H363.318C363.38 178.264 363.469 178.133 363.585 177.984C363.702 177.835 363.864 177.705 364.07 177.594C364.277 177.481 364.551 177.424 364.891 177.424C365.333 177.424 365.728 177.535 366.075 177.757C366.422 177.979 366.694 178.299 366.892 178.718C367.091 179.136 367.191 179.639 367.191 180.227C367.191 180.815 367.093 181.319 366.895 181.74C366.698 182.158 366.426 182.48 366.082 182.707C365.737 182.932 365.343 183.044 364.902 183.044C364.568 183.044 364.296 182.988 364.085 182.878C363.896 182.782 363.728 182.65 363.593 182.488C363.49 182.363 363.399 182.23 363.318 182.091H363.228V182.938H362.187ZM363.233 180.216C363.233 180.598 363.288 180.934 363.4 181.223C363.511 181.511 363.674 181.736 363.885 181.899C364.096 182.06 364.356 182.14 364.662 182.14C364.981 182.14 365.247 182.056 365.461 181.889C365.676 181.719 365.837 181.488 365.946 181.198C366.062 180.884 366.119 180.551 366.114 180.216C366.114 179.857 366.059 179.535 365.95 179.249C365.857 178.982 365.688 178.747 365.465 178.572C365.251 178.407 364.984 178.324 364.662 178.324C364.353 178.324 364.092 178.403 363.878 178.561C363.657 178.732 363.49 178.962 363.397 179.224C363.281 179.542 363.226 179.878 363.233 180.216Z" fill="white"/>
<path d="M374.955 166.723H286.238C283.696 166.723 281.635 168.77 281.635 171.296V187.927C281.635 190.453 283.696 192.5 286.238 192.5H374.955C377.498 192.5 379.559 190.453 379.559 187.927V171.296C379.559 168.77 377.498 166.723 374.955 166.723Z" stroke="white" stroke-opacity="0.05"/>
<path d="M381.653 206.221H31.8049C29.0315 206.221 26.7832 208.454 26.7832 211.21V400.8C26.7832 403.556 29.0315 405.789 31.8049 405.789H381.653C384.426 405.789 386.675 403.556 386.675 400.8V211.21C386.675 208.454 384.426 206.221 381.653 206.221Z" fill="white" fill-opacity="0.05"/>
<mask id="svg1755817966_32795_mask6_54646_1287" style="mask-type:luminance" maskUnits="userSpaceOnUse" x="40" y="216" width="21" height="21">
<path d="M40.1738 216.199H60.2608V236.156H40.1738V216.199Z" fill="white"/>
</mask>
<g mask="url(#svg1755817966_32795_mask6_54646_1287)">
<path d="M53.5648 224.515L49.38 228.672L46.8691 226.178" stroke="white" stroke-opacity="0.6" stroke-width="1.5" stroke-linecap="round" stroke-linejoin="round"/>
</g>
<path d="M66.8134 224.062C66.7968 223.892 66.7411 223.728 66.6507 223.583C66.5603 223.438 66.4376 223.316 66.292 223.225C65.9882 223.027 65.614 222.928 65.1721 222.928C64.8491 222.928 64.5662 222.979 64.3235 223.083C64.1007 223.174 63.9062 223.322 63.7602 223.512C63.6272 223.692 63.557 223.91 63.5601 224.133C63.5601 224.326 63.607 224.493 63.6991 224.632C63.7945 224.769 63.9159 224.884 64.0632 224.976C64.2105 225.066 64.3645 225.14 64.5268 225.199C64.6884 225.256 64.8365 225.302 64.9729 225.338L65.7145 225.535C65.9045 225.585 66.1162 225.654 66.3497 225.741C66.5841 225.829 66.81 225.948 67.0235 226.099C67.2394 226.248 67.4185 226.439 67.5591 226.673C67.6989 226.907 67.7684 227.194 67.7684 227.534C67.7684 227.926 67.6654 228.28 67.4587 228.597C67.2536 228.914 66.9548 229.165 66.5598 229.352C66.1673 229.538 65.691 229.632 65.1294 229.632C64.6063 229.632 64.1535 229.548 63.7711 229.381C63.4136 229.231 63.1032 228.988 62.8722 228.679C62.653 228.372 62.5254 228.009 62.5039 227.633H63.4179C63.4413 227.908 63.5342 228.134 63.6957 228.314C63.8664 228.495 64.0798 228.631 64.3168 228.71C64.5678 228.796 64.8399 228.838 65.1294 228.838C65.4676 228.838 65.7705 228.784 66.0392 228.675C66.307 228.564 66.5205 228.411 66.6778 228.215C66.8343 228.016 66.9122 227.785 66.9122 227.52C66.9122 227.279 66.8452 227.083 66.7096 226.932C66.5605 226.771 66.3776 226.645 66.174 226.563C65.9411 226.465 65.7017 226.382 65.4575 226.315L64.5586 226.06C63.9887 225.897 63.5367 225.664 63.2036 225.362C62.8705 225.06 62.7048 224.664 62.7048 224.175C62.7048 223.768 62.8153 223.414 63.0362 223.112C63.2597 222.807 63.5593 222.571 63.9351 222.403C64.3337 222.229 64.7652 222.142 65.2006 222.148C65.6718 222.148 66.0903 222.232 66.456 222.4C66.8003 222.548 67.1002 222.782 67.3265 223.08C67.5432 223.368 67.657 223.695 67.6696 224.062H66.8134ZM71.4058 229.617C70.8785 229.617 70.4224 229.502 70.0399 229.271C69.658 229.035 69.3521 228.696 69.1586 228.293C68.9543 227.872 68.8522 227.383 68.8522 226.825C68.8522 226.268 68.9543 225.777 69.1586 225.352C69.3471 224.945 69.6463 224.599 70.0223 224.352C70.3931 224.111 70.8258 223.99 71.3196 223.99C71.6058 223.99 71.887 224.038 72.1649 224.133C72.4436 224.227 72.6972 224.38 72.9249 224.593C73.1533 224.804 73.335 225.082 73.4705 225.429C73.6061 225.777 73.6739 226.204 73.6739 226.712V227.066H69.4515V226.344H72.8186C72.8186 226.037 72.7566 225.762 72.6328 225.521C72.5168 225.286 72.3364 225.088 72.1122 224.951C71.8736 224.808 71.5989 224.735 71.3204 224.742C70.9856 224.742 70.6952 224.825 70.45 224.99C70.2101 225.15 70.0169 225.37 69.89 225.628C69.7594 225.89 69.6923 226.179 69.6942 226.471V226.953C69.6942 227.364 69.7653 227.712 69.9076 227.998C70.0533 228.282 70.2541 228.498 70.5102 228.647C70.7672 228.793 71.066 228.867 71.4058 228.867C71.6267 228.867 71.8268 228.836 72.005 228.774C72.1858 228.71 72.3415 228.616 72.4721 228.491C72.6073 228.357 72.711 228.194 72.7759 228.016L73.5886 228.243C73.5042 228.514 73.3562 228.762 73.1567 228.966C72.955 229.171 72.7047 229.332 72.4085 229.448C72.0875 229.565 71.7477 229.623 71.4058 229.617ZM77.3373 224.062V224.77H74.4983V224.062H77.3373ZM75.3252 222.757H76.1672V227.945C76.1672 228.181 76.2015 228.359 76.271 228.477C76.3317 228.583 76.4274 228.666 76.5422 228.71C76.6535 228.749 76.7715 228.768 76.8945 228.768C76.9874 228.768 77.0636 228.763 77.123 228.753L77.2653 228.724L77.4369 229.476C77.235 229.545 77.0226 229.579 76.8092 229.575C76.5715 229.575 76.3388 229.524 76.1103 229.423C75.8841 229.321 75.6896 229.161 75.547 228.959C75.3989 228.751 75.3252 228.488 75.3252 228.172V222.757ZM80.9856 224.062V224.77H78.1466V224.062H80.9856ZM78.9744 222.757H79.8155V227.945C79.8155 228.181 79.8507 228.359 79.9193 228.477C79.9799 228.583 80.0757 228.666 80.1905 228.71C80.3018 228.749 80.4198 228.768 80.5437 228.768C80.6357 228.768 80.7119 228.763 80.7713 228.753L80.9136 228.724L81.0852 229.476C80.8833 229.545 80.6709 229.579 80.4575 229.575C80.2198 229.575 79.9871 229.524 79.7586 229.423C79.5324 229.321 79.3379 229.161 79.1953 228.959C79.048 228.751 78.9744 228.488 78.9744 228.172V222.757ZM82.2519 229.504V224.062H83.0939V229.504H82.2519ZM82.6796 223.155C82.5215 223.157 82.3689 223.097 82.2552 222.988C82.1994 222.937 82.1549 222.875 82.1248 222.806C82.0947 222.737 82.0795 222.663 82.0803 222.588C82.0803 222.431 82.1389 222.298 82.2561 222.187C82.3698 222.078 82.5219 222.019 82.6796 222.021C82.8436 222.021 82.9842 222.076 83.1006 222.187C83.1573 222.237 83.2026 222.299 83.2333 222.368C83.264 222.437 83.2796 222.512 83.2788 222.588C83.2796 222.663 83.264 222.738 83.2333 222.807C83.2025 222.876 83.1573 222.937 83.1006 222.988C83.0451 223.042 82.9793 223.085 82.907 223.113C82.8347 223.142 82.7574 223.156 82.6796 223.155ZM85.4767 226.23V229.504H84.6355V224.062H85.4482V224.912H85.5194C85.6458 224.638 85.849 224.407 86.1044 224.246C86.3664 224.076 86.7037 223.99 87.1171 223.99C87.4887 223.99 87.8126 224.066 88.0913 224.217C88.3692 224.366 88.586 224.593 88.74 224.898C88.8948 225.2 88.9718 225.583 88.9718 226.046V229.504H88.1307V226.103C88.1307 225.675 88.0185 225.342 87.7951 225.103C87.5716 224.863 87.2653 224.742 86.8752 224.742C86.6066 224.742 86.3664 224.8 86.1546 224.916C85.9454 225.032 85.7797 225.2 85.6591 225.422C85.5378 225.644 85.4767 225.914 85.4767 226.23ZM92.7214 231.659C92.3146 231.659 91.9656 231.607 91.6727 231.503C91.4058 231.415 91.1579 231.278 90.942 231.099C90.7609 230.947 90.6055 230.768 90.4817 230.567L91.1521 230.1C91.2283 230.199 91.3245 230.313 91.4408 230.44C91.558 230.57 91.717 230.682 91.9187 230.777C92.1238 230.873 92.3908 230.922 92.7214 230.922C93.1641 230.922 93.5291 230.816 93.8161 230.603C94.104 230.39 94.248 230.057 94.248 229.603V228.498H94.1769C94.095 228.625 94.0068 228.748 93.9124 228.867C93.78 229.028 93.6148 229.159 93.4278 229.252C93.2185 229.364 92.9356 229.42 92.5791 229.42C92.1606 229.426 91.7484 229.318 91.3873 229.108C91.0292 228.89 90.7411 228.575 90.557 228.201C90.3545 227.804 90.2532 227.322 90.2532 226.754C90.2532 226.197 90.352 225.712 90.5495 225.298C90.747 224.883 91.0215 224.561 91.3731 224.335C91.7254 224.105 92.1322 223.99 92.5933 223.99C92.9499 223.99 93.2328 224.05 93.442 224.168C93.6538 224.284 93.8153 224.416 93.9266 224.565C94.0413 224.711 94.1291 224.832 94.1911 224.926H94.2764V224.062H95.09V229.661C95.09 230.128 94.9828 230.508 94.7686 230.802C94.5552 231.098 94.2568 231.324 93.9124 231.449C93.5558 231.589 93.1591 231.659 92.7214 231.659ZM92.6929 228.668C93.0302 228.668 93.3156 228.591 93.5491 228.438C93.7818 228.285 93.9592 228.063 94.0806 227.775C94.202 227.487 94.2622 227.142 94.2622 226.74C94.2622 226.349 94.2028 226.002 94.084 225.703C93.98 225.422 93.7966 225.177 93.5558 224.997C93.3232 224.827 93.0352 224.742 92.6929 224.742C92.3364 224.742 92.0393 224.832 91.8016 225.012C91.5599 225.198 91.3758 225.449 91.2701 225.734C91.1502 226.056 91.0909 226.397 91.0952 226.74C91.0952 227.119 91.1546 227.453 91.2735 227.743C91.3948 228.032 91.5731 228.258 91.8083 228.423C92.046 228.586 92.3414 228.668 92.6929 228.668ZM102.908 227.279V224.062H103.749V229.504H102.908V228.583H102.85C102.716 228.866 102.51 229.109 102.252 229.288C101.981 229.479 101.638 229.575 101.224 229.575C100.882 229.575 100.578 229.501 100.311 229.352C100.038 229.193 99.819 228.956 99.6832 228.672C99.5317 228.367 99.4555 227.983 99.4555 227.52V224.062H100.297V227.463C100.297 227.86 100.409 228.176 100.632 228.413C100.858 228.65 101.145 228.768 101.495 228.768C101.704 228.768 101.917 228.714 102.134 228.608C102.352 228.502 102.536 228.339 102.683 228.119C102.833 227.9 102.908 227.619 102.908 227.279ZM105.291 231.546V224.062H106.104V224.926H106.204C106.286 224.803 106.372 224.683 106.461 224.565C106.573 224.416 106.732 224.284 106.939 224.168C107.148 224.05 107.431 223.99 107.787 223.99C108.249 223.99 108.655 224.105 109.008 224.335C109.359 224.563 109.634 224.889 109.831 225.309C110.029 225.729 110.128 226.226 110.128 226.797C110.128 227.374 110.029 227.873 109.831 228.296C109.634 228.717 109.36 229.043 109.011 229.274C108.661 229.504 108.259 229.617 107.802 229.617C107.45 229.617 107.168 229.56 106.956 229.445C106.768 229.346 106.602 229.209 106.468 229.044C106.375 228.922 106.286 228.797 106.204 228.668H106.133V231.546H105.291ZM106.119 226.783C106.119 227.194 106.179 227.557 106.3 227.871C106.422 228.183 106.599 228.428 106.832 228.605C107.065 228.779 107.35 228.867 107.688 228.867C108.039 228.867 108.333 228.774 108.568 228.591C108.814 228.394 108.999 228.134 109.104 227.839C109.225 227.522 109.286 227.17 109.286 226.783C109.286 226.4 109.226 226.055 109.107 225.748C109.005 225.458 108.82 225.204 108.576 225.015C108.341 224.833 108.044 224.742 107.688 224.742C107.346 224.742 107.058 224.828 106.825 225.001C106.591 225.17 106.416 225.409 106.297 225.717C106.178 226.021 106.119 226.377 106.119 226.783ZM114.236 224.062H115.077V229.901C115.077 230.237 115.02 230.527 114.903 230.773C114.794 231.013 114.612 231.213 114.382 231.344C114.152 231.478 113.86 231.546 113.508 231.546H113.337V230.766H113.494C113.751 230.766 113.939 230.69 114.058 230.539C114.177 230.39 114.236 230.178 114.236 229.901V224.062ZM114.65 223.155C114.491 223.157 114.339 223.097 114.225 222.988C114.169 222.937 114.125 222.875 114.095 222.806C114.065 222.737 114.05 222.663 114.05 222.588C114.05 222.431 114.109 222.298 114.225 222.187C114.339 222.078 114.492 222.018 114.65 222.021C114.814 222.021 114.954 222.076 115.071 222.187C115.127 222.237 115.173 222.299 115.203 222.368C115.234 222.437 115.25 222.512 115.249 222.588C115.25 222.663 115.234 222.738 115.203 222.807C115.173 222.876 115.127 222.937 115.071 222.988C115.015 223.042 114.949 223.085 114.877 223.113C114.805 223.142 114.727 223.156 114.65 223.155ZM118.845 229.617C118.351 229.617 117.916 229.501 117.543 229.267C117.166 229.027 116.865 228.687 116.673 228.285C116.466 227.865 116.363 227.373 116.363 226.811C116.363 226.245 116.466 225.749 116.673 225.327C116.882 224.904 117.172 224.575 117.543 224.341C117.916 224.108 118.351 223.99 118.845 223.99C119.339 223.99 119.772 224.108 120.143 224.341C120.517 224.575 120.806 224.904 121.013 225.327C121.222 225.749 121.327 226.245 121.327 226.811C121.327 227.373 121.222 227.865 121.013 228.285C120.823 228.688 120.521 229.028 120.143 229.267C119.772 229.501 119.339 229.617 118.845 229.617ZM118.845 228.867C119.22 228.867 119.53 228.771 119.772 228.58C120.015 228.388 120.194 228.137 120.311 227.825C120.43 227.5 120.489 227.157 120.486 226.811C120.486 226.448 120.427 226.108 120.311 225.794C120.205 225.496 120.019 225.232 119.772 225.032C119.53 224.839 119.22 224.742 118.845 224.742C118.47 224.742 118.16 224.839 117.918 225.032C117.675 225.226 117.495 225.481 117.379 225.794C117.26 226.12 117.201 226.464 117.204 226.811C117.204 227.175 117.263 227.513 117.379 227.825C117.495 228.137 117.675 228.388 117.918 228.58C118.16 228.771 118.47 228.867 118.845 228.867ZM122.726 229.504V222.248H123.568V224.926H123.639C123.722 224.803 123.807 224.683 123.896 224.565C124.008 224.416 124.168 224.284 124.374 224.168C124.583 224.05 124.866 223.99 125.223 223.99C125.684 223.99 126.091 224.105 126.442 224.335C126.795 224.563 127.069 224.889 127.267 225.309C127.463 225.729 127.562 226.226 127.562 226.797C127.562 227.374 127.463 227.873 127.267 228.296C127.069 228.717 126.796 229.043 126.447 229.274C126.097 229.504 125.693 229.617 125.237 229.617C124.885 229.617 124.604 229.56 124.392 229.445C124.203 229.345 124.037 229.209 123.903 229.044C123.81 228.922 123.722 228.797 123.639 228.668H123.54V229.504H122.726ZM123.554 226.783C123.554 227.194 123.614 227.557 123.736 227.871C123.857 228.183 124.034 228.428 124.267 228.605C124.5 228.779 124.785 228.867 125.123 228.867C125.475 228.867 125.769 228.774 126.004 228.591C126.241 228.403 126.42 228.153 126.539 227.839C126.66 227.522 126.721 227.17 126.721 226.783C126.721 226.4 126.662 226.055 126.543 225.748C126.44 225.458 126.256 225.204 126.011 225.015C125.775 224.833 125.48 224.742 125.123 224.742C124.78 224.742 124.493 224.828 124.26 225.001C124.017 225.183 123.834 225.432 123.732 225.717C123.613 226.021 123.554 226.377 123.554 226.783ZM129.464 229.561C129.379 229.562 129.295 229.546 129.217 229.514C129.139 229.481 129.069 229.434 129.01 229.373C128.95 229.315 128.902 229.245 128.869 229.167C128.837 229.09 128.821 229.007 128.822 228.923C128.822 228.749 128.885 228.599 129.01 228.473C129.069 228.413 129.139 228.365 129.217 228.333C129.295 228.3 129.379 228.284 129.464 228.285C129.64 228.285 129.79 228.348 129.917 228.473C130.042 228.599 130.106 228.749 130.106 228.923C130.104 229.035 130.073 229.144 130.017 229.241C129.961 229.338 129.881 229.419 129.784 229.476C129.687 229.533 129.576 229.563 129.464 229.561ZM132.229 229.561C132.145 229.562 132.061 229.546 131.983 229.514C131.905 229.481 131.835 229.433 131.776 229.373C131.716 229.315 131.667 229.245 131.635 229.167C131.602 229.09 131.586 229.007 131.587 228.923C131.587 228.749 131.651 228.599 131.776 228.473C131.835 228.413 131.905 228.365 131.983 228.333C132.061 228.3 132.145 228.284 132.229 228.285C132.406 228.285 132.556 228.348 132.683 228.473C132.743 228.532 132.791 228.602 132.824 228.679C132.856 228.756 132.872 228.839 132.871 228.923C132.872 229.036 132.841 229.146 132.782 229.242C132.726 229.338 132.646 229.419 132.55 229.476C132.453 229.533 132.342 229.563 132.229 229.561ZM134.995 229.561C134.911 229.562 134.827 229.546 134.749 229.514C134.671 229.481 134.601 229.433 134.542 229.373C134.482 229.315 134.433 229.245 134.401 229.168C134.368 229.09 134.352 229.007 134.353 228.923C134.353 228.749 134.416 228.599 134.542 228.473C134.601 228.413 134.671 228.365 134.749 228.333C134.827 228.3 134.911 228.284 134.995 228.285C135.171 228.285 135.322 228.348 135.448 228.473C135.509 228.531 135.557 228.601 135.59 228.679C135.622 228.756 135.638 228.839 135.637 228.923C135.638 229.036 135.607 229.146 135.548 229.242C135.492 229.338 135.412 229.418 135.317 229.476C135.219 229.533 135.108 229.563 134.995 229.561Z" fill="white" fill-opacity="0.7"/>
<path d="M381.652 206.637H31.8044C29.2621 206.637 27.2012 208.684 27.2012 211.21V400.8C27.2012 403.326 29.2621 405.374 31.8044 405.374H381.652C384.195 405.374 386.256 403.326 386.256 400.8V211.21C386.256 208.684 384.195 206.637 381.652 206.637Z" stroke="white" stroke-opacity="0.1"/>
<path d="M390.022 153.418H23.4352C21.8174 153.418 20.5059 154.721 20.5059 156.328V409.115C20.5059 410.723 21.8174 412.026 23.4352 412.026H390.022C391.64 412.026 392.951 410.723 392.951 409.115V156.328C392.951 154.721 391.64 153.418 390.022 153.418Z" stroke="white" stroke-opacity="0.1"/>
<path d="M400.064 7.06836H13.3905C9.92367 7.06836 7.11328 9.86054 7.11328 13.3049V419.094C7.11328 422.539 9.92367 425.331 13.3905 425.331H400.064C403.531 425.331 406.342 422.539 406.342 419.094V13.3049C406.342 9.86054 403.531 7.06836 400.064 7.06836Z" stroke="white" stroke-opacity="0.05"/>
<path d="M400.064 7.06836H13.3905C9.92367 7.06836 7.11328 9.86054 7.11328 13.3049V419.094C7.11328 422.539 9.92367 425.331 13.3905 425.331H400.064C403.531 425.331 406.342 422.539 406.342 419.094V13.3049C406.342 9.86054 403.531 7.06836 400.064 7.06836Z" stroke="url(#svg1755817966_32795_paint3_linear_54646_1287)" stroke-opacity="0.16"/>
</g>
</g>
</g>
</g>
<defs>
<filter id="svg1755817966_32795_filter0_d_54646_1287" x="-25.3867" y="-9.43164" width="464.229" height="483.263" filterUnits="userSpaceOnUse" color-interpolation-filters="sRGB">
<feFlood flood-opacity="0" result="BackgroundImageFix"/>
<feColorMatrix in="SourceAlpha" type="matrix" values="0 0 0 0 0 0 0 0 0 0 0 0 0 0 0 0 0 0 127 0" result="hardAlpha"/>
<feOffset dy="16"/>
<feGaussianBlur stdDeviation="16"/>
<feComposite in2="hardAlpha" operator="out"/>
<feColorMatrix type="matrix" values="0 0 0 0 0 0 0 0 0 0 0 0 0 0 0 0 0 0 0.12 0"/>
<feBlend mode="normal" in2="BackgroundImageFix" result="effect1_dropShadow_54646_1287"/>
<feBlend mode="normal" in="SourceGraphic" in2="effect1_dropShadow_54646_1287" result="shape"/>
</filter>
<linearGradient id="svg1755817966_32795_paint0_linear_54646_1287" x1="0" y1="116.415" x2="308" y2="116.415" gradientUnits="userSpaceOnUse">
<stop stop-color="#D9D9D9"/>
<stop offset="0.25" stop-color="#D9D9D9"/>
<stop offset="0.5" stop-color="#D9D9D9"/>
<stop offset="1" stop-color="#D9D9D9" stop-opacity="0"/>
</linearGradient>
<linearGradient id="svg1755817966_32795_paint1_linear_54646_1287" x1="154" y1="0" x2="154" y2="232.83" gradientUnits="userSpaceOnUse">
<stop offset="0.361" stop-color="#D9D9D9"/>
<stop offset="1" stop-color="#D9D9D9" stop-opacity="0"/>
</linearGradient>
<linearGradient id="svg1755817966_32795_paint2_linear_54646_1287" x1="206.728" y1="6.65234" x2="206.728" y2="425.746" gradientUnits="userSpaceOnUse">
<stop stop-color="white"/>
<stop offset="0.328" stop-color="white" stop-opacity="0.24"/>
</linearGradient>
<linearGradient id="svg1755817966_32795_paint3_linear_54646_1287" x1="189.67" y1="6.65259" x2="189.67" y2="520.043" gradientUnits="userSpaceOnUse">
<stop stop-color="white"/>
<stop offset="1" stop-color="white" stop-opacity="0"/>
</linearGradient>
<clipPath id="svg1755817966_32795_clip0_54646_1287">
<rect width="308" height="232.83" fill="white"/>
</clipPath>
</defs>
</svg>