<svg xmlns="http://www.w3.org/2000/svg" width="191" height="80" viewBox="0 0 191 80" fill="none" id="svg1667296877_17373">
<mask id="svg1667296877_17373_mask0_54646_640" style="mask-type:luminance" maskUnits="userSpaceOnUse" x="103" y="0" width="88" height="80">
<path d="M190.998 70.972C190.998 75.5831 187.26 79.3217 182.649 79.3217H103.326V0H182.649C187.26 0 190.998 3.73855 190.998 8.34965V70.972Z" fill="white"/>
</mask>
<g mask="url(#svg1667296877_17373_mask0_54646_640)">
<path d="M103.327 79.3214H102.283V80.3651H103.327V79.3214ZM103.327 -0.000239253V-1.04395H102.283V-0.000239253H103.327ZM182.649 78.2777H103.327V80.3651H182.649V78.2777ZM104.371 79.3214V-0.000239253H102.283V79.3214H104.371ZM103.327 1.04347H182.649V-1.04395H103.327V1.04347ZM189.955 8.34941V70.9718H192.043V8.34941H189.955ZM182.649 1.04347C186.684 1.04347 189.955 4.31444 189.955 8.34941H192.043C192.043 3.16115 187.838 -1.04395 182.649 -1.04395V1.04347ZM182.649 80.3651C187.838 80.3651 192.043 76.16 192.043 70.9718H189.955C189.955 75.0067 186.684 78.2777 182.649 78.2777V80.3651Z" fill="white"/>
</g>
<g filter="url(#svg1667296877_17373_filter0_di_54646_640)">
<path d="M33.3986 0C28.7871 0 25.0488 3.73855 25.0488 8.34965V70.972C25.0488 75.5831 28.7871 79.3217 33.3986 79.3217H104.371V63.7516C104.371 59.3378 108.012 55.8644 111.822 53.6371C116.734 50.7679 120.027 45.4857 120.027 39.4437C120.027 31.7474 116.797 27.1374 111.964 24.8183C107.984 22.9093 104.371 19.5507 104.371 15.1369V0H33.3986Z" fill="white"/>
<path d="M25.5703 8.34928C25.5703 4.02625 29.075 0.521484 33.3982 0.521484H103.849V15.1365C103.849 19.8582 107.699 23.3515 111.739 25.2886C114.07 26.4075 116.003 28.0722 117.358 30.3788C118.713 32.6875 119.505 35.6683 119.505 39.4434C119.505 45.2902 116.318 50.4054 111.559 53.1869C107.717 55.4319 103.849 59.04 103.849 63.7513V78.7994H33.3982C29.075 78.7994 25.5703 75.2947 25.5703 70.9716V8.34928Z" stroke="white" stroke-width="1.14699"/>
<path d="M25.5703 8.34928C25.5703 4.02625 29.075 0.521484 33.3982 0.521484H103.849V15.1365C103.849 19.8582 107.699 23.3515 111.739 25.2886C114.07 26.4075 116.003 28.0722 117.358 30.3788C118.713 32.6875 119.505 35.6683 119.505 39.4434C119.505 45.2902 116.318 50.4054 111.559 53.1869C107.717 55.4319 103.849 59.04 103.849 63.7513V78.7994H33.3982C29.075 78.7994 25.5703 75.2947 25.5703 70.9716V8.34928Z" stroke="url(#svg1667296877_17373_paint0_radial_54646_640)" stroke-opacity="0.3" stroke-width="1.14699"/>
</g>
<g filter="url(#svg1667296877_17373_filter1_ddi_54646_640)">
<path d="M75.4194 20.959H54.5451C49.9336 20.959 46.1953 24.6972 46.1953 29.3086V50.1828C46.1953 54.7941 49.9336 58.5324 54.5451 58.5324H75.4194C80.0308 58.5324 83.7691 54.7941 83.7691 50.1828V29.3086C83.7691 24.6972 80.0308 20.959 75.4194 20.959Z" fill="url(#svg1667296877_17373_paint1_linear_54646_640)"/>
<path d="M75.4194 20.959H54.5451C49.9336 20.959 46.1953 24.6972 46.1953 29.3086V50.1828C46.1953 54.7941 49.9336 58.5324 54.5451 58.5324H75.4194C80.0308 58.5324 83.7691 54.7941 83.7691 50.1828V29.3086C83.7691 24.6972 80.0308 20.959 75.4194 20.959Z" fill="url(#svg1667296877_17373_paint2_radial_54646_640)" fill-opacity="0.1"/>
<path d="M75.4181 20.6455H54.5437C49.7594 20.6455 45.8809 24.5239 45.8809 29.3083V50.1824C45.8809 54.9667 49.7594 58.8451 54.5437 58.8451H75.4181C80.2024 58.8451 84.0809 54.9667 84.0809 50.1824V29.3083C84.0809 24.5239 80.2024 20.6455 75.4181 20.6455Z" stroke="white" stroke-opacity="0.05" stroke-width="0.688194"/>
<path d="M75.4181 20.6455H54.5437C49.7594 20.6455 45.8809 24.5239 45.8809 29.3083V50.1824C45.8809 54.9667 49.7594 58.8451 54.5437 58.8451H75.4181C80.2024 58.8451 84.0809 54.9667 84.0809 50.1824V29.3083C84.0809 24.5239 80.2024 20.6455 75.4181 20.6455Z" stroke="url(#svg1667296877_17373_paint3_radial_54646_640)" stroke-opacity="0.3" stroke-width="0.688194"/>
<path d="M75.4181 20.6455H54.5437C49.7594 20.6455 45.8809 24.5239 45.8809 29.3083V50.1824C45.8809 54.9667 49.7594 58.8451 54.5437 58.8451H75.4181C80.2024 58.8451 84.0809 54.9667 84.0809 50.1824V29.3083C84.0809 24.5239 80.2024 20.6455 75.4181 20.6455Z" stroke="url(#svg1667296877_17373_paint4_radial_54646_640)" stroke-opacity="0.2" stroke-width="0.688194"/>
</g>
<g filter="url(#svg1667296877_17373_filter2_ddi_54646_640)">
<path d="M164.568 20.6445H143.693C139.082 20.6445 135.344 24.3828 135.344 28.9942V49.8683C135.344 54.4797 139.082 58.218 143.693 58.218H164.568C169.179 58.218 172.918 54.4797 172.918 49.8683V28.9942C172.918 24.3828 169.179 20.6445 164.568 20.6445Z" fill="url(#svg1667296877_17373_paint5_linear_54646_640)"/>
<path d="M164.906 20.5596H144.032C139.248 20.5596 135.369 24.438 135.369 29.2223V50.0964C135.369 54.8808 139.248 58.7592 144.032 58.7592H164.906C169.691 58.7592 173.569 54.8808 173.569 50.0964V29.2223C173.569 24.438 169.691 20.5596 164.906 20.5596Z" stroke="white" stroke-opacity="0.05" stroke-width="0.688194"/>
<path d="M164.906 20.5596H144.032C139.248 20.5596 135.369 24.438 135.369 29.2223V50.0964C135.369 54.8808 139.248 58.7592 144.032 58.7592H164.906C169.691 58.7592 173.569 54.8808 173.569 50.0964V29.2223C173.569 24.438 169.691 20.5596 164.906 20.5596Z" stroke="url(#svg1667296877_17373_paint6_radial_54646_640)" stroke-opacity="0.2" stroke-width="0.688194"/>
<path d="M163.303 37.6143V41.5262C163.303 41.7247 163.142 41.8856 162.943 41.8856C162.727 41.8856 162.576 41.7171 162.576 41.5262V37.6143C162.576 37.4158 162.737 37.2549 162.936 37.2549C163.152 37.2549 163.303 37.4235 163.303 37.6143Z" fill="white"/>
<path d="M145.328 37.6143V41.5262C145.328 41.7247 145.167 41.8856 144.969 41.8856C144.752 41.8856 144.602 41.7171 144.602 41.5262V37.6143C144.602 37.4158 144.763 37.2549 144.961 37.2549C145.177 37.2549 145.328 37.4235 145.328 37.6143Z" fill="white"/>
<path d="M151.602 31.8952L147.648 33.9517C147.46 34.0496 147.228 33.9642 147.15 33.7672C147.073 33.5773 147.157 33.3886 147.314 33.3072L151.267 31.2506C151.455 31.1528 151.687 31.2382 151.766 31.4351C151.842 31.625 151.758 31.8138 151.602 31.8952Z" fill="white"/>
<path d="M151.77 47.6979C151.682 47.913 151.448 47.9829 151.268 47.8892L147.315 45.8327C147.15 45.7472 147.078 45.5511 147.147 45.3794C147.235 45.1643 147.469 45.0945 147.649 45.1881L151.602 47.2447C151.767 47.3301 151.839 47.5263 151.77 47.6979Z" fill="white"/>
<path d="M160.758 33.7604C160.671 33.9755 160.436 34.0454 160.256 33.9517L156.303 31.8952C156.139 31.8097 156.066 31.6136 156.136 31.4419C156.223 31.2268 156.457 31.157 156.637 31.2506L160.591 33.3072C160.755 33.3926 160.827 33.5888 160.758 33.7604Z" fill="white"/>
<path d="M160.59 45.8327L156.637 47.8892C156.448 47.9871 156.217 47.9017 156.138 47.7047C156.062 47.5148 156.146 47.3261 156.302 47.2447L160.255 45.1881C160.444 45.0903 160.675 45.1757 160.754 45.3726C160.83 45.5625 160.746 45.7513 160.59 45.8327Z" fill="white"/>
<path d="M153.955 32.5771C154.153 32.5771 154.314 32.7381 154.314 32.9367V33.2581C154.314 33.7388 153.588 33.7387 153.588 33.2581V32.9367C153.588 32.7473 153.737 32.5771 153.955 32.5771Z" fill="white"/>
<path d="M154.314 45.88V46.2014C154.314 46.4 154.153 46.561 153.955 46.561C153.737 46.561 153.588 46.3912 153.588 46.2014V45.88C153.588 45.3993 154.314 45.3994 154.314 45.88Z" fill="white"/>
<path d="M148.109 36.9862L147.314 36.5697C147.15 36.4841 147.078 36.2885 147.147 36.1173C147.235 35.9015 147.47 35.8314 147.65 35.9259L148.446 36.3425C148.873 36.5657 148.534 37.2093 148.109 36.9862Z" fill="white"/>
<path d="M160.756 36.1173C160.825 36.2885 160.753 36.484 160.589 36.5697L159.794 36.9862C159.372 37.2082 159.028 36.5672 159.457 36.3424L160.253 35.9258C160.433 35.8316 160.669 35.9012 160.756 36.1173Z" fill="white"/>
<path d="M148.445 42.7965L147.649 43.2131C147.461 43.3118 147.228 43.226 147.149 43.0284C147.074 42.8393 147.157 42.6509 147.313 42.5692L148.108 42.1527C148.534 41.9296 148.872 42.5735 148.445 42.7965Z" fill="white"/>
<path d="M160.755 43.0217C160.668 43.2375 160.432 43.3076 160.252 43.2132L159.456 42.7966C159.031 42.5742 159.367 41.9294 159.793 42.1528L160.588 42.5693C160.752 42.655 160.824 42.8506 160.755 43.0217Z" fill="white"/>
<path d="M154.452 47.2891H153.453C152.852 47.2891 152.363 47.7779 152.363 48.3787V49.3774C152.363 49.9782 152.852 50.467 153.453 50.467H154.452C155.052 50.467 155.541 49.9782 155.541 49.3774V48.3787C155.541 47.7779 155.052 47.2891 154.452 47.2891Z" fill="white"/>
<path d="M154.452 28.6738H153.453C152.852 28.6738 152.363 29.1626 152.363 29.7634V30.7622C152.363 31.363 152.852 31.8518 153.453 31.8518H154.452C155.052 31.8518 155.541 31.363 155.541 30.7622V29.7634C155.541 29.1626 155.052 28.6738 154.452 28.6738Z" fill="white"/>
<path d="M145.461 42.6113H144.463C143.862 42.6113 143.373 43.1001 143.373 43.7009V44.6997C143.373 45.3005 143.862 45.7893 144.463 45.7893H145.461C146.062 45.7893 146.551 45.3005 146.551 44.6997V43.7009C146.551 43.1001 146.062 42.6113 145.461 42.6113Z" fill="white"/>
<path d="M163.44 33.3496H162.441C161.84 33.3496 161.352 33.8384 161.352 34.4392V35.438C161.352 36.0388 161.84 36.5276 162.441 36.5276H163.44C164.041 36.5276 164.53 36.0388 164.53 35.438V34.4392C164.53 33.8384 164.041 33.3496 163.44 33.3496Z" fill="white"/>
<path d="M163.44 42.6113H162.441C161.84 42.6113 161.352 43.1001 161.352 43.7009V44.6997C161.352 45.3005 161.84 45.7893 162.441 45.7893H163.44C164.041 45.7893 164.53 45.3005 164.53 44.6997V43.7009C164.53 43.1001 164.041 42.6113 163.44 42.6113Z" fill="white"/>
<path d="M145.461 33.3496H144.463C143.862 33.3496 143.373 33.8384 143.373 34.4392V35.438C143.373 36.0388 143.862 36.5276 144.463 36.5276H145.461C146.062 36.5276 146.551 36.0388 146.551 35.438V34.4392C146.551 33.8384 146.062 33.3496 145.461 33.3496Z" fill="white"/>
<path d="M153.493 39.5521L149.77 37.5253C149.649 37.4594 149.502 37.547 149.502 37.6848V42.0211C149.502 42.1541 149.575 42.2764 149.691 42.3401L153.32 44.3153C153.441 44.3812 153.588 44.2936 153.588 44.1558V39.7116C153.588 39.6451 153.552 39.5839 153.493 39.5521Z" fill="white"/>
<path d="M154.037 38.9287L157.743 36.9109C157.87 36.8421 157.87 36.6607 157.743 36.5919L154.124 34.6214C154.016 34.5624 153.885 34.5624 153.777 34.6214L150.157 36.5919C150.031 36.6607 150.031 36.8421 150.157 36.9109L153.863 38.9287C153.918 38.9582 153.983 38.9582 154.037 38.9287Z" fill="white"/>
<path d="M154.312 39.7116V44.1558C154.312 44.2936 154.46 44.3812 154.581 44.3153L158.209 42.3401C158.326 42.2764 158.398 42.1541 158.398 42.0211V37.6848C158.398 37.547 158.251 37.4594 158.13 37.5253L154.407 39.5521C154.349 39.5839 154.312 39.6451 154.312 39.7116Z" fill="white"/>
</g>
<g opacity="0.2" filter="url(#svg1667296877_17373_filter3_f_54646_640)">
<path d="M50.0984 31.3107C50.0984 17.4765 38.8835 6.26172 25.0492 6.26172C11.2149 6.26172 0 17.4765 0 31.3107V39.6603C0 53.4945 11.2149 64.7093 25.0492 64.7093C38.8835 64.7093 50.0984 53.4945 50.0984 39.6603V31.3107Z" fill="#4824E9"/>
</g>
<path d="M68.2987 43.0832C68.5388 42.8447 68.9238 42.8447 69.1639 43.0832L70.7511 44.3644H70.7787C71.0998 44.689 71.0998 45.2152 70.7787 45.5397C70.4575 45.8643 69.9369 45.8643 69.6158 45.5397L68.2987 44.0302L68.2487 43.9738C68.1556 43.8559 68.1042 43.709 68.1042 43.5567C68.1042 43.379 68.1742 43.2086 68.2987 43.0832ZM63.9229 33.3574C65.3363 33.3574 66.6918 33.9249 67.6912 34.9351C68.6906 35.9453 69.2521 37.3153 69.2521 38.7439C69.2521 41.7188 66.8661 44.1304 63.9229 44.1304C60.9797 44.1304 58.5938 41.7188 58.5938 38.7439C58.5938 35.769 60.9797 33.3574 63.9229 33.3574Z" fill="white"/>
<defs>
<filter id="svg1667296877_17373_filter0_di_54646_640" x="20.4081" y="-0.0517578" width="104.258" height="88.6007" filterUnits="userSpaceOnUse" color-interpolation-filters="sRGB">
<feFlood flood-opacity="0" result="BackgroundImageFix"/>
<feColorMatrix in="SourceAlpha" type="matrix" values="0 0 0 0 0 0 0 0 0 0 0 0 0 0 0 0 0 0 127 0" result="hardAlpha"/>
<feOffset dy="4.58796"/>
<feGaussianBlur stdDeviation="2.29398"/>
<feComposite in2="hardAlpha" operator="out"/>
<feColorMatrix type="matrix" values="0 0 0 0 0 0 0 0 0 0 0 0 0 0 0 0 0 0 0.04 0"/>
<feBlend mode="normal" in2="BackgroundImageFix" result="effect1_dropShadow_54646_640"/>
<feBlend mode="normal" in="SourceGraphic" in2="effect1_dropShadow_54646_640" result="shape"/>
<feColorMatrix in="SourceAlpha" type="matrix" values="0 0 0 0 0 0 0 0 0 0 0 0 0 0 0 0 0 0 127 0" result="hardAlpha"/>
<feOffset dy="4.58796"/>
<feGaussianBlur stdDeviation="2.29398"/>
<feComposite in2="hardAlpha" operator="arithmetic" k2="-1" k3="1"/>
<feColorMatrix type="matrix" values="0 0 0 0 0 0 0 0 0 0 0 0 0 0 0 0 0 0 0.02 0"/>
<feBlend mode="normal" in2="shape" result="effect2_innerShadow_54646_640"/>
</filter>
<filter id="svg1667296877_17373_filter1_ddi_54646_640" x="36.3612" y="13.4198" width="57.2405" height="57.2395" filterUnits="userSpaceOnUse" color-interpolation-filters="sRGB">
<feFlood flood-opacity="0" result="BackgroundImageFix"/>
<feColorMatrix in="SourceAlpha" type="matrix" values="0 0 0 0 0 0 0 0 0 0 0 0 0 0 0 0 0 0 127 0" result="hardAlpha"/>
<feOffset dy="2.29398"/>
<feGaussianBlur stdDeviation="4.58796"/>
<feColorMatrix type="matrix" values="0 0 0 0 0 0 0 0 0 0 0 0 0 0 0 0 0 0 0.2 0"/>
<feBlend mode="normal" in2="BackgroundImageFix" result="effect1_dropShadow_54646_640"/>
<feColorMatrix in="SourceAlpha" type="matrix" values="0 0 0 0 0 0 0 0 0 0 0 0 0 0 0 0 0 0 127 0" result="hardAlpha"/>
<feOffset dy="1.14699"/>
<feGaussianBlur stdDeviation="0.573495"/>
<feColorMatrix type="matrix" values="0 0 0 0 0 0 0 0 0 0 0 0 0 0 0 0 0 0 0.1 0"/>
<feBlend mode="normal" in2="effect1_dropShadow_54646_640" result="effect2_dropShadow_54646_640"/>
<feBlend mode="normal" in="SourceGraphic" in2="effect2_dropShadow_54646_640" result="shape"/>
<feColorMatrix in="SourceAlpha" type="matrix" values="0 0 0 0 0 0 0 0 0 0 0 0 0 0 0 0 0 0 127 0" result="hardAlpha"/>
<feOffset/>
<feGaussianBlur stdDeviation="2.29398"/>
<feComposite in2="hardAlpha" operator="arithmetic" k2="-1" k3="1"/>
<feColorMatrix type="matrix" values="0 0 0 0 1 0 0 0 0 1 0 0 0 0 1 0 0 0 0.1 0"/>
<feBlend mode="normal" in2="shape" result="effect3_innerShadow_54646_640"/>
</filter>
<filter id="svg1667296877_17373_filter2_ddi_54646_640" x="125.849" y="13.3339" width="57.2405" height="57.2395" filterUnits="userSpaceOnUse" color-interpolation-filters="sRGB">
<feFlood flood-opacity="0" result="BackgroundImageFix"/>
<feColorMatrix in="SourceAlpha" type="matrix" values="0 0 0 0 0 0 0 0 0 0 0 0 0 0 0 0 0 0 127 0" result="hardAlpha"/>
<feOffset dy="2.29398"/>
<feGaussianBlur stdDeviation="4.58796"/>
<feColorMatrix type="matrix" values="0 0 0 0 0 0 0 0 0 0 0 0 0 0 0 0 0 0 0.2 0"/>
<feBlend mode="normal" in2="BackgroundImageFix" result="effect1_dropShadow_54646_640"/>
<feColorMatrix in="SourceAlpha" type="matrix" values="0 0 0 0 0 0 0 0 0 0 0 0 0 0 0 0 0 0 127 0" result="hardAlpha"/>
<feOffset dy="1.14699"/>
<feGaussianBlur stdDeviation="0.573495"/>
<feColorMatrix type="matrix" values="0 0 0 0 0 0 0 0 0 0 0 0 0 0 0 0 0 0 0.1 0"/>
<feBlend mode="normal" in2="effect1_dropShadow_54646_640" result="effect2_dropShadow_54646_640"/>
<feBlend mode="normal" in="SourceGraphic" in2="effect2_dropShadow_54646_640" result="shape"/>
<feColorMatrix in="SourceAlpha" type="matrix" values="0 0 0 0 0 0 0 0 0 0 0 0 0 0 0 0 0 0 127 0" result="hardAlpha"/>
<feOffset/>
<feGaussianBlur stdDeviation="2.29398"/>
<feComposite in2="hardAlpha" operator="arithmetic" k2="-1" k3="1"/>
<feColorMatrix type="matrix" values="0 0 0 0 1 0 0 0 0 1 0 0 0 0 1 0 0 0 0.1 0"/>
<feBlend mode="normal" in2="shape" result="effect3_innerShadow_54646_640"/>
</filter>
<filter id="svg1667296877_17373_filter3_f_54646_640" x="-87.1713" y="-80.9096" width="224.44" height="232.79" filterUnits="userSpaceOnUse" color-interpolation-filters="sRGB">
<feFlood flood-opacity="0" result="BackgroundImageFix"/>
<feBlend mode="normal" in="SourceGraphic" in2="BackgroundImageFix" result="shape"/>
<feGaussianBlur stdDeviation="43.5856" result="effect1_foregroundBlur_54646_640"/>
</filter>
<radialGradient id="svg1667296877_17373_paint0_radial_54646_640" cx="0" cy="0" r="1" gradientUnits="userSpaceOnUse" gradientTransform="translate(17.9251 33.0507) rotate(8.63421) scale(52.8368 34.3413)">
<stop stop-color="#AEA8FF"/>
<stop offset="1" stop-color="#BDFFDF" stop-opacity="0"/>
</radialGradient>
<linearGradient id="svg1667296877_17373_paint1_linear_54646_640" x1="55.4231" y1="27.9626" x2="76.1973" y2="53.6585" gradientUnits="userSpaceOnUse">
<stop offset="0.0552454" stop-color="#8A66FC"/>
<stop offset="0.857617" stop-color="#5A34DF"/>
</linearGradient>
<radialGradient id="svg1667296877_17373_paint2_radial_54646_640" cx="0" cy="0" r="1" gradientUnits="userSpaceOnUse" gradientTransform="translate(39.933 34.7359) rotate(17.9277) scale(22.3784 27.1639)">
<stop stop-color="#6F4AEB"/>
<stop offset="1" stop-color="white" stop-opacity="0"/>
</radialGradient>
<radialGradient id="svg1667296877_17373_paint3_radial_54646_640" cx="0" cy="0" r="1" gradientUnits="userSpaceOnUse" gradientTransform="translate(43.3759 36.6142) rotate(10.3047) scale(21.0044 16.188)">
<stop stop-color="#BEA8FF"/>
</radialGradient>
<radialGradient id="svg1667296877_17373_paint4_radial_54646_640" cx="0" cy="0" r="1" gradientUnits="userSpaceOnUse" gradientTransform="translate(63.3851 20.9586) rotate(94.0655) scale(21.6592 15.7159)">
<stop stop-color="white" stop-opacity="0.48"/>
<stop offset="1" stop-color="white" stop-opacity="0.04"/>
</radialGradient>
<linearGradient id="svg1667296877_17373_paint5_linear_54646_640" x1="154.131" y1="31.9166" x2="154.131" y2="58.218" gradientUnits="userSpaceOnUse">
<stop stop-color="#1F1F21"/>
<stop offset="1" stop-color="#202022"/>
</linearGradient>
<radialGradient id="svg1667296877_17373_paint6_radial_54646_640" cx="0" cy="0" r="1" gradientUnits="userSpaceOnUse" gradientTransform="translate(152.873 20.8727) rotate(94.0655) scale(21.6592 15.7159)">
<stop stop-color="white" stop-opacity="0.48"/>
<stop offset="1" stop-color="white" stop-opacity="0.04"/>
</radialGradient>
</defs>
</svg>