<svg xmlns="http://www.w3.org/2000/svg" width="1440" height="469" viewBox="0 0 1440 469" fill="none" id="svg-615458082_48056">
<rect width="1440" height="469" fill="url(#svg-615458082_48056_paint0_linear_54700_535)"/>
<mask id="svg-615458082_48056_mask0_54700_535" style="mask-type:alpha" maskUnits="userSpaceOnUse" x="0" y="0" width="1440" height="469">
<rect width="1440" height="469" fill="url(#svg-615458082_48056_paint1_linear_54700_535)"/>
</mask>
<g mask="url(#svg-615458082_48056_mask0_54700_535)">
<g opacity="0.3">
<path d="M165.66 289.702L211.62 335.695M70.2043 251.493L-32.3223 242.294M65.9618 116.346L102.023 204.793M174.852 235.219L307.076 188.519" stroke="white" stroke-opacity="0.5" stroke-width="1.70186"/>
<path d="M125.355 538.062C281.559 538.062 408.187 411.344 408.187 255.031C408.187 98.7172 281.559 -28 125.355 -28C-30.8484 -28 -157.477 98.7172 -157.477 255.031C-157.477 411.344 -30.8484 538.062 125.355 538.062Z" fill="white" fill-opacity="0.03"/>
<path d="M125.355 538.062C281.559 538.062 408.187 411.344 408.187 255.031C408.187 98.7172 281.559 -28 125.355 -28C-30.8484 -28 -157.477 98.7172 -157.477 255.031C-157.477 411.344 -30.8484 538.062 125.355 538.062Z" fill="url(#svg-615458082_48056_paint2_linear_54700_535)" fill-opacity="0.04"/>
<path d="M125.357 537.355C281.17 537.355 407.482 410.954 407.482 255.031C407.482 99.1085 281.17 -27.292 125.357 -27.292C-30.456 -27.292 -156.768 99.1085 -156.768 255.031C-156.768 410.954 -30.456 537.355 125.357 537.355Z" stroke="url(#svg-615458082_48056_paint3_linear_54700_535)" stroke-opacity="0.08" stroke-width="1.70186"/>
<path d="M125.355 481.457C250.318 481.457 351.621 380.083 351.621 255.032C351.621 129.981 250.318 28.6074 125.355 28.6074C0.392349 28.6074 -100.91 129.981 -100.91 255.032C-100.91 380.083 0.392349 481.457 125.355 481.457Z" fill="white" fill-opacity="0.03"/>
<path d="M125.355 481.457C250.318 481.457 351.621 380.083 351.621 255.032C351.621 129.981 250.318 28.6074 125.355 28.6074C0.392349 28.6074 -100.91 129.981 -100.91 255.032C-100.91 380.083 0.392349 481.457 125.355 481.457Z" fill="url(#svg-615458082_48056_paint4_linear_54700_535)" fill-opacity="0.04"/>
<path d="M125.357 480.749C249.93 480.749 350.916 379.692 350.916 255.032C350.916 130.371 249.93 29.3145 125.357 29.3145C0.78476 29.3145 -100.201 130.371 -100.201 255.032C-100.201 379.692 0.78476 480.749 125.357 480.749Z" stroke="url(#svg-615458082_48056_paint5_linear_54700_535)" stroke-opacity="0.08" stroke-width="1.70186"/>
<path d="M125.355 424.848C219.078 424.848 295.055 348.818 295.055 255.029C295.055 161.241 219.078 85.2109 125.355 85.2109C31.6331 85.2109 -44.3438 161.241 -44.3438 255.029C-44.3438 348.818 31.6331 424.848 125.355 424.848Z" fill="white" fill-opacity="0.03"/>
<path d="M125.355 424.848C219.078 424.848 295.055 348.818 295.055 255.029C295.055 161.241 219.078 85.2109 125.355 85.2109C31.6331 85.2109 -44.3438 161.241 -44.3438 255.029C-44.3438 348.818 31.6331 424.848 125.355 424.848Z" fill="url(#svg-615458082_48056_paint6_linear_54700_535)" fill-opacity="0.04"/>
<path d="M125.357 424.141C218.689 424.141 294.349 348.427 294.349 255.03C294.349 161.632 218.689 85.9189 125.357 85.9189C32.0255 85.9189 -43.6348 161.632 -43.6348 255.03C-43.6348 348.427 32.0255 424.141 125.357 424.141Z" stroke="url(#svg-615458082_48056_paint7_linear_54700_535)" stroke-opacity="0.08" stroke-width="1.70186"/>
<path d="M125.355 368.243C187.837 368.243 238.488 317.556 238.488 255.031C238.488 192.505 187.837 141.818 125.355 141.818C62.8739 141.818 12.2227 192.505 12.2227 255.031C12.2227 317.556 62.8739 368.243 125.355 368.243Z" fill="white" fill-opacity="0.03"/>
<path d="M125.355 368.243C187.837 368.243 238.488 317.556 238.488 255.031C238.488 192.505 187.837 141.818 125.355 141.818C62.8739 141.818 12.2227 192.505 12.2227 255.031C12.2227 317.556 62.8739 368.243 125.355 368.243Z" fill="url(#svg-615458082_48056_paint8_linear_54700_535)" fill-opacity="0.04"/>
<path d="M125.357 367.536C187.448 367.536 237.783 317.166 237.783 255.031C237.783 192.896 187.448 142.526 125.357 142.526C63.2663 142.526 12.9316 192.896 12.9316 255.031C12.9316 317.166 63.2663 367.536 125.357 367.536Z" stroke="url(#svg-615458082_48056_paint9_linear_54700_535)" stroke-opacity="0.08" stroke-width="1.70186"/>
<path d="M125.355 396.546C203.457 396.546 266.771 333.187 266.771 255.03C266.771 176.873 203.457 113.515 125.355 113.515C47.2535 113.515 -16.0605 176.873 -16.0605 255.03C-16.0605 333.187 47.2535 396.546 125.355 396.546Z" stroke="white" stroke-width="1.70186" stroke-miterlimit="16" stroke-linecap="round" stroke-linejoin="round" stroke-dasharray="0.02 6.81"/>
<path d="M125.359 453.153C234.702 453.153 323.342 364.451 323.342 255.032C323.342 145.612 234.702 56.9102 125.359 56.9102C16.0167 56.9102 -72.623 145.612 -72.623 255.032C-72.623 364.451 16.0167 453.153 125.359 453.153Z" stroke="white" stroke-width="1.70186" stroke-miterlimit="16" stroke-linecap="round" stroke-linejoin="round" stroke-dasharray="0.02 6.81"/>
<path d="M125.359 509.758C265.943 509.758 379.908 395.713 379.908 255.03C379.908 114.348 265.943 0.302734 125.359 0.302734C-15.2241 0.302734 -129.189 114.348 -129.189 255.03C-129.189 395.713 -15.2241 509.758 125.359 509.758Z" stroke="white" stroke-width="1.70186" stroke-miterlimit="16" stroke-linecap="round" stroke-linejoin="round" stroke-dasharray="0.02 6.81"/>
<path d="M125.359 311.637C156.6 311.637 181.926 286.294 181.926 255.031C181.926 223.768 156.6 198.425 125.359 198.425C94.1186 198.425 68.793 223.768 68.793 255.031C68.793 286.294 94.1186 311.637 125.359 311.637Z" fill="white" fill-opacity="0.03"/>
<path d="M125.359 311.637C156.6 311.637 181.926 286.294 181.926 255.031C181.926 223.768 156.6 198.425 125.359 198.425C94.1186 198.425 68.793 223.768 68.793 255.031C68.793 286.294 94.1186 311.637 125.359 311.637Z" fill="url(#svg-615458082_48056_paint10_linear_54700_535)" fill-opacity="0.04"/>
<path d="M125.357 310.93C156.208 310.93 181.217 285.903 181.217 255.031C181.217 224.159 156.208 199.133 125.357 199.133C94.5071 199.133 69.498 224.159 69.498 255.031C69.498 285.903 94.5071 310.93 125.357 310.93Z" stroke="url(#svg-615458082_48056_paint11_linear_54700_535)" stroke-opacity="0.08" stroke-width="1.70186"/>
<path d="M125.357 310.93C156.208 310.93 181.217 285.903 181.217 255.031C181.217 224.159 156.208 199.133 125.357 199.133C94.5071 199.133 69.498 224.159 69.498 255.031C69.498 285.903 94.5071 310.93 125.357 310.93Z" stroke="white" stroke-opacity="0.5" stroke-width="1.70186"/>
<path d="M125.359 339.941C172.22 339.941 210.209 301.925 210.209 255.031C210.209 208.137 172.22 170.122 125.359 170.122C78.4982 170.122 40.5098 208.137 40.5098 255.031C40.5098 301.925 78.4982 339.941 125.359 339.941Z" stroke="white" stroke-width="1.70186" stroke-miterlimit="16" stroke-linecap="round" stroke-linejoin="round" stroke-dasharray="0.02 6.81"/>
<path d="M469 157.386C469 110.492 431.011 72.4766 384.15 72.4766C337.289 72.4766 299.301 110.492 299.301 157.386C299.301 204.28 337.289 242.295 384.15 242.295C431.011 242.295 469 204.28 469 157.386Z" fill="white" fill-opacity="0.02"/>
<g filter="url(#svg-615458082_48056_filter0_d_54700_535)">
<path d="M384.15 230.975C424.763 230.975 457.686 198.028 457.686 157.387C457.686 116.745 424.763 83.7988 384.15 83.7988C343.537 83.7988 310.613 116.745 310.613 157.387C310.613 198.028 343.537 230.975 384.15 230.975Z" fill="white" fill-opacity="0.03"/>
<path d="M384.15 230.975C424.763 230.975 457.686 198.028 457.686 157.387C457.686 116.745 424.763 83.7988 384.15 83.7988C343.537 83.7988 310.613 116.745 310.613 157.387C310.613 198.028 343.537 230.975 384.15 230.975Z" fill="url(#svg-615458082_48056_paint12_linear_54700_535)" fill-opacity="0.04"/>
<path d="M384.151 230.268C424.374 230.268 456.981 197.638 456.981 157.387C456.981 117.137 424.374 84.5068 384.151 84.5068C343.929 84.5068 311.322 117.137 311.322 157.387C311.322 197.638 343.929 230.268 384.151 230.268Z" stroke="white" stroke-opacity="0.05" stroke-width="1.70186"/>
<path d="M384.151 230.268C424.374 230.268 456.981 197.638 456.981 157.387C456.981 117.137 424.374 84.5068 384.151 84.5068C343.929 84.5068 311.322 117.137 311.322 157.387C311.322 197.638 343.929 230.268 384.151 230.268Z" stroke="url(#svg-615458082_48056_paint13_linear_54700_535)" stroke-opacity="0.16" stroke-width="1.70186"/>
</g>
<path d="M468.293 157.385C468.293 110.882 430.621 73.1836 384.15 73.1836C337.68 73.1836 300.008 110.882 300.008 157.385C300.008 203.889 337.68 241.587 384.15 241.587C430.621 241.587 468.293 203.889 468.293 157.385Z" stroke="url(#svg-615458082_48056_paint14_linear_54700_535)" stroke-opacity="0.12" stroke-width="1.70186"/>
<path d="M468.293 157.385C468.293 110.882 430.621 73.1836 384.15 73.1836C337.68 73.1836 300.008 110.882 300.008 157.385C300.008 203.889 337.68 241.587 384.15 241.587C430.621 241.587 468.293 203.889 468.293 157.385Z" stroke="url(#svg-615458082_48056_paint15_linear_54700_535)" stroke-opacity="0.5" stroke-width="1.70186"/>
<g filter="url(#svg-615458082_48056_filter1_d_54700_535)">
</g>
<path d="M331.826 376.735C331.826 339.22 301.435 308.808 263.946 308.808C226.457 308.808 196.066 339.22 196.066 376.735C196.066 414.25 226.457 444.662 263.946 444.662C301.435 444.662 331.826 414.25 331.826 376.735Z" fill="white" fill-opacity="0.02"/>
<g filter="url(#svg-615458082_48056_filter2_d_54700_535)">
<path d="M263.951 433.341C295.192 433.341 320.518 407.998 320.518 376.735C320.518 345.472 295.192 320.129 263.951 320.129C232.71 320.129 207.385 345.472 207.385 376.735C207.385 407.998 232.71 433.341 263.951 433.341Z" fill="white" fill-opacity="0.03"/>
<path d="M263.951 433.341C295.192 433.341 320.518 407.998 320.518 376.735C320.518 345.472 295.192 320.129 263.951 320.129C232.71 320.129 207.385 345.472 207.385 376.735C207.385 407.998 232.71 433.341 263.951 433.341Z" fill="url(#svg-615458082_48056_paint16_linear_54700_535)" fill-opacity="0.04"/>
<path d="M263.953 432.634C294.803 432.634 319.812 407.607 319.812 376.736C319.812 345.864 294.803 320.837 263.953 320.837C233.103 320.837 208.094 345.864 208.094 376.736C208.094 407.607 233.103 432.634 263.953 432.634Z" stroke="white" stroke-opacity="0.05" stroke-width="1.70186"/>
<path d="M263.953 432.634C294.803 432.634 319.812 407.607 319.812 376.736C319.812 345.864 294.803 320.837 263.953 320.837C233.103 320.837 208.094 345.864 208.094 376.736C208.094 407.607 233.103 432.634 263.953 432.634Z" stroke="url(#svg-615458082_48056_paint17_linear_54700_535)" stroke-opacity="0.16" stroke-width="1.70186"/>
</g>
<path d="M331.121 376.733C331.121 339.609 301.046 309.514 263.948 309.514C226.85 309.514 196.775 339.609 196.775 376.733C196.775 413.858 226.85 443.953 263.948 443.953C301.046 443.953 331.121 413.858 331.121 376.733Z" stroke="url(#svg-615458082_48056_paint18_linear_54700_535)" stroke-opacity="0.12" stroke-width="1.70186"/>
<path d="M331.121 376.733C331.121 339.609 301.046 309.514 263.948 309.514C226.85 309.514 196.775 339.609 196.775 376.733C196.775 413.858 226.85 443.953 263.948 443.953C301.046 443.953 331.121 413.858 331.121 376.733Z" stroke="url(#svg-615458082_48056_paint19_linear_54700_535)" stroke-opacity="0.5" stroke-width="1.70186"/>
<path d="M99.9015 69.6448C99.9015 41.5083 77.1084 18.6992 48.9918 18.6992C20.8751 18.6992 -1.91797 41.5083 -1.91797 69.6448C-1.91797 97.7812 20.8751 120.59 48.9918 120.59C77.1084 120.59 99.9015 97.7812 99.9015 69.6448Z" fill="white" fill-opacity="0.02"/>
<g filter="url(#svg-615458082_48056_filter3_d_54700_535)">
<path d="M48.9929 109.271C70.8615 109.271 88.5894 91.5307 88.5894 69.6468C88.5894 47.7629 70.8615 30.0225 48.9929 30.0225C27.1244 30.0225 9.39648 47.7629 9.39648 69.6468C9.39648 91.5307 27.1244 109.271 48.9929 109.271Z" fill="white" fill-opacity="0.03"/>
<path d="M48.9929 109.271C70.8615 109.271 88.5894 91.5307 88.5894 69.6468C88.5894 47.7629 70.8615 30.0225 48.9929 30.0225C27.1244 30.0225 9.39648 47.7629 9.39648 69.6468C9.39648 91.5307 27.1244 109.271 48.9929 109.271Z" fill="url(#svg-615458082_48056_paint20_linear_54700_535)" fill-opacity="0.04"/>
<path d="M48.9949 108.564C70.4729 108.564 87.8842 91.1403 87.8842 69.6472C87.8842 48.1541 70.4729 30.7305 48.9949 30.7305C27.5168 30.7305 10.1055 48.1541 10.1055 69.6472C10.1055 91.1403 27.5168 108.564 48.9949 108.564Z" stroke="white" stroke-opacity="0.05" stroke-width="1.70186"/>
<path d="M48.9949 108.564C70.4729 108.564 87.8842 91.1403 87.8842 69.6472C87.8842 48.1541 70.4729 30.7305 48.9949 30.7305C27.5168 30.7305 10.1055 48.1541 10.1055 69.6472C10.1055 91.1403 27.5168 108.564 48.9949 108.564Z" stroke="url(#svg-615458082_48056_paint21_linear_54700_535)" stroke-opacity="0.16" stroke-width="1.70186"/>
</g>
<path d="M99.1944 69.6452C99.1944 41.8995 76.7179 19.4072 48.9917 19.4072C21.2656 19.4072 -1.21094 41.8995 -1.21094 69.6452C-1.21094 97.3909 21.2656 119.883 48.9917 119.883C76.7179 119.883 99.1944 97.3909 99.1944 69.6452Z" stroke="url(#svg-615458082_48056_paint22_linear_54700_535)" stroke-opacity="0.12" stroke-width="1.70186"/>
<path d="M99.1944 69.6452C99.1944 41.8995 76.7179 19.4072 48.9917 19.4072C21.2656 19.4072 -1.21094 41.8995 -1.21094 69.6452C-1.21094 97.3909 21.2656 119.883 48.9917 119.883C76.7179 119.883 99.1944 97.3909 99.1944 69.6452Z" stroke="url(#svg-615458082_48056_paint23_linear_54700_535)" stroke-opacity="0.5" stroke-width="1.70186"/>
<mask id="svg-615458082_48056_mask1_54700_535" style="mask-type:luminance" maskUnits="userSpaceOnUse" x="91" y="221" width="69" height="68">
<path d="M91.4199 221.065H159.3V288.993H91.4199V221.065Z" fill="white"/>
</mask>
<g mask="url(#svg-615458082_48056_mask1_54700_535)">
<path d="M98.2079 255.029C98.2079 240.021 110.363 227.858 125.36 227.858C140.357 227.858 152.512 240.021 152.512 255.029H159.3C159.3 236.271 144.104 221.065 125.36 221.065C106.615 221.065 91.4199 236.271 91.4199 255.029H98.2079Z" fill="url(#svg-615458082_48056_paint24_linear_54700_535)" fill-opacity="0.5"/>
<path d="M142.329 255.03C142.329 245.651 134.732 238.049 125.359 238.049C115.988 238.049 108.39 245.651 108.39 255.03H101.602C101.602 241.901 112.24 231.256 125.359 231.256C138.48 231.256 149.117 241.901 149.117 255.03H142.329Z" fill="url(#svg-615458082_48056_paint25_linear_54700_535)" fill-opacity="0.5"/>
<path d="M118.571 255.029C118.607 253.251 119.339 251.559 120.608 250.315C121.877 249.07 123.582 248.373 125.359 248.373C127.136 248.373 128.842 249.07 130.111 250.315C131.38 251.559 132.111 253.251 132.147 255.029H138.935C138.935 251.426 137.505 247.97 134.959 245.422C132.413 242.875 128.96 241.443 125.359 241.443C121.759 241.443 118.305 242.875 115.76 245.422C113.214 247.97 111.783 251.426 111.783 255.029H118.571Z" fill="url(#svg-615458082_48056_paint26_linear_54700_535)" fill-opacity="0.5"/>
<path d="M152.512 255.029C152.512 270.037 140.357 282.2 125.36 282.2C110.363 282.2 98.2079 270.037 98.2079 255.029H91.4199C91.4199 273.787 106.615 288.993 125.36 288.993C144.104 288.993 159.3 273.787 159.3 255.029H152.512Z" fill="url(#svg-615458082_48056_paint27_linear_54700_535)" fill-opacity="0.5"/>
<path d="M108.39 255.029C108.39 264.409 115.986 272.011 125.359 272.011C134.731 272.011 142.329 264.409 142.329 255.029H149.117C149.117 268.159 138.479 278.804 125.359 278.804C112.239 278.804 101.602 268.159 101.602 255.029H108.39Z" fill="url(#svg-615458082_48056_paint28_linear_54700_535)" fill-opacity="0.5"/>
<path d="M132.147 255.029C132.111 256.807 131.38 258.499 130.111 259.744C128.842 260.988 127.136 261.685 125.359 261.685C123.582 261.685 121.877 260.988 120.608 259.744C119.339 258.499 118.607 256.807 118.571 255.029H111.783C111.783 258.632 113.214 262.088 115.76 264.636C118.305 267.183 121.759 268.615 125.359 268.615C128.96 268.615 132.413 267.183 134.959 264.636C137.505 262.088 138.935 258.632 138.935 255.029H132.147Z" fill="url(#svg-615458082_48056_paint29_linear_54700_535)" fill-opacity="0.5"/>
</g>
</g>
<g opacity="0.3">
<path d="M1319.77 229.339L1267.86 190.19M1419.62 253.891L1522.43 248.731M1442.63 387.133L1394.61 304.565M1318.25 284.571L1193.82 349.219" stroke="white" stroke-opacity="0.5" stroke-width="1.70186"/>
<path d="M1325.12 -22.2137C1170.44 -0.474345 1062.68 142.633 1084.43 297.425C1106.19 452.218 1249.22 560.079 1403.9 538.339C1558.58 516.6 1666.34 373.493 1644.59 218.7C1622.84 63.9078 1479.8 -43.9531 1325.12 -22.2137Z" fill="white" fill-opacity="0.03"/>
<path d="M1325.12 -22.2137C1170.44 -0.474345 1062.68 142.633 1084.43 297.425C1106.19 452.218 1249.22 560.079 1403.9 538.339C1558.58 516.6 1666.34 373.493 1644.59 218.7C1622.84 63.9078 1479.8 -43.9531 1325.12 -22.2137Z" fill="url(#svg-615458082_48056_paint30_linear_54700_535)" fill-opacity="0.04"/>
<path d="M1325.22 -21.5133C1170.92 0.17168 1063.43 142.921 1085.13 297.327C1106.83 451.732 1249.5 559.323 1403.8 537.638C1558.1 515.953 1665.59 373.204 1643.89 218.798C1622.19 64.3928 1479.51 -43.1983 1325.22 -21.5133Z" stroke="url(#svg-615458082_48056_paint31_linear_54700_535)" stroke-opacity="0.08" stroke-width="1.70186"/>
<path d="M1333 33.8408C1209.25 51.2322 1123.04 165.718 1140.45 289.552C1157.85 413.386 1272.28 499.675 1396.02 482.283C1519.77 464.892 1605.98 350.406 1588.57 226.572C1571.17 102.738 1456.74 16.4493 1333 33.8408Z" fill="white" fill-opacity="0.03"/>
<path d="M1333 33.8408C1209.25 51.2322 1123.04 165.718 1140.45 289.552C1157.85 413.386 1272.28 499.675 1396.02 482.283C1519.77 464.892 1605.98 350.406 1588.57 226.572C1571.17 102.738 1456.74 16.4493 1333 33.8408Z" fill="url(#svg-615458082_48056_paint32_linear_54700_535)" fill-opacity="0.04"/>
<path d="M1333.09 34.5421C1209.73 51.8793 1123.8 166.007 1141.14 289.454C1158.49 412.901 1272.56 498.92 1395.92 481.583C1519.28 464.246 1605.22 350.118 1587.87 226.671C1570.52 103.224 1456.45 17.205 1333.09 34.5421Z" stroke="url(#svg-615458082_48056_paint33_linear_54700_535)" stroke-opacity="0.08" stroke-width="1.70186"/>
<path d="M1340.88 89.8981C1248.07 102.942 1183.41 188.806 1196.46 281.682C1209.51 374.557 1295.33 439.273 1388.14 426.23C1480.95 413.186 1545.61 327.322 1532.56 234.446C1519.5 141.571 1433.69 76.8545 1340.88 89.8981Z" fill="white" fill-opacity="0.03"/>
<path d="M1340.88 89.8981C1248.07 102.942 1183.41 188.806 1196.46 281.682C1209.51 374.557 1295.33 439.273 1388.14 426.23C1480.95 413.186 1545.61 327.322 1532.56 234.446C1519.5 141.571 1433.69 76.8545 1340.88 89.8981Z" fill="url(#svg-615458082_48056_paint34_linear_54700_535)" fill-opacity="0.04"/>
<path d="M1340.97 90.5986C1248.55 103.588 1184.16 189.094 1197.16 281.583C1210.16 374.071 1295.62 438.518 1388.05 425.529C1480.47 412.54 1544.86 327.033 1531.86 234.545C1518.86 142.056 1433.4 77.6093 1340.97 90.5986Z" stroke="url(#svg-615458082_48056_paint35_linear_54700_535)" stroke-opacity="0.08" stroke-width="1.70186"/>
<path d="M1348.75 145.953C1286.88 154.648 1243.78 211.891 1252.48 273.808C1261.18 335.725 1318.39 378.869 1380.27 370.174C1442.14 361.478 1485.24 304.235 1476.54 242.318C1467.84 180.401 1410.63 137.257 1348.75 145.953Z" fill="white" fill-opacity="0.03"/>
<path d="M1348.75 145.953C1286.88 154.648 1243.78 211.891 1252.48 273.808C1261.18 335.725 1318.39 378.869 1380.27 370.174C1442.14 361.478 1485.24 304.235 1476.54 242.318C1467.84 180.401 1410.63 137.257 1348.75 145.953Z" fill="url(#svg-615458082_48056_paint36_linear_54700_535)" fill-opacity="0.04"/>
<path d="M1348.85 146.653C1287.36 155.294 1244.53 212.18 1253.18 273.71C1261.82 335.24 1318.68 378.114 1380.17 369.473C1441.65 360.831 1484.49 303.946 1475.84 242.416C1467.19 180.886 1410.34 138.012 1348.85 146.653Z" stroke="url(#svg-615458082_48056_paint37_linear_54700_535)" stroke-opacity="0.08" stroke-width="1.70186"/>
<path d="M1344.81 117.926C1267.47 128.796 1213.59 200.35 1224.47 277.746C1235.35 355.142 1306.86 409.072 1384.2 398.203C1461.55 387.333 1515.43 315.779 1504.55 238.383C1493.67 160.987 1422.16 107.057 1344.81 117.926Z" stroke="white" stroke-width="1.70186" stroke-miterlimit="16" stroke-linecap="round" stroke-linejoin="round" stroke-dasharray="0.02 6.81"/>
<path d="M1336.93 61.8689C1228.66 77.0865 1153.22 177.262 1168.45 285.616C1183.68 393.971 1283.8 469.474 1392.08 454.256C1500.36 439.038 1575.79 338.863 1560.56 230.509C1545.34 122.154 1445.21 46.6514 1336.93 61.8689Z" stroke="white" stroke-width="1.70186" stroke-miterlimit="16" stroke-linecap="round" stroke-linejoin="round" stroke-dasharray="0.02 6.81"/>
<path d="M1329.06 5.81453C1189.84 25.38 1092.86 154.176 1112.44 293.49C1132.02 432.803 1260.74 529.877 1399.96 510.312C1539.18 490.747 1636.16 361.95 1616.58 222.637C1597 83.3238 1468.27 -13.7509 1329.06 5.81453Z" stroke="white" stroke-width="1.70186" stroke-miterlimit="16" stroke-linecap="round" stroke-linejoin="round" stroke-dasharray="0.02 6.81"/>
<path d="M1356.63 202.008C1325.69 206.356 1304.14 234.977 1308.49 265.936C1312.84 296.894 1341.45 318.466 1372.39 314.119C1403.32 309.771 1424.88 281.149 1420.52 250.191C1416.17 219.232 1387.57 197.66 1356.63 202.008Z" fill="white" fill-opacity="0.03"/>
<path d="M1356.63 202.008C1325.69 206.356 1304.14 234.977 1308.49 265.936C1312.84 296.894 1341.45 318.466 1372.39 314.119C1403.32 309.771 1424.88 281.149 1420.52 250.191C1416.17 219.232 1387.57 197.66 1356.63 202.008Z" fill="url(#svg-615458082_48056_paint38_linear_54700_535)" fill-opacity="0.04"/>
<path d="M1356.73 202.707C1326.18 207.001 1304.9 235.265 1309.19 265.836C1313.49 296.408 1341.74 317.71 1372.29 313.417C1402.84 309.123 1424.12 280.859 1419.82 250.288C1415.53 219.716 1387.28 198.414 1356.73 202.707Z" stroke="url(#svg-615458082_48056_paint39_linear_54700_535)" stroke-opacity="0.08" stroke-width="1.70186"/>
<path d="M1356.73 202.707C1326.18 207.001 1304.9 235.265 1309.19 265.836C1313.49 296.408 1341.74 317.71 1372.29 313.417C1402.84 309.123 1424.12 280.859 1419.82 250.288C1415.53 219.716 1387.28 198.414 1356.73 202.707Z" stroke="white" stroke-opacity="0.5" stroke-width="1.70186"/>
<path d="M1352.69 173.98C1306.28 180.502 1273.96 223.434 1280.48 269.872C1287.01 316.309 1329.92 348.668 1376.32 342.146C1422.73 335.624 1455.06 292.692 1448.53 246.254C1442 199.816 1399.09 167.458 1352.69 173.98Z" stroke="white" stroke-width="1.70186" stroke-miterlimit="16" stroke-linecap="round" stroke-linejoin="round" stroke-dasharray="0.02 6.81"/>
<path d="M1037.8 402.583C1044.33 449.021 1087.24 481.379 1133.64 474.858C1180.05 468.336 1212.37 425.404 1205.85 378.966C1199.32 332.528 1156.41 300.17 1110.01 306.692C1063.6 313.214 1031.27 356.146 1037.8 402.583Z" fill="white" fill-opacity="0.02"/>
<g filter="url(#svg-615458082_48056_filter4_d_54700_535)">
<path d="M1111.58 317.902C1071.37 323.554 1043.35 360.762 1049 401.008C1054.66 441.254 1091.85 469.298 1132.07 463.645C1172.28 457.993 1200.3 420.785 1194.65 380.539C1188.99 340.293 1151.8 312.249 1111.58 317.902Z" fill="white" fill-opacity="0.03"/>
<path d="M1111.58 317.902C1071.37 323.554 1043.35 360.762 1049 401.008C1054.66 441.254 1091.85 469.298 1132.07 463.645C1172.28 457.993 1200.3 420.785 1194.65 380.539C1188.99 340.293 1151.8 312.249 1111.58 317.902Z" fill="url(#svg-615458082_48056_paint40_linear_54700_535)" fill-opacity="0.04"/>
<path d="M1111.68 318.602C1071.85 324.2 1044.1 361.05 1049.7 400.909C1055.31 440.768 1092.14 468.542 1131.97 462.944C1171.8 457.347 1199.55 420.496 1193.94 380.637C1188.34 340.778 1151.51 313.004 1111.68 318.602Z" stroke="white" stroke-opacity="0.05" stroke-width="1.70186"/>
<path d="M1111.68 318.602C1071.85 324.2 1044.1 361.05 1049.7 400.909C1055.31 440.768 1092.14 468.542 1131.97 462.944C1171.8 457.347 1199.55 420.496 1193.94 380.637C1188.34 340.778 1151.51 313.004 1111.68 318.602Z" stroke="url(#svg-615458082_48056_paint41_linear_54700_535)" stroke-opacity="0.16" stroke-width="1.70186"/>
</g>
<path d="M1038.5 402.486C1044.97 448.537 1087.53 480.625 1133.54 474.158C1179.56 467.69 1211.62 425.116 1205.15 379.065C1198.68 333.014 1156.12 300.926 1110.11 307.393C1064.09 313.861 1032.03 356.435 1038.5 402.486Z" stroke="url(#svg-615458082_48056_paint42_linear_54700_535)" stroke-opacity="0.12" stroke-width="1.70186"/>
<path d="M1038.5 402.486C1044.97 448.537 1087.53 480.625 1133.54 474.158C1179.56 467.69 1211.62 425.116 1205.15 379.065C1198.68 333.014 1156.12 300.926 1110.11 307.393C1064.09 313.861 1032.03 356.435 1038.5 402.486Z" stroke="url(#svg-615458082_48056_paint43_linear_54700_535)" stroke-opacity="0.5" stroke-width="1.70186"/>
<path d="M1143.11 166.278C1148.33 203.428 1182.66 229.315 1219.78 224.097C1256.91 218.88 1282.77 184.534 1277.55 147.384C1272.33 110.234 1238 84.3473 1200.88 89.5647C1163.75 94.7822 1137.89 129.128 1143.11 166.278Z" fill="white" fill-opacity="0.02"/>
<g filter="url(#svg-615458082_48056_filter5_d_54700_535)">
<path d="M1202.45 100.776C1171.51 105.123 1149.96 133.745 1154.31 164.703C1158.66 195.662 1187.27 217.234 1218.2 212.886C1249.14 208.538 1270.69 179.917 1266.34 148.958C1261.99 118 1233.39 96.4277 1202.45 100.776Z" fill="white" fill-opacity="0.03"/>
<path d="M1202.45 100.776C1171.51 105.123 1149.96 133.745 1154.31 164.703C1158.66 195.662 1187.27 217.234 1218.2 212.886C1249.14 208.538 1270.69 179.917 1266.34 148.958C1261.99 118 1233.39 96.4277 1202.45 100.776Z" fill="url(#svg-615458082_48056_paint44_linear_54700_535)" fill-opacity="0.04"/>
<path d="M1202.55 101.476C1172 105.77 1150.71 134.033 1155.01 164.605C1159.31 195.176 1187.56 216.479 1218.11 212.185C1248.66 207.892 1269.94 179.628 1265.64 149.057C1261.35 118.485 1233.1 97.1825 1202.55 101.476Z" stroke="white" stroke-opacity="0.05" stroke-width="1.70186"/>
<path d="M1202.55 101.476C1172 105.77 1150.71 134.033 1155.01 164.605C1159.31 195.176 1187.56 216.479 1218.11 212.185C1248.66 207.892 1269.94 179.628 1265.64 149.057C1261.35 118.485 1233.1 97.1825 1202.55 101.476Z" stroke="url(#svg-615458082_48056_paint45_linear_54700_535)" stroke-opacity="0.16" stroke-width="1.70186"/>
</g>
<path d="M1143.81 166.181C1148.98 202.945 1182.95 228.562 1219.68 223.398C1256.42 218.235 1282.01 184.247 1276.85 147.484C1271.68 110.721 1237.71 85.104 1200.97 90.2671C1164.24 95.4302 1138.64 129.418 1143.81 166.181Z" stroke="url(#svg-615458082_48056_paint46_linear_54700_535)" stroke-opacity="0.12" stroke-width="1.70186"/>
<path d="M1143.81 166.181C1148.98 202.945 1182.95 228.562 1219.68 223.398C1256.42 218.235 1282.01 184.247 1276.85 147.484C1271.68 110.721 1237.71 85.104 1200.97 90.2671C1164.24 95.4302 1138.64 129.418 1143.81 166.181Z" stroke="url(#svg-615458082_48056_paint47_linear_54700_535)" stroke-opacity="0.5" stroke-width="1.70186"/>
<path d="M1415.52 438.102C1419.43 465.964 1445.18 485.379 1473.02 481.466C1500.87 477.553 1520.26 451.794 1516.35 423.931C1512.43 396.068 1486.69 376.654 1458.84 380.567C1431 384.48 1411.6 410.239 1415.52 438.102Z" fill="white" fill-opacity="0.02"/>
<g filter="url(#svg-615458082_48056_filter6_d_54700_535)">
<path d="M1460.42 391.777C1438.76 394.82 1423.67 414.855 1426.72 436.526C1429.77 458.197 1449.79 473.297 1471.45 470.254C1493.1 467.21 1508.19 447.175 1505.14 425.504C1502.1 403.834 1482.07 388.733 1460.42 391.777Z" fill="white" fill-opacity="0.03"/>
<path d="M1460.42 391.777C1438.76 394.82 1423.67 414.855 1426.72 436.526C1429.77 458.197 1449.79 473.297 1471.45 470.254C1493.1 467.21 1508.19 447.175 1505.14 425.504C1502.1 403.834 1482.07 388.733 1460.42 391.777Z" fill="url(#svg-615458082_48056_paint48_linear_54700_535)" fill-opacity="0.04"/>
<path d="M1460.51 392.477C1439.25 395.466 1424.43 415.143 1427.42 436.427C1430.41 457.711 1450.08 472.542 1471.35 469.553C1492.62 466.564 1507.43 446.887 1504.44 425.603C1501.45 404.319 1481.78 389.488 1460.51 392.477Z" stroke="white" stroke-opacity="0.05" stroke-width="1.70186"/>
<path d="M1460.51 392.477C1439.25 395.466 1424.43 415.143 1427.42 436.427C1430.41 457.711 1450.08 472.542 1471.35 469.553C1492.62 466.564 1507.43 446.887 1504.44 425.603C1501.45 404.319 1481.78 389.488 1460.51 392.477Z" stroke="url(#svg-615458082_48056_paint49_linear_54700_535)" stroke-opacity="0.16" stroke-width="1.70186"/>
</g>
<path d="M1416.22 438.003C1420.08 465.479 1445.47 484.624 1472.92 480.765C1500.38 476.906 1519.51 451.505 1515.64 424.029C1511.78 396.554 1486.4 377.408 1458.94 381.267C1431.48 385.126 1412.36 410.527 1416.22 438.003Z" stroke="url(#svg-615458082_48056_paint50_linear_54700_535)" stroke-opacity="0.12" stroke-width="1.70186"/>
<path d="M1416.22 438.003C1420.08 465.479 1445.47 484.624 1472.92 480.765C1500.38 476.906 1519.51 451.505 1515.64 424.029C1511.78 396.554 1486.4 377.408 1458.94 381.267C1431.48 385.126 1412.36 410.527 1416.22 438.003Z" stroke="url(#svg-615458082_48056_paint51_linear_54700_535)" stroke-opacity="0.5" stroke-width="1.70186"/>
<mask id="svg-615458082_48056_mask2_54700_535" style="mask-type:luminance" maskUnits="userSpaceOnUse" x="1326" y="219" width="77" height="78">
<path d="M1402.84 286.975L1335.62 296.422L1326.17 229.155L1393.39 219.708L1402.84 286.975Z" fill="white"/>
</mask>
<g mask="url(#svg-615458082_48056_mask2_54700_535)">
<path d="M1391.4 254.286C1393.48 269.148 1383.14 282.884 1368.29 284.971C1353.44 287.059 1339.71 276.705 1337.62 261.844L1330.9 262.788C1333.51 281.364 1350.67 294.307 1369.23 291.698C1387.8 289.089 1400.73 271.917 1398.12 253.341L1391.4 254.286Z" fill="url(#svg-615458082_48056_paint52_linear_54700_535)" fill-opacity="0.5"/>
<path d="M1347.7 260.426C1349.01 269.714 1357.59 276.185 1366.87 274.881C1376.15 273.576 1382.62 264.991 1381.31 255.702L1388.03 254.758C1389.86 267.76 1380.81 279.781 1367.82 281.607C1354.82 283.433 1342.81 274.372 1340.98 261.37L1347.7 260.426Z" fill="url(#svg-615458082_48056_paint53_linear_54700_535)" fill-opacity="0.5"/>
<path d="M1371.23 257.12C1371.44 258.886 1370.95 260.663 1369.87 262.072C1368.79 263.481 1367.19 264.408 1365.44 264.656C1363.68 264.903 1361.89 264.45 1360.46 263.395C1359.03 262.339 1358.07 260.765 1357.79 259.01L1351.07 259.954C1351.57 263.522 1353.46 266.745 1356.34 268.914C1359.22 271.083 1362.83 272.019 1366.4 271.518C1369.97 271.017 1373.19 269.119 1375.35 266.242C1377.52 263.365 1378.45 259.744 1377.95 256.176L1371.23 257.12Z" fill="url(#svg-615458082_48056_paint54_linear_54700_535)" fill-opacity="0.5"/>
<path d="M1337.62 261.843C1335.53 246.981 1345.87 233.245 1360.73 231.158C1375.58 229.071 1389.31 239.424 1391.4 254.286L1398.12 253.341C1395.51 234.765 1378.34 221.822 1359.78 224.431C1341.22 227.04 1328.29 244.213 1330.9 262.788L1337.62 261.843Z" fill="url(#svg-615458082_48056_paint55_linear_54700_535)" fill-opacity="0.5"/>
<path d="M1381.31 255.703C1380.01 246.414 1371.43 239.943 1362.15 241.248C1352.86 242.552 1346.4 251.138 1347.7 260.426L1340.98 261.371C1339.15 248.369 1348.21 236.347 1361.2 234.521C1374.19 232.695 1386.21 241.756 1388.04 254.758L1381.31 255.703Z" fill="url(#svg-615458082_48056_paint56_linear_54700_535)" fill-opacity="0.5"/>
<path d="M1357.79 259.009C1357.58 257.244 1358.06 255.466 1359.15 254.057C1360.23 252.648 1361.82 251.721 1363.58 251.473C1365.34 251.226 1367.13 251.679 1368.56 252.734C1369.99 253.79 1370.95 255.364 1371.23 257.12L1377.95 256.175C1377.45 252.607 1375.55 249.384 1372.68 247.215C1369.8 245.047 1366.18 244.11 1362.62 244.611C1359.05 245.112 1355.83 247.01 1353.67 249.887C1351.5 252.765 1350.56 256.386 1351.07 259.954L1357.79 259.009Z" fill="url(#svg-615458082_48056_paint57_linear_54700_535)" fill-opacity="0.5"/>
</g>
</g>
</g>
<defs>
<filter id="svg-615458082_48056_filter0_d_54700_535" x="256.011" y="56.4265" width="256.28" height="256.382" filterUnits="userSpaceOnUse" color-interpolation-filters="sRGB">
<feFlood flood-opacity="0" result="BackgroundImageFix"/>
<feColorMatrix in="SourceAlpha" type="matrix" values="0 0 0 0 0 0 0 0 0 0 0 0 0 0 0 0 0 0 127 0" result="hardAlpha"/>
<feOffset dy="27.2297"/>
<feGaussianBlur stdDeviation="27.2297"/>
<feComposite in2="hardAlpha" operator="out"/>
<feColorMatrix type="matrix" values="0 0 0 0 0 0 0 0 0 0 0 0 0 0 0 0 0 0 0.12 0"/>
<feBlend mode="normal" in2="BackgroundImageFix" result="effect1_dropShadow_54700_535"/>
<feBlend mode="normal" in="SourceGraphic" in2="effect1_dropShadow_54700_535" result="shape"/>
</filter>
<filter id="svg-615458082_48056_filter1_d_54700_535" x="-233.289" y="137.089" width="244.966" height="245.06" filterUnits="userSpaceOnUse" color-interpolation-filters="sRGB">
<feFlood flood-opacity="0" result="BackgroundImageFix"/>
<feColorMatrix in="SourceAlpha" type="matrix" values="0 0 0 0 0 0 0 0 0 0 0 0 0 0 0 0 0 0 127 0" result="hardAlpha"/>
<feOffset dy="27.2297"/>
<feGaussianBlur stdDeviation="27.2297"/>
<feComposite in2="hardAlpha" operator="out"/>
<feColorMatrix type="matrix" values="0 0 0 0 0 0 0 0 0 0 0 0 0 0 0 0 0 0 0.12 0"/>
<feBlend mode="normal" in2="BackgroundImageFix" result="effect1_dropShadow_54700_535"/>
<feBlend mode="normal" in="SourceGraphic" in2="effect1_dropShadow_54700_535" result="shape"/>
</filter>
<filter id="svg-615458082_48056_filter2_d_54700_535" x="152.783" y="292.757" width="222.341" height="222.418" filterUnits="userSpaceOnUse" color-interpolation-filters="sRGB">
<feFlood flood-opacity="0" result="BackgroundImageFix"/>
<feColorMatrix in="SourceAlpha" type="matrix" values="0 0 0 0 0 0 0 0 0 0 0 0 0 0 0 0 0 0 127 0" result="hardAlpha"/>
<feOffset dy="27.2297"/>
<feGaussianBlur stdDeviation="27.2297"/>
<feComposite in2="hardAlpha" operator="out"/>
<feColorMatrix type="matrix" values="0 0 0 0 0 0 0 0 0 0 0 0 0 0 0 0 0 0 0.12 0"/>
<feBlend mode="normal" in2="BackgroundImageFix" result="effect1_dropShadow_54700_535"/>
<feBlend mode="normal" in="SourceGraphic" in2="effect1_dropShadow_54700_535" result="shape"/>
</filter>
<filter id="svg-615458082_48056_filter3_d_54700_535" x="-45.2055" y="2.65018" width="188.399" height="188.454" filterUnits="userSpaceOnUse" color-interpolation-filters="sRGB">
<feFlood flood-opacity="0" result="BackgroundImageFix"/>
<feColorMatrix in="SourceAlpha" type="matrix" values="0 0 0 0 0 0 0 0 0 0 0 0 0 0 0 0 0 0 127 0" result="hardAlpha"/>
<feOffset dy="27.2297"/>
<feGaussianBlur stdDeviation="27.2297"/>
<feComposite in2="hardAlpha" operator="out"/>
<feColorMatrix type="matrix" values="0 0 0 0 0 0 0 0 0 0 0 0 0 0 0 0 0 0 0.12 0"/>
<feBlend mode="normal" in2="BackgroundImageFix" result="effect1_dropShadow_54700_535"/>
<feBlend mode="normal" in="SourceGraphic" in2="effect1_dropShadow_54700_535" result="shape"/>
</filter>
<filter id="svg-615458082_48056_filter4_d_54700_535" x="993.675" y="289.804" width="256.3" height="256.397" filterUnits="userSpaceOnUse" color-interpolation-filters="sRGB">
<feFlood flood-opacity="0" result="BackgroundImageFix"/>
<feColorMatrix in="SourceAlpha" type="matrix" values="0 0 0 0 0 0 0 0 0 0 0 0 0 0 0 0 0 0 127 0" result="hardAlpha"/>
<feOffset dy="27.2297"/>
<feGaussianBlur stdDeviation="27.2297"/>
<feComposite in2="hardAlpha" operator="out"/>
<feColorMatrix type="matrix" values="0 0 0 0 0 0 0 0 0 0 0 0 0 0 0 0 0 0 0.12 0"/>
<feBlend mode="normal" in2="BackgroundImageFix" result="effect1_dropShadow_54700_535"/>
<feBlend mode="normal" in="SourceGraphic" in2="effect1_dropShadow_54700_535" result="shape"/>
</filter>
<filter id="svg-615458082_48056_filter5_d_54700_535" x="1099.15" y="72.8455" width="222.354" height="222.431" filterUnits="userSpaceOnUse" color-interpolation-filters="sRGB">
<feFlood flood-opacity="0" result="BackgroundImageFix"/>
<feColorMatrix in="SourceAlpha" type="matrix" values="0 0 0 0 0 0 0 0 0 0 0 0 0 0 0 0 0 0 127 0" result="hardAlpha"/>
<feOffset dy="27.2297"/>
<feGaussianBlur stdDeviation="27.2297"/>
<feComposite in2="hardAlpha" operator="out"/>
<feColorMatrix type="matrix" values="0 0 0 0 0 0 0 0 0 0 0 0 0 0 0 0 0 0 0.12 0"/>
<feBlend mode="normal" in2="BackgroundImageFix" result="effect1_dropShadow_54700_535"/>
<feBlend mode="normal" in="SourceGraphic" in2="effect1_dropShadow_54700_535" result="shape"/>
</filter>
<filter id="svg-615458082_48056_filter6_d_54700_535" x="1371.72" y="364.013" width="188.411" height="188.463" filterUnits="userSpaceOnUse" color-interpolation-filters="sRGB">
<feFlood flood-opacity="0" result="BackgroundImageFix"/>
<feColorMatrix in="SourceAlpha" type="matrix" values="0 0 0 0 0 0 0 0 0 0 0 0 0 0 0 0 0 0 127 0" result="hardAlpha"/>
<feOffset dy="27.2297"/>
<feGaussianBlur stdDeviation="27.2297"/>
<feComposite in2="hardAlpha" operator="out"/>
<feColorMatrix type="matrix" values="0 0 0 0 0 0 0 0 0 0 0 0 0 0 0 0 0 0 0.12 0"/>
<feBlend mode="normal" in2="BackgroundImageFix" result="effect1_dropShadow_54700_535"/>
<feBlend mode="normal" in="SourceGraphic" in2="effect1_dropShadow_54700_535" result="shape"/>
</filter>
<linearGradient id="svg-615458082_48056_paint0_linear_54700_535" x1="1197.5" y1="91.326" x2="280.836" y2="1009.04" gradientUnits="userSpaceOnUse">
<stop stop-color="#662900"/>
<stop offset="1" stop-color="#CC5500"/>
</linearGradient>
<linearGradient id="svg-615458082_48056_paint1_linear_54700_535" x1="1197.5" y1="91.326" x2="280.836" y2="1009.04" gradientUnits="userSpaceOnUse">
<stop stop-color="#662900"/>
<stop offset="1" stop-color="#CC5500"/>
</linearGradient>
<linearGradient id="svg-615458082_48056_paint2_linear_54700_535" x1="125.355" y1="-28" x2="125.355" y2="538.062" gradientUnits="userSpaceOnUse">
<stop stop-color="white"/>
<stop offset="0.328" stop-color="white" stop-opacity="0.24"/>
</linearGradient>
<linearGradient id="svg-615458082_48056_paint3_linear_54700_535" x1="125.357" y1="-27.9996" x2="125.357" y2="538.062" gradientUnits="userSpaceOnUse">
<stop stop-color="white"/>
<stop offset="1" stop-color="white" stop-opacity="0"/>
</linearGradient>
<linearGradient id="svg-615458082_48056_paint4_linear_54700_535" x1="125.355" y1="28.6074" x2="125.355" y2="481.457" gradientUnits="userSpaceOnUse">
<stop stop-color="white"/>
<stop offset="0.328" stop-color="white" stop-opacity="0.24"/>
</linearGradient>
<linearGradient id="svg-615458082_48056_paint5_linear_54700_535" x1="125.357" y1="28.6069" x2="125.357" y2="481.456" gradientUnits="userSpaceOnUse">
<stop stop-color="white"/>
<stop offset="1" stop-color="white" stop-opacity="0"/>
</linearGradient>
<linearGradient id="svg-615458082_48056_paint6_linear_54700_535" x1="125.355" y1="85.2109" x2="125.355" y2="424.848" gradientUnits="userSpaceOnUse">
<stop stop-color="white"/>
<stop offset="0.328" stop-color="white" stop-opacity="0.24"/>
</linearGradient>
<linearGradient id="svg-615458082_48056_paint7_linear_54700_535" x1="125.357" y1="85.2114" x2="125.357" y2="424.848" gradientUnits="userSpaceOnUse">
<stop stop-color="white"/>
<stop offset="1" stop-color="white" stop-opacity="0"/>
</linearGradient>
<linearGradient id="svg-615458082_48056_paint8_linear_54700_535" x1="125.355" y1="141.818" x2="125.355" y2="368.243" gradientUnits="userSpaceOnUse">
<stop stop-color="white"/>
<stop offset="0.328" stop-color="white" stop-opacity="0.24"/>
</linearGradient>
<linearGradient id="svg-615458082_48056_paint9_linear_54700_535" x1="125.357" y1="141.819" x2="125.357" y2="368.243" gradientUnits="userSpaceOnUse">
<stop stop-color="white"/>
<stop offset="1" stop-color="white" stop-opacity="0"/>
</linearGradient>
<linearGradient id="svg-615458082_48056_paint10_linear_54700_535" x1="125.359" y1="198.425" x2="125.359" y2="311.637" gradientUnits="userSpaceOnUse">
<stop stop-color="white"/>
<stop offset="0.328" stop-color="white" stop-opacity="0.24"/>
</linearGradient>
<linearGradient id="svg-615458082_48056_paint11_linear_54700_535" x1="125.357" y1="198.425" x2="125.357" y2="311.638" gradientUnits="userSpaceOnUse">
<stop stop-color="white"/>
<stop offset="1" stop-color="white" stop-opacity="0"/>
</linearGradient>
<linearGradient id="svg-615458082_48056_paint12_linear_54700_535" x1="384.15" y1="83.7988" x2="384.15" y2="230.975" gradientUnits="userSpaceOnUse">
<stop stop-color="white"/>
<stop offset="0.328" stop-color="white" stop-opacity="0.24"/>
</linearGradient>
<linearGradient id="svg-615458082_48056_paint13_linear_54700_535" x1="330.125" y1="103.323" x2="401.46" y2="174.608" gradientUnits="userSpaceOnUse">
<stop stop-color="white"/>
<stop offset="1" stop-color="white" stop-opacity="0"/>
</linearGradient>
<linearGradient id="svg-615458082_48056_paint14_linear_54700_535" x1="384.15" y1="72.476" x2="384.15" y2="242.295" gradientUnits="userSpaceOnUse">
<stop stop-color="white"/>
<stop offset="1" stop-color="white" stop-opacity="0"/>
</linearGradient>
<linearGradient id="svg-615458082_48056_paint15_linear_54700_535" x1="307.079" y1="189.226" x2="355.173" y2="165.903" gradientUnits="userSpaceOnUse">
<stop stop-color="white"/>
<stop offset="1" stop-color="white" stop-opacity="0"/>
</linearGradient>
<linearGradient id="svg-615458082_48056_paint16_linear_54700_535" x1="263.951" y1="320.129" x2="263.951" y2="433.341" gradientUnits="userSpaceOnUse">
<stop stop-color="white"/>
<stop offset="0.328" stop-color="white" stop-opacity="0.24"/>
</linearGradient>
<linearGradient id="svg-615458082_48056_paint17_linear_54700_535" x1="222.394" y1="335.147" x2="277.268" y2="389.982" gradientUnits="userSpaceOnUse">
<stop stop-color="white"/>
<stop offset="1" stop-color="white" stop-opacity="0"/>
</linearGradient>
<linearGradient id="svg-615458082_48056_paint18_linear_54700_535" x1="263.948" y1="308.806" x2="263.948" y2="444.661" gradientUnits="userSpaceOnUse">
<stop stop-color="white"/>
<stop offset="1" stop-color="white" stop-opacity="0"/>
</linearGradient>
<linearGradient id="svg-615458082_48056_paint19_linear_54700_535" x1="208.796" y1="336.402" x2="251.25" y2="378.826" gradientUnits="userSpaceOnUse">
<stop stop-color="white"/>
<stop offset="1" stop-color="white" stop-opacity="0"/>
</linearGradient>
<linearGradient id="svg-615458082_48056_paint20_linear_54700_535" x1="48.9929" y1="30.0225" x2="48.9929" y2="109.271" gradientUnits="userSpaceOnUse">
<stop stop-color="white"/>
<stop offset="0.328" stop-color="white" stop-opacity="0.24"/>
</linearGradient>
<linearGradient id="svg-615458082_48056_paint21_linear_54700_535" x1="19.9042" y1="40.5361" x2="58.3143" y2="78.9192" gradientUnits="userSpaceOnUse">
<stop stop-color="white"/>
<stop offset="1" stop-color="white" stop-opacity="0"/>
</linearGradient>
<linearGradient id="svg-615458082_48056_paint22_linear_54700_535" x1="48.9917" y1="18.6996" x2="48.9917" y2="120.591" gradientUnits="userSpaceOnUse">
<stop stop-color="white"/>
<stop offset="1" stop-color="white" stop-opacity="0"/>
</linearGradient>
<linearGradient id="svg-615458082_48056_paint23_linear_54700_535" x1="68.0829" y1="117.053" x2="52.5082" y2="78.1437" gradientUnits="userSpaceOnUse">
<stop stop-color="white"/>
<stop offset="1" stop-color="white" stop-opacity="0"/>
</linearGradient>
<linearGradient id="svg-615458082_48056_paint24_linear_54700_535" x1="80.1066" y1="229.556" x2="159.31" y2="254.997" gradientUnits="userSpaceOnUse">
<stop stop-color="white"/>
<stop offset="1" stop-color="white" stop-opacity="0"/>
</linearGradient>
<linearGradient id="svg-615458082_48056_paint25_linear_54700_535" x1="80.1063" y1="229.558" x2="159.31" y2="254.998" gradientUnits="userSpaceOnUse">
<stop stop-color="white"/>
<stop offset="1" stop-color="white" stop-opacity="0"/>
</linearGradient>
<linearGradient id="svg-615458082_48056_paint26_linear_54700_535" x1="80.106" y1="229.556" x2="159.309" y2="254.996" gradientUnits="userSpaceOnUse">
<stop stop-color="white"/>
<stop offset="1" stop-color="white" stop-opacity="0"/>
</linearGradient>
<linearGradient id="svg-615458082_48056_paint27_linear_54700_535" x1="170.613" y1="280.502" x2="91.4095" y2="255.062" gradientUnits="userSpaceOnUse">
<stop stop-color="white"/>
<stop offset="1" stop-color="white" stop-opacity="0"/>
</linearGradient>
<linearGradient id="svg-615458082_48056_paint28_linear_54700_535" x1="170.613" y1="280.502" x2="91.4092" y2="255.062" gradientUnits="userSpaceOnUse">
<stop stop-color="white"/>
<stop offset="1" stop-color="white" stop-opacity="0"/>
</linearGradient>
<linearGradient id="svg-615458082_48056_paint29_linear_54700_535" x1="170.612" y1="280.502" x2="91.4089" y2="255.062" gradientUnits="userSpaceOnUse">
<stop stop-color="white"/>
<stop offset="1" stop-color="white" stop-opacity="0"/>
</linearGradient>
<linearGradient id="svg-615458082_48056_paint30_linear_54700_535" x1="1403.9" y1="538.339" x2="1325.12" y2="-22.2137" gradientUnits="userSpaceOnUse">
<stop stop-color="white"/>
<stop offset="0.328" stop-color="white" stop-opacity="0.24"/>
</linearGradient>
<linearGradient id="svg-615458082_48056_paint31_linear_54700_535" x1="1403.9" y1="538.339" x2="1325.12" y2="-22.214" gradientUnits="userSpaceOnUse">
<stop stop-color="white"/>
<stop offset="1" stop-color="white" stop-opacity="0"/>
</linearGradient>
<linearGradient id="svg-615458082_48056_paint32_linear_54700_535" x1="1396.02" y1="482.283" x2="1333" y2="33.8408" gradientUnits="userSpaceOnUse">
<stop stop-color="white"/>
<stop offset="0.328" stop-color="white" stop-opacity="0.24"/>
</linearGradient>
<linearGradient id="svg-615458082_48056_paint33_linear_54700_535" x1="1396.02" y1="482.284" x2="1333" y2="33.8414" gradientUnits="userSpaceOnUse">
<stop stop-color="white"/>
<stop offset="1" stop-color="white" stop-opacity="0"/>
</linearGradient>
<linearGradient id="svg-615458082_48056_paint34_linear_54700_535" x1="1388.14" y1="426.23" x2="1340.88" y2="89.8981" gradientUnits="userSpaceOnUse">
<stop stop-color="white"/>
<stop offset="0.328" stop-color="white" stop-opacity="0.24"/>
</linearGradient>
<linearGradient id="svg-615458082_48056_paint35_linear_54700_535" x1="1388.14" y1="426.23" x2="1340.88" y2="89.8979" gradientUnits="userSpaceOnUse">
<stop stop-color="white"/>
<stop offset="1" stop-color="white" stop-opacity="0"/>
</linearGradient>
<linearGradient id="svg-615458082_48056_paint36_linear_54700_535" x1="1380.27" y1="370.174" x2="1348.75" y2="145.953" gradientUnits="userSpaceOnUse">
<stop stop-color="white"/>
<stop offset="0.328" stop-color="white" stop-opacity="0.24"/>
</linearGradient>
<linearGradient id="svg-615458082_48056_paint37_linear_54700_535" x1="1380.26" y1="370.173" x2="1348.75" y2="145.952" gradientUnits="userSpaceOnUse">
<stop stop-color="white"/>
<stop offset="1" stop-color="white" stop-opacity="0"/>
</linearGradient>
<linearGradient id="svg-615458082_48056_paint38_linear_54700_535" x1="1372.39" y1="314.119" x2="1356.63" y2="202.008" gradientUnits="userSpaceOnUse">
<stop stop-color="white"/>
<stop offset="0.328" stop-color="white" stop-opacity="0.24"/>
</linearGradient>
<linearGradient id="svg-615458082_48056_paint39_linear_54700_535" x1="1372.39" y1="314.117" x2="1356.63" y2="202.007" gradientUnits="userSpaceOnUse">
<stop stop-color="white"/>
<stop offset="1" stop-color="white" stop-opacity="0"/>
</linearGradient>
<linearGradient id="svg-615458082_48056_paint40_linear_54700_535" x1="1132.07" y1="463.645" x2="1111.58" y2="317.902" gradientUnits="userSpaceOnUse">
<stop stop-color="white"/>
<stop offset="0.328" stop-color="white" stop-opacity="0.24"/>
</linearGradient>
<linearGradient id="svg-615458082_48056_paint41_linear_54700_535" x1="1182.85" y1="436.793" x2="1102.29" y2="376.129" gradientUnits="userSpaceOnUse">
<stop stop-color="white"/>
<stop offset="1" stop-color="white" stop-opacity="0"/>
</linearGradient>
<linearGradient id="svg-615458082_48056_paint42_linear_54700_535" x1="1133.64" y1="474.858" x2="1110.01" y2="306.692" gradientUnits="userSpaceOnUse">
<stop stop-color="white"/>
<stop offset="1" stop-color="white" stop-opacity="0"/>
</linearGradient>
<linearGradient id="svg-615458082_48056_paint43_linear_54700_535" x1="1193.72" y1="348.518" x2="1149.33" y2="378.308" gradientUnits="userSpaceOnUse">
<stop stop-color="white"/>
<stop offset="1" stop-color="white" stop-opacity="0"/>
</linearGradient>
<linearGradient id="svg-615458082_48056_paint44_linear_54700_535" x1="1218.2" y1="212.886" x2="1202.45" y2="100.776" gradientUnits="userSpaceOnUse">
<stop stop-color="white"/>
<stop offset="0.328" stop-color="white" stop-opacity="0.24"/>
</linearGradient>
<linearGradient id="svg-615458082_48056_paint45_linear_54700_535" x1="1257.27" y1="192.231" x2="1195.3" y2="145.566" gradientUnits="userSpaceOnUse">
<stop stop-color="white"/>
<stop offset="1" stop-color="white" stop-opacity="0"/>
</linearGradient>
<linearGradient id="svg-615458082_48056_paint46_linear_54700_535" x1="1219.78" y1="224.099" x2="1200.88" y2="89.5664" gradientUnits="userSpaceOnUse">
<stop stop-color="white"/>
<stop offset="1" stop-color="white" stop-opacity="0"/>
</linearGradient>
<linearGradient id="svg-615458082_48056_paint47_linear_54700_535" x1="1270.56" y1="189.096" x2="1222.61" y2="152.993" gradientUnits="userSpaceOnUse">
<stop stop-color="white"/>
<stop offset="1" stop-color="white" stop-opacity="0"/>
</linearGradient>
<linearGradient id="svg-615458082_48056_paint48_linear_54700_535" x1="1471.45" y1="470.254" x2="1460.42" y2="391.777" gradientUnits="userSpaceOnUse">
<stop stop-color="white"/>
<stop offset="0.328" stop-color="white" stop-opacity="0.24"/>
</linearGradient>
<linearGradient id="svg-615458082_48056_paint49_linear_54700_535" x1="1498.79" y1="455.794" x2="1455.41" y2="423.13" gradientUnits="userSpaceOnUse">
<stop stop-color="white"/>
<stop offset="1" stop-color="white" stop-opacity="0"/>
</linearGradient>
<linearGradient id="svg-615458082_48056_paint50_linear_54700_535" x1="1473.02" y1="481.466" x2="1458.84" y2="380.566" gradientUnits="userSpaceOnUse">
<stop stop-color="white"/>
<stop offset="1" stop-color="white" stop-opacity="0"/>
</linearGradient>
<linearGradient id="svg-615458082_48056_paint51_linear_54700_535" x1="1440.43" y1="386.727" x2="1461.27" y2="423.09" gradientUnits="userSpaceOnUse">
<stop stop-color="white"/>
<stop offset="1" stop-color="white" stop-opacity="0"/>
</linearGradient>
<linearGradient id="svg-615458082_48056_paint52_linear_54700_535" x1="1412.87" y1="276.992" x2="1330.89" y2="262.822" gradientUnits="userSpaceOnUse">
<stop stop-color="white"/>
<stop offset="1" stop-color="white" stop-opacity="0"/>
</linearGradient>
<linearGradient id="svg-615458082_48056_paint53_linear_54700_535" x1="1412.87" y1="276.991" x2="1330.89" y2="262.821" gradientUnits="userSpaceOnUse">
<stop stop-color="white"/>
<stop offset="1" stop-color="white" stop-opacity="0"/>
</linearGradient>
<linearGradient id="svg-615458082_48056_paint54_linear_54700_535" x1="1412.87" y1="276.992" x2="1330.89" y2="262.822" gradientUnits="userSpaceOnUse">
<stop stop-color="white"/>
<stop offset="1" stop-color="white" stop-opacity="0"/>
</linearGradient>
<linearGradient id="svg-615458082_48056_paint55_linear_54700_535" x1="1316.15" y1="239.137" x2="1398.12" y2="253.307" gradientUnits="userSpaceOnUse">
<stop stop-color="white"/>
<stop offset="1" stop-color="white" stop-opacity="0"/>
</linearGradient>
<linearGradient id="svg-615458082_48056_paint56_linear_54700_535" x1="1316.15" y1="239.137" x2="1398.12" y2="253.307" gradientUnits="userSpaceOnUse">
<stop stop-color="white"/>
<stop offset="1" stop-color="white" stop-opacity="0"/>
</linearGradient>
<linearGradient id="svg-615458082_48056_paint57_linear_54700_535" x1="1316.15" y1="239.137" x2="1398.12" y2="253.307" gradientUnits="userSpaceOnUse">
<stop stop-color="white"/>
<stop offset="1" stop-color="white" stop-opacity="0"/>
</linearGradient>
</defs>
</svg>