<svg xmlns="http://www.w3.org/2000/svg" width="64" height="64" viewBox="0 0 64 64" fill="none" id="svg1567740780_8946">
<g filter="url(#svg1567740780_8946_filter0_d_54671_142)">
<rect width="64" height="64" rx="32" fill="white" fill-opacity="0.03" shape-rendering="crispEdges"/>
</g>
<path d="M32.2803 28.3975C31.4137 28.3975 30.5665 28.6545 29.8459 29.1359C29.1253 29.6174 28.5636 30.3018 28.232 31.1025C27.9003 31.9032 27.8136 32.7842 27.9826 33.6342C28.1517 34.4842 28.569 35.265 29.1819 35.8778C29.7947 36.4906 30.5755 36.908 31.4255 37.0771C32.2755 37.2461 33.1565 37.1594 33.9572 36.8277C34.7579 36.496 35.4423 35.9344 35.9237 35.2138C36.4052 34.4932 36.6622 33.646 36.6622 32.7794C36.6622 31.6172 36.2006 30.5027 35.3788 29.6809C34.557 28.8591 33.4425 28.3975 32.2803 28.3975ZM32.2803 35.9093C31.6613 35.9093 31.0562 35.7257 30.5414 35.3818C30.0267 35.0379 29.6256 34.549 29.3887 33.9771C29.1518 33.4052 29.0898 32.7759 29.2106 32.1687C29.3313 31.5616 29.6294 31.0039 30.0671 30.5662C30.5049 30.1284 31.0626 29.8303 31.6697 29.7096C32.2769 29.5888 32.9062 29.6508 33.4781 29.8877C34.05 30.1246 34.5389 30.5257 34.8828 31.0405C35.2267 31.5552 35.4103 32.1603 35.4103 32.7794C35.4103 33.6095 35.0805 34.4056 34.4935 34.9925C33.9066 35.5795 33.1104 35.9093 32.2803 35.9093Z" fill="url(#svg1567740780_8946_paint0_linear_54671_142)"/>
<path d="M44.5916 32.7796C45.2489 32.0225 45.8593 31.226 46.4195 30.3946C48.6293 27.0831 49.1426 24.2161 47.8781 22.3256C46.6136 20.4351 43.7653 19.8217 39.8592 20.6104C39.4523 20.6918 39.0392 20.7919 38.6072 20.9046C37.1424 16.6667 34.8701 14 32.2785 14C29.6869 14 27.4146 16.6667 25.931 20.8858C25.5241 20.7794 25.1298 20.6918 24.7417 20.6167C24.6675 20.0272 24.3861 19.4833 23.9478 19.0822C23.5096 18.6811 22.943 18.4489 22.3493 18.4271C21.7556 18.4053 21.1735 18.5953 20.7069 18.9631C20.2404 19.331 19.9199 19.8527 19.8026 20.4351C19.1814 20.5213 18.5839 20.732 18.046 21.0547C17.5082 21.3774 17.0411 21.8054 16.6727 22.3131C15.4207 24.191 15.9215 27.0706 18.1313 30.382C18.693 31.218 19.3056 32.0186 19.9654 32.7796C19.3081 33.5366 18.6977 34.3331 18.1375 35.1646C15.9278 38.4823 15.4145 41.343 16.679 43.2335C17.5866 44.5919 19.3018 45.2993 21.6368 45.2993C22.6656 45.2896 23.6909 45.1784 24.6978 44.9675C25.1047 44.8861 25.5179 44.7859 25.9498 44.6733C27.4271 48.9049 29.7057 51.5591 32.2973 51.5591C34.8889 51.5591 37.1675 48.8924 38.6448 44.6733C39.2708 44.836 39.8968 44.9675 40.4727 45.0676C40.5784 45.6545 40.8902 46.1843 41.3518 46.5618C41.8134 46.9393 42.3946 47.1396 42.9908 47.1268C43.5869 47.114 44.159 46.8888 44.6039 46.4918C45.0488 46.0948 45.3375 45.5521 45.4179 44.9612C46.4284 44.7092 47.3161 44.1056 47.9219 43.2585C49.1739 41.3806 48.6731 38.5011 46.4633 35.1896C45.8899 34.3483 45.2648 33.5434 44.5916 32.7796ZM40.1096 21.8311C41.0337 21.6327 41.9752 21.5257 42.9203 21.5118C44.7982 21.5118 46.1817 22.0251 46.8452 23.0079C47.7967 24.4289 47.2646 26.864 45.3866 29.6872C44.8839 30.4338 44.3384 31.1507 43.7528 31.8343C42.6488 30.6631 41.4695 29.5653 40.2223 28.5479C40.0251 26.359 39.6206 24.1938 39.0141 22.0815C39.3772 22.0001 39.7465 21.9062 40.1096 21.8311ZM36.1158 38.5011C34.8776 39.3274 33.5967 40.088 32.2785 40.7796C30.9601 40.0883 29.6792 39.3278 28.4412 38.5011C27.4271 37.8187 26.4569 37.1114 25.5429 36.379C25.449 35.2084 25.3927 34.0315 25.3927 32.7796C25.3927 31.5276 25.449 30.3507 25.5492 29.1801C26.4631 28.4477 27.4271 27.7404 28.4475 27.0581C29.6837 26.2319 30.9625 25.4713 32.2785 24.7795C33.5971 25.4704 34.8781 26.231 36.1158 27.0581C37.1299 27.7404 38.1002 28.4477 39.0141 29.1801C39.108 30.3507 39.1644 31.5276 39.1644 32.7796C39.1644 34.0315 39.108 35.2084 39.0079 36.379C38.0939 37.1114 37.1236 37.8187 36.1158 38.5011ZM38.8263 38.1004C38.6134 39.7936 38.2702 41.4679 37.7997 43.1083C36.3815 42.6572 34.9968 42.107 33.6557 41.462C34.7136 40.8735 35.7715 40.21 36.7856 39.5277C37.5055 39.0707 38.1753 38.5887 38.8263 38.0942V38.1004ZM30.9139 41.4682C29.5712 42.1165 28.1843 42.6687 26.7636 43.1208C26.2931 41.4804 25.9499 39.8062 25.737 38.1129C26.363 38.6075 27.0578 39.0895 27.7526 39.559C28.7918 40.2413 29.8497 40.8798 30.9139 41.4682ZM24.2096 35.2835C23.3087 34.4945 22.4499 33.6587 21.6368 32.7796C22.4458 31.9007 23.3004 31.0649 24.1971 30.2756C24.1407 31.1082 24.1407 31.9345 24.1407 32.7796C24.1407 33.6246 24.1407 34.4509 24.2096 35.2835ZM25.7307 27.49C25.9457 25.7966 26.291 24.1223 26.7636 22.4821C28.1793 22.9369 29.5618 23.4891 30.9014 24.1347C29.8434 24.7231 28.7918 25.3867 27.7714 26.0627C27.0515 26.4884 26.3817 26.9704 25.7307 27.4649V27.49ZM33.6494 24.1159C34.9902 23.4701 36.375 22.9199 37.7934 22.4696C38.2639 24.11 38.6072 25.7842 38.8201 27.4775C38.1941 26.9829 37.4992 26.5009 36.8044 26.0314C35.7653 25.3178 34.7073 24.673 33.6494 24.0909V24.1159ZM40.3475 30.2756C41.2484 31.0646 42.1072 31.9004 42.9203 32.7796C42.1112 33.6584 41.2566 34.4942 40.36 35.2835C40.4038 34.4697 40.4288 33.6434 40.4288 32.7796C40.4288 31.9157 40.4163 31.1082 40.3475 30.2756ZM32.2785 15.252C34.2942 15.252 36.1408 17.5994 37.4116 21.2489C35.6447 21.8203 33.9278 22.5364 32.2785 23.3898C30.6287 22.5425 28.9119 21.8327 27.1454 21.2677C28.4162 17.5932 30.2628 15.252 32.2785 15.252ZM22.2628 19.6339C22.5104 19.6339 22.7524 19.7073 22.9583 19.8449C23.1642 19.9824 23.3247 20.178 23.4194 20.4067C23.5142 20.6355 23.539 20.8872 23.4907 21.1301C23.4424 21.3729 23.3231 21.596 23.148 21.7711C22.9729 21.9462 22.7499 22.0654 22.507 22.1138C22.2641 22.1621 22.0124 22.1373 21.7836 22.0425C21.5549 21.9477 21.3593 21.7873 21.2218 21.5814C21.0842 21.3755 21.0108 21.1335 21.0108 20.8858C21.0108 20.5538 21.1427 20.2354 21.3775 20.0006C21.6123 19.7658 21.9307 19.6339 22.2628 19.6339ZM19.1766 29.6997C17.2987 26.8765 16.7666 24.4477 17.7181 23.0204C18.2461 22.312 19.0301 21.838 19.9028 21.6996C20.0698 22.174 20.3757 22.5871 20.7808 22.8851C21.1859 23.1832 21.6713 23.3523 22.1739 23.3706C22.6765 23.3888 23.1729 23.2553 23.5985 22.9874C24.0241 22.7195 24.3592 22.3297 24.5601 21.8686C24.8856 21.9375 25.1861 22.0064 25.5429 22.0877C24.9364 24.2001 24.5319 26.3653 24.3348 28.5542C23.0876 29.5715 21.9082 30.6693 20.8042 31.8406C20.221 31.1588 19.6776 30.444 19.1766 29.6997ZM24.4474 43.728C21.1235 44.3978 18.6696 43.9659 17.7181 42.5387C16.7666 41.1114 17.2987 38.6826 19.1766 35.8594C19.6794 35.1128 20.2249 34.3959 20.8105 33.7123C21.9145 34.8835 23.0938 35.9813 24.341 36.9987C24.5382 39.1876 24.9427 41.3527 25.5492 43.4651C25.1798 43.559 24.8105 43.6529 24.4474 43.728ZM32.2785 50.3071C30.2628 50.3071 28.4162 47.9597 27.1454 44.3102C28.9124 43.7388 30.6292 43.0227 32.2785 42.1693C33.9274 43.0122 35.6419 43.7198 37.4053 44.2852C36.1408 47.9597 34.2942 50.3071 32.2785 50.3071ZM42.9203 45.9252C42.6727 45.9252 42.4306 45.8518 42.2247 45.7142C42.0188 45.5767 41.8584 45.3811 41.7636 45.1524C41.6688 44.9236 41.644 44.6719 41.6924 44.429C41.7407 44.1862 41.8599 43.9631 42.035 43.788C42.2101 43.6129 42.4332 43.4937 42.676 43.4454C42.9189 43.3971 43.1706 43.4218 43.3994 43.5166C43.6281 43.6114 43.8237 43.7718 43.9612 43.9777C44.0988 44.1836 44.1722 44.4257 44.1722 44.6733C44.1722 45.0053 44.0403 45.3238 43.8055 45.5585C43.5708 45.7933 43.2523 45.9252 42.9203 45.9252ZM46.8389 42.5387C46.4417 43.0895 45.8741 43.4943 45.2239 43.6905C45.0259 43.2333 44.696 42.8457 44.2765 42.577C43.857 42.3084 43.3668 42.171 42.8688 42.1824C42.3708 42.1938 41.8874 42.3536 41.4807 42.6412C41.0739 42.9288 40.7622 43.3312 40.5853 43.7969C40.0762 43.7093 39.5525 43.5966 39.0141 43.4589C39.618 41.3483 40.0205 39.1852 40.216 36.9987C41.4632 35.9813 42.6426 34.8835 43.7466 33.7123C44.3321 34.3959 44.8777 35.1128 45.3804 35.8594C47.2583 38.6826 47.7904 41.1177 46.8389 42.5387Z" fill="url(#svg1567740780_8946_paint1_linear_54671_142)"/>
<defs>
<filter id="svg1567740780_8946_filter0_d_54671_142" x="-16.2973" y="-12.6757" width="96.5946" height="96.5946" filterUnits="userSpaceOnUse" color-interpolation-filters="sRGB">
<feFlood flood-opacity="0" result="BackgroundImageFix"/>
<feColorMatrix in="SourceAlpha" type="matrix" values="0 0 0 0 0 0 0 0 0 0 0 0 0 0 0 0 0 0 127 0" result="hardAlpha"/>
<feMorphology radius="1.81081" operator="dilate" in="SourceAlpha" result="effect1_dropShadow_54671_142"/>
<feOffset dy="3.62162"/>
<feGaussianBlur stdDeviation="7.24324"/>
<feComposite in2="hardAlpha" operator="out"/>
<feColorMatrix type="matrix" values="0 0 0 0 0 0 0 0 0 0 0 0 0 0 0 0 0 0 0.08 0"/>
<feBlend mode="normal" in2="BackgroundImageFix" result="effect1_dropShadow_54671_142"/>
<feBlend mode="normal" in="SourceGraphic" in2="effect1_dropShadow_54671_142" result="shape"/>
</filter>
<linearGradient id="svg1567740780_8946_paint0_linear_54671_142" x1="24.2012" y1="25.9077" x2="37.4084" y2="36.4249" gradientUnits="userSpaceOnUse">
<stop offset="0.149" stop-color="#22C55E"/>
<stop offset="0.684" stop-color="#18763C"/>
</linearGradient>
<linearGradient id="svg1567740780_8946_paint1_linear_54671_142" x1="2.24915" y1="3.3298" x2="56.5743" y2="40.8722" gradientUnits="userSpaceOnUse">
<stop offset="0.149" stop-color="#22C55E"/>
<stop offset="0.684" stop-color="#18763C"/>
</linearGradient>
</defs>
</svg>