<svg xmlns="http://www.w3.org/2000/svg" width="306" height="233" viewBox="0 0 306 233" fill="none" id="svg-1435646304_36772">
<g clip-path="url(#svg-1435646304_36772_clip0_54646_1139)">
<g clip-path="url(#svg-1435646304_36772_clip1_54646_1139)">
<mask id="svg-1435646304_36772_mask0_54646_1139" style="mask-type:alpha" maskUnits="userSpaceOnUse" x="0" y="0" width="306" height="233">
<path d="M295.928 0H10.0808C4.57373 0 0.109375 4.46749 0.109375 9.97843V222.852C0.109375 228.363 4.57373 232.83 10.0808 232.83H295.928C301.435 232.83 305.899 228.363 305.899 222.852V9.97843C305.899 4.46749 301.435 0 295.928 0Z" fill="url(#svg-1435646304_36772_paint0_linear_54646_1139)"/>
</mask>
<g mask="url(#svg-1435646304_36772_mask0_54646_1139)">
<mask id="svg-1435646304_36772_mask1_54646_1139" style="mask-type:alpha" maskUnits="userSpaceOnUse" x="0" y="0" width="306" height="233">
<path d="M295.928 0H10.0808C4.57373 0 0.109375 4.46749 0.109375 9.97843V222.852C0.109375 228.363 4.57373 232.83 10.0808 232.83H295.928C301.435 232.83 305.899 228.363 305.899 222.852V9.97843C305.899 4.46749 301.435 0 295.928 0Z" fill="url(#svg-1435646304_36772_paint1_linear_54646_1139)"/>
</mask>
<g mask="url(#svg-1435646304_36772_mask1_54646_1139)">
<g filter="url(#svg-1435646304_36772_filter0_d_54646_1139)">
<path d="M269.337 103.942H36.6706C31.1636 103.942 26.6992 108.41 26.6992 113.921V278.565C26.6992 284.076 31.1636 288.543 36.6706 288.543H269.337C274.844 288.543 279.308 284.076 279.308 278.565V113.921C279.308 108.41 274.844 103.942 269.337 103.942Z" fill="white" fill-opacity="0.01"/>
<path d="M269.337 103.942H36.6706C31.1636 103.942 26.6992 108.41 26.6992 113.921V278.565C26.6992 284.076 31.1636 288.543 36.6706 288.543H269.337C274.844 288.543 279.308 284.076 279.308 278.565V113.921C279.308 108.41 274.844 103.942 269.337 103.942Z" fill="url(#svg-1435646304_36772_paint2_linear_54646_1139)" fill-opacity="0.01"/>
<path d="M269.337 104.358H36.6712C31.3936 104.358 27.1152 108.64 27.1152 113.921V278.565C27.1152 283.846 31.3936 288.128 36.6712 288.128H269.337C274.615 288.128 278.893 283.846 278.893 278.565V113.921C278.893 108.64 274.615 104.358 269.337 104.358Z" stroke="white" stroke-opacity="0.02"/>
<path d="M269.337 104.358H36.6712C31.3936 104.358 27.1152 108.64 27.1152 113.921V278.565C27.1152 283.846 31.3936 288.128 36.6712 288.128H269.337C274.615 288.128 278.893 283.846 278.893 278.565V113.921C278.893 108.64 274.615 104.358 269.337 104.358Z" stroke="url(#svg-1435646304_36772_paint3_linear_54646_1139)" stroke-opacity="0.04"/>
</g>
<g filter="url(#svg-1435646304_36772_filter1_d_54646_1139)">
<path d="M535.241 103.942H302.575C297.068 103.942 292.604 108.41 292.604 113.921V278.565C292.604 284.076 297.068 288.543 302.575 288.543H535.241C540.748 288.543 545.213 284.076 545.213 278.565V113.921C545.213 108.41 540.748 103.942 535.241 103.942Z" fill="white" fill-opacity="0.01"/>
<path d="M535.241 103.942H302.575C297.068 103.942 292.604 108.41 292.604 113.921V278.565C292.604 284.076 297.068 288.543 302.575 288.543H535.241C540.748 288.543 545.213 284.076 545.213 278.565V113.921C545.213 108.41 540.748 103.942 535.241 103.942Z" fill="url(#svg-1435646304_36772_paint4_linear_54646_1139)" fill-opacity="0.01"/>
<path d="M535.242 104.358H302.575C297.298 104.358 293.02 108.64 293.02 113.921V278.565C293.02 283.846 297.298 288.128 302.575 288.128H535.242C540.519 288.128 544.798 283.846 544.798 278.565V113.921C544.798 108.64 540.519 104.358 535.242 104.358Z" stroke="white" stroke-opacity="0.02"/>
<path d="M535.242 104.358H302.575C297.298 104.358 293.02 108.64 293.02 113.921V278.565C293.02 283.846 297.298 288.128 302.575 288.128H535.242C540.519 288.128 544.798 283.846 544.798 278.565V113.921C544.798 108.64 540.519 104.358 535.242 104.358Z" stroke="url(#svg-1435646304_36772_paint5_linear_54646_1139)" stroke-opacity="0.04"/>
</g>
<g filter="url(#svg-1435646304_36772_filter2_d_54646_1139)">
<path d="M36.6709 70.6807L269.337 70.6807C274.844 70.6807 279.309 66.2132 279.309 60.7022V-103.942C279.309 -109.453 274.844 -113.92 269.337 -113.92L36.6709 -113.92C31.1638 -113.92 26.6995 -109.453 26.6995 -103.942L26.6995 60.7022C26.6995 66.2132 31.1638 70.6807 36.6709 70.6807Z" fill="white" fill-opacity="0.01"/>
<path d="M36.6709 70.6807L269.337 70.6807C274.844 70.6807 279.309 66.2132 279.309 60.7022V-103.942C279.309 -109.453 274.844 -113.92 269.337 -113.92L36.6709 -113.92C31.1638 -113.92 26.6995 -109.453 26.6995 -103.942L26.6995 60.7022C26.6995 66.2132 31.1638 70.6807 36.6709 70.6807Z" fill="url(#svg-1435646304_36772_paint6_linear_54646_1139)" fill-opacity="0.04"/>
<path d="M36.6703 70.2656L269.337 70.2656C274.614 70.2656 278.893 65.9843 278.893 60.703V-103.941C278.893 -109.222 274.614 -113.504 269.337 -113.504L36.6703 -113.504C31.3927 -113.504 27.1144 -109.222 27.1144 -103.941L27.1144 60.703C27.1144 65.9843 31.3927 70.2656 36.6703 70.2656Z" stroke="white" stroke-opacity="0.02"/>
<path d="M36.6703 70.2656L269.337 70.2656C274.614 70.2656 278.893 65.9843 278.893 60.703V-103.941C278.893 -109.222 274.614 -113.504 269.337 -113.504L36.6703 -113.504C31.3927 -113.504 27.1144 -109.222 27.1144 -103.941L27.1144 60.703C27.1144 65.9843 31.3927 70.2656 36.6703 70.2656Z" stroke="url(#svg-1435646304_36772_paint7_linear_54646_1139)" stroke-opacity="0.04"/>
</g>
<g filter="url(#svg-1435646304_36772_filter3_d_54646_1139)">
<path d="M302.575 70.6807L535.241 70.6807C540.749 70.6807 545.213 66.2132 545.213 60.7022V-103.942C545.213 -109.453 540.749 -113.92 535.241 -113.92L302.575 -113.92C297.068 -113.92 292.604 -109.453 292.604 -103.942V60.7022C292.604 66.2132 297.068 70.6807 302.575 70.6807Z" fill="white" fill-opacity="0.01"/>
<path d="M302.575 70.6807L535.241 70.6807C540.749 70.6807 545.213 66.2132 545.213 60.7022V-103.942C545.213 -109.453 540.749 -113.92 535.241 -113.92L302.575 -113.92C297.068 -113.92 292.604 -109.453 292.604 -103.942V60.7022C292.604 66.2132 297.068 70.6807 302.575 70.6807Z" fill="url(#svg-1435646304_36772_paint8_linear_54646_1139)" fill-opacity="0.01"/>
<path d="M302.575 70.2656L535.241 70.2656C540.519 70.2656 544.797 65.9843 544.797 60.703V-103.941C544.797 -109.222 540.519 -113.504 535.241 -113.504L302.575 -113.504C297.297 -113.504 293.019 -109.222 293.019 -103.941V60.703C293.019 65.9843 297.297 70.2656 302.575 70.2656Z" stroke="white" stroke-opacity="0.02"/>
<path d="M302.575 70.2656L535.241 70.2656C540.519 70.2656 544.797 65.9843 544.797 60.703V-103.941C544.797 -109.222 540.519 -113.504 535.241 -113.504L302.575 -113.504C297.297 -113.504 293.019 -109.222 293.019 -103.941V60.703C293.019 65.9843 297.297 70.2656 302.575 70.2656Z" stroke="url(#svg-1435646304_36772_paint9_linear_54646_1139)" stroke-opacity="0.04"/>
</g>
<g filter="url(#svg-1435646304_36772_filter4_d_54646_1139)">
<path d="M3.43265 103.942H-229.234C-234.741 103.942 -239.205 108.41 -239.205 113.921V278.565C-239.205 284.076 -234.741 288.543 -229.234 288.543H3.43265C8.9397 288.543 13.4041 284.076 13.4041 278.565V113.921C13.4041 108.41 8.9397 103.942 3.43265 103.942Z" fill="white" fill-opacity="0.01"/>
<path d="M3.43265 103.942H-229.234C-234.741 103.942 -239.205 108.41 -239.205 113.921V278.565C-239.205 284.076 -234.741 288.543 -229.234 288.543H3.43265C8.9397 288.543 13.4041 284.076 13.4041 278.565V113.921C13.4041 108.41 8.9397 103.942 3.43265 103.942Z" fill="url(#svg-1435646304_36772_paint10_linear_54646_1139)" fill-opacity="0.01"/>
<path d="M3.43318 104.358H-229.233C-234.511 104.358 -238.789 108.64 -238.789 113.921V278.565C-238.789 283.846 -234.511 288.128 -229.233 288.128H3.43318C8.71078 288.128 12.9891 283.846 12.9891 278.565V113.921C12.9891 108.64 8.71078 104.358 3.43318 104.358Z" stroke="white" stroke-opacity="0.02"/>
<path d="M3.43318 104.358H-229.233C-234.511 104.358 -238.789 108.64 -238.789 113.921V278.565C-238.789 283.846 -234.511 288.128 -229.233 288.128H3.43318C8.71078 288.128 12.9891 283.846 12.9891 278.565V113.921C12.9891 108.64 8.71078 104.358 3.43318 104.358Z" stroke="url(#svg-1435646304_36772_paint11_linear_54646_1139)" stroke-opacity="0.04"/>
</g>
<g filter="url(#svg-1435646304_36772_filter5_d_54646_1139)">
<path d="M-229.233 70.6807L3.43288 70.6807C8.93994 70.6807 13.4043 66.2132 13.4043 60.7022L13.4043 -103.942C13.4043 -109.453 8.93994 -113.92 3.43288 -113.92L-229.233 -113.92C-234.74 -113.92 -239.205 -109.453 -239.205 -103.942L-239.205 60.7022C-239.205 66.2132 -234.74 70.6807 -229.233 70.6807Z" fill="white" fill-opacity="0.01"/>
<path d="M-229.233 70.6807L3.43288 70.6807C8.93994 70.6807 13.4043 66.2132 13.4043 60.7022L13.4043 -103.942C13.4043 -109.453 8.93994 -113.92 3.43288 -113.92L-229.233 -113.92C-234.74 -113.92 -239.205 -109.453 -239.205 -103.942L-239.205 60.7022C-239.205 66.2132 -234.74 70.6807 -229.233 70.6807Z" fill="url(#svg-1435646304_36772_paint12_linear_54646_1139)" fill-opacity="0.01"/>
<path d="M-229.234 70.2656L3.43234 70.2656C8.70994 70.2656 12.9883 65.9843 12.9883 60.703L12.9883 -103.941C12.9883 -109.222 8.70994 -113.504 3.43234 -113.504L-229.234 -113.504C-234.512 -113.504 -238.79 -109.222 -238.79 -103.941L-238.79 60.703C-238.79 65.9843 -234.512 70.2656 -229.234 70.2656Z" stroke="white" stroke-opacity="0.02"/>
<path d="M-229.234 70.2656L3.43234 70.2656C8.70994 70.2656 12.9883 65.9843 12.9883 60.703L12.9883 -103.941C12.9883 -109.222 8.70994 -113.504 3.43234 -113.504L-229.234 -113.504C-234.512 -113.504 -238.79 -109.222 -238.79 -103.941L-238.79 60.703C-238.79 65.9843 -234.512 70.2656 -229.234 70.2656Z" stroke="url(#svg-1435646304_36772_paint13_linear_54646_1139)" stroke-opacity="0.04"/>
</g>
<path d="M39.995 -33.2607V13.3053C39.995 20.6535 45.9471 26.6098 53.2902 26.6098H153.004M153.004 26.6098H252.719C260.062 26.6098 266.014 20.6535 266.014 13.3053V-33.2607M153.004 26.6098V166.308M0.109375 87.7277H305.899" stroke="url(#svg-1435646304_36772_paint14_linear_54646_1139)" stroke-opacity="0.12"/>
<g filter="url(#svg-1435646304_36772_filter6_d_54646_1139)">
<path d="M236.1 156.329H69.9095C67.156 156.329 64.9238 158.563 64.9238 161.318V181.275C64.9238 184.031 67.156 186.264 69.9095 186.264H236.1C238.853 186.264 241.085 184.031 241.085 181.275V161.318C241.085 158.563 238.853 156.329 236.1 156.329Z" fill="white" fill-opacity="0.02"/>
<path d="M236.1 156.329H69.9095C67.156 156.329 64.9238 158.563 64.9238 161.318V181.275C64.9238 184.031 67.156 186.264 69.9095 186.264H236.1C238.853 186.264 241.085 184.031 241.085 181.275V161.318C241.085 158.563 238.853 156.329 236.1 156.329Z" fill="url(#svg-1435646304_36772_paint15_linear_54646_1139)" fill-opacity="0.04"/>
<path d="M90.6839 178.78V164.644C90.6839 164.423 90.5963 164.212 90.4405 164.056C90.2847 163.9 90.0733 163.812 89.8529 163.812H83.2053C82.9849 163.812 82.7736 163.9 82.6178 164.056C82.4619 164.212 82.3744 164.423 82.3744 164.644V178.78M82.3744 168.802H79.0506C78.8302 168.802 78.6188 168.889 78.463 169.045C78.3072 169.201 78.2196 169.413 78.2196 169.633V178.78M94.8386 178.78V169.633C94.8386 169.413 94.7511 169.201 94.5953 169.045C94.4394 168.889 94.2281 168.802 94.0077 168.802H90.6839M84.4518 175.454H88.6065M87.7756 175.454V178.78M85.2827 178.78V175.454M84.8672 170.049H88.191M84.8672 172.544H88.191M84.8672 167.554H88.191M80.7125 172.544H82.3744M80.7125 175.454H82.3744M90.6839 172.544H92.3458M90.6839 175.454H92.3458M95.6696 178.78H77.3887" stroke="url(#svg-1435646304_36772_paint16_linear_54646_1139)" stroke-width="1.5" stroke-linecap="round" stroke-linejoin="round"/>
<path d="M236.1 156.745H69.9101C67.386 156.745 65.3398 158.793 65.3398 161.319V181.275C65.3398 183.801 67.386 185.849 69.9101 185.849H236.1C238.624 185.849 240.671 183.801 240.671 181.275V161.319C240.671 158.793 238.624 156.745 236.1 156.745Z" stroke="white" stroke-opacity="0.05"/>
<path d="M236.1 156.745H69.9101C67.386 156.745 65.3398 158.793 65.3398 161.319V181.275C65.3398 183.801 67.386 185.849 69.9101 185.849H236.1C238.624 185.849 240.671 183.801 240.671 181.275V161.319C240.671 158.793 238.624 156.745 236.1 156.745Z" stroke="url(#svg-1435646304_36772_paint17_linear_54646_1139)" stroke-opacity="0.16"/>
</g>
<g filter="url(#svg-1435646304_36772_filter7_d_54646_1139)">
<path d="M231.114 46.5664H74.8952C69.3882 46.5664 64.9238 51.0339 64.9238 56.5448V124.731C64.9238 130.242 69.3882 134.709 74.8952 134.709H231.114C236.621 134.709 241.085 130.242 241.085 124.731V56.5448C241.085 51.0339 236.621 46.5664 231.114 46.5664Z" fill="white" fill-opacity="0.01"/>
<path d="M231.114 46.5664H74.8952C69.3882 46.5664 64.9238 51.0339 64.9238 56.5448V124.731C64.9238 130.242 69.3882 134.709 74.8952 134.709H231.114C236.621 134.709 241.085 130.242 241.085 124.731V56.5448C241.085 51.0339 236.621 46.5664 231.114 46.5664Z" fill="url(#svg-1435646304_36772_paint18_linear_54646_1139)" fill-opacity="0.04"/>
<path d="M226.128 76.502H79.8804C78.0448 76.502 76.5566 77.9911 76.5566 79.8281V119.742C76.5566 121.579 78.0448 123.068 79.8804 123.068H226.128C227.964 123.068 229.452 121.579 229.452 119.742V79.8281C229.452 77.9911 227.964 76.502 226.128 76.502Z" fill="white" fill-opacity="0.04"/>
<path d="M90.638 96.1926C89.7938 96.1926 89.0476 96.077 88.4003 95.8458C87.753 95.618 87.207 95.2812 86.7642 94.8338C86.3254 94.3906 85.9922 93.8443 85.7645 93.1965C85.5377 92.5488 85.4238 91.8079 85.4238 90.9738C85.4238 90.1673 85.5393 89.4447 85.7703 88.8085C85.9835 88.2 86.3266 87.6452 86.7758 87.1829C87.227 86.7279 87.7744 86.3801 88.3779 86.1651C89.0061 85.9306 89.7182 85.8125 90.5134 85.8125C91.2862 85.8125 91.9634 85.9397 92.5467 86.1933C93.1033 86.4223 93.6034 86.7696 94.0125 87.2111C94.401 87.6307 94.7021 88.1234 94.8983 88.6605C95.0953 89.1952 95.1942 89.7465 95.1942 90.3144C95.1942 90.7127 95.175 91.116 95.1368 91.5252C95.1045 91.9114 95.0224 92.2918 94.8925 92.6569C94.7679 92.9978 94.5768 93.2722 94.3192 93.4809C94.0616 93.6896 93.7134 93.7936 93.2738 93.7936C93.0844 93.7936 92.8725 93.7628 92.6381 93.7029C92.4147 93.6461 92.2056 93.5433 92.0241 93.4011C91.9365 93.3329 91.8634 93.2481 91.8087 93.1514C91.7541 93.0548 91.7191 92.9484 91.7058 92.8382H91.661C91.5909 93.0019 91.4927 93.1522 91.3709 93.2822C91.2278 93.428 91.0557 93.5421 90.8657 93.6173C90.6613 93.7046 90.4129 93.7478 90.1212 93.7478C89.6218 93.7478 89.2013 93.6231 88.8606 93.3728C88.5167 93.114 88.2529 92.7632 88.0995 92.3608C87.9291 91.9326 87.8436 91.452 87.8436 90.9173C87.8436 90.4134 87.9441 89.9627 88.1444 89.5644C88.3339 89.1795 88.6221 88.8518 88.9795 88.6148C89.3374 88.3819 89.7566 88.2612 90.1835 88.268C90.555 88.268 90.8599 88.3362 91.0984 88.4726C91.341 88.6056 91.5089 88.7378 91.6036 88.8709H91.661V88.4044H92.5359V92.1446C92.5359 92.3758 92.5999 92.5812 92.7287 92.7592C92.8575 92.9329 93.047 93.0203 93.2971 93.0203C93.5771 93.0203 93.7907 92.9238 93.9386 92.7309C94.0898 92.5371 94.192 92.2394 94.2452 91.8378C94.3017 91.4362 94.3308 90.9206 94.3308 90.292C94.3308 89.9203 94.2793 89.5569 94.1771 89.2002C94.0797 88.8423 93.9284 88.5013 93.7284 88.189C93.5235 87.8694 93.2639 87.5884 92.9614 87.3592C92.6365 87.1067 92.2693 86.9141 91.877 86.7904C91.464 86.654 90.9945 86.5858 90.4677 86.5858C89.8204 86.5858 89.2412 86.6864 88.7294 86.8868C88.2353 87.0765 87.7906 87.3759 87.4289 87.7625C87.0611 88.1615 86.7823 88.6343 86.6113 89.1495C86.4251 89.6949 86.3329 90.3144 86.3329 91.0079C86.3329 91.7089 86.4251 92.3326 86.6113 92.8781C86.7999 93.4244 87.0766 93.8842 87.4405 94.2592C87.8078 94.6351 88.2599 94.9186 88.7975 95.1124C89.3393 95.3095 89.9641 95.4076 90.6721 95.4076C90.9719 95.4081 91.271 95.3777 91.5646 95.317C91.8274 95.2682 92.0871 95.2037 92.3423 95.124L92.8309 94.976L93.0578 95.7377C92.8916 95.8059 92.6722 95.8741 92.3988 95.9423C92.1109 96.017 91.8191 96.0759 91.5247 96.1186C91.2315 96.1663 90.9351 96.1911 90.638 96.1926ZM90.1495 92.9072C90.5209 92.9072 90.82 92.8332 91.0477 92.6851C91.2779 92.5338 91.4449 92.3076 91.5471 92.0083C91.6535 91.7056 91.7058 91.3264 91.7058 90.8716C91.7058 90.4092 91.6477 90.0492 91.5305 89.7914C91.4166 89.5303 91.2463 89.3482 91.0186 89.2459C90.7951 89.1403 90.5167 89.0871 90.1835 89.0871C89.8736 89.0871 89.606 89.1702 89.3833 89.3374C89.1575 89.5032 88.9806 89.727 88.8714 89.9851C88.7519 90.2652 88.6919 90.5671 88.6953 90.8716C88.6953 91.2241 88.7426 91.5559 88.8374 91.8669C88.9321 92.1737 89.0858 92.4232 89.2977 92.617C89.5096 92.8099 89.7938 92.9072 90.1495 92.9072Z" fill="white" fill-opacity="0.5"/>
<path d="M90.638 116.15C89.7938 116.15 89.0476 116.034 88.4003 115.803C87.753 115.575 87.207 115.238 86.7642 114.791C86.3254 114.348 85.9922 113.801 85.7645 113.154C85.5377 112.506 85.4238 111.765 85.4238 110.931C85.4238 110.124 85.5393 109.402 85.7703 108.766C85.9835 108.157 86.3266 107.602 86.7758 107.14C87.227 106.685 87.7744 106.337 88.3779 106.122C89.0061 105.888 89.7182 105.77 90.5134 105.77C91.2862 105.77 91.9634 105.897 92.5467 106.15C93.1033 106.379 93.6034 106.727 94.0125 107.168C94.401 107.588 94.7021 108.08 94.8983 108.618C95.0953 109.152 95.1942 109.704 95.1942 110.271C95.1942 110.67 95.175 111.073 95.1368 111.482C95.1045 111.868 95.0224 112.249 94.8925 112.614C94.7679 112.955 94.5768 113.229 94.3192 113.438C94.0616 113.647 93.7134 113.751 93.2738 113.751C93.0844 113.751 92.8725 113.72 92.6381 113.66C92.4147 113.603 92.2056 113.5 92.0241 113.358C91.9365 113.29 91.8634 113.205 91.8087 113.108C91.7541 113.012 91.7191 112.905 91.7058 112.795H91.661C91.5909 112.959 91.4927 113.109 91.3709 113.239C91.2278 113.385 91.0557 113.499 90.8657 113.574C90.6613 113.662 90.4129 113.705 90.1212 113.705C89.6218 113.705 89.2013 113.58 88.8606 113.33C88.5167 113.071 88.2529 112.72 88.0995 112.318C87.9291 111.89 87.8436 111.409 87.8436 110.874C87.8436 110.37 87.9441 109.92 88.1444 109.521C88.3339 109.137 88.6221 108.809 88.9795 108.572C89.3374 108.339 89.7566 108.218 90.1835 108.225C90.555 108.225 90.8599 108.293 91.0984 108.43C91.341 108.563 91.5089 108.695 91.6036 108.828H91.661V108.361H92.5359V112.102C92.5359 112.333 92.5999 112.538 92.7287 112.716C92.8575 112.89 93.047 112.977 93.2971 112.977C93.5771 112.977 93.7907 112.881 93.9386 112.688C94.0898 112.494 94.192 112.196 94.2452 111.795C94.3017 111.393 94.3308 110.878 94.3308 110.249C94.3308 109.877 94.2793 109.514 94.1771 109.157C94.0797 108.799 93.9284 108.458 93.7284 108.146C93.5235 107.826 93.2639 107.545 92.9614 107.316C92.6365 107.064 92.2693 106.871 91.877 106.747C91.464 106.611 90.9945 106.543 90.4677 106.543C89.8204 106.543 89.2412 106.643 88.7294 106.844C88.2353 107.034 87.7906 107.333 87.4289 107.719C87.0611 108.119 86.7823 108.591 86.6113 109.106C86.4251 109.652 86.3329 110.271 86.3329 110.965C86.3329 111.666 86.4251 112.29 86.6113 112.835C86.7999 113.381 87.0766 113.841 87.4405 114.216C87.8078 114.592 88.2599 114.876 88.7975 115.069C89.3393 115.266 89.9641 115.365 90.6721 115.365C90.9719 115.365 91.271 115.335 91.5646 115.274C91.8274 115.225 92.0871 115.161 92.3423 115.081L92.8309 114.933L93.0578 115.695C92.8916 115.763 92.6722 115.831 92.3988 115.899C92.1109 115.974 91.8191 116.033 91.5247 116.076C91.2315 116.123 90.9351 116.148 90.638 116.15ZM90.1495 112.864C90.5209 112.864 90.82 112.79 91.0477 112.642C91.2779 112.491 91.4449 112.265 91.5471 111.965C91.6535 111.663 91.7058 111.283 91.7058 110.829C91.7058 110.366 91.6477 110.006 91.5305 109.748C91.4166 109.487 91.2463 109.305 91.0186 109.203C90.7951 109.097 90.5167 109.044 90.1835 109.044C89.8736 109.044 89.606 109.127 89.3833 109.294C89.1575 109.46 88.9806 109.684 88.8714 109.942C88.7519 110.222 88.6919 110.524 88.6953 110.829C88.6953 111.181 88.7426 111.513 88.8374 111.824C88.9321 112.131 89.0858 112.38 89.2977 112.574C89.5096 112.767 89.7938 112.864 90.1495 112.864Z" fill="white" fill-opacity="0.5"/>
<path d="M226.128 76.917H79.881C78.2748 76.917 76.9727 78.22 76.9727 79.8274V119.741C76.9727 121.348 78.2748 122.651 79.881 122.651H226.128C227.735 122.651 229.037 121.348 229.037 119.741V79.8274C229.037 78.22 227.735 76.917 226.128 76.917Z" stroke="white" stroke-opacity="0.05"/>
<path d="M231.115 46.9824H74.8958C69.6182 46.9824 65.3398 51.2638 65.3398 56.5451V124.731C65.3398 130.012 69.6182 134.294 74.8958 134.294H231.115C236.392 134.294 240.671 130.012 240.671 124.731V56.5451C240.671 51.2638 236.392 46.9824 231.115 46.9824Z" stroke="white" stroke-opacity="0.05"/>
<path d="M231.115 46.9824H74.8958C69.6182 46.9824 65.3398 51.2638 65.3398 56.5451V124.731C65.3398 130.012 69.6182 134.294 74.8958 134.294H231.115C236.392 134.294 240.671 130.012 240.671 124.731V56.5451C240.671 51.2638 236.392 46.9824 231.115 46.9824Z" stroke="url(#svg-1435646304_36772_paint19_linear_54646_1139)" stroke-opacity="0.16"/>
</g>
<path d="M28.3605 94.3798C32.0319 94.3798 35.0081 91.4014 35.0081 87.7275C35.0081 84.0535 32.0319 81.0752 28.3605 81.0752C24.6891 81.0752 21.7129 84.0535 21.7129 87.7275C21.7129 91.4014 24.6891 94.3798 28.3605 94.3798Z" fill="white" fill-opacity="0.01"/>
<path d="M28.361 93.9642C31.803 93.9642 34.5932 91.1721 34.5932 87.7277C34.5932 84.2834 31.803 81.4912 28.361 81.4912C24.9191 81.4912 22.1289 84.2834 22.1289 87.7277C22.1289 91.1721 24.9191 93.9642 28.361 93.9642Z" stroke="white" stroke-opacity="0.12"/>
<path d="M277.646 94.3798C281.317 94.3798 284.293 91.4014 284.293 87.7275C284.293 84.0535 281.317 81.0752 277.646 81.0752C273.974 81.0752 270.998 84.0535 270.998 87.7275C270.998 91.4014 273.974 94.3798 277.646 94.3798Z" fill="white" fill-opacity="0.01"/>
<path d="M277.646 93.9642C281.088 93.9642 283.878 91.1721 283.878 87.7277C283.878 84.2834 281.088 81.4912 277.646 81.4912C274.204 81.4912 271.414 84.2834 271.414 87.7277C271.414 91.1721 274.204 93.9642 277.646 93.9642Z" stroke="white" stroke-opacity="0.12"/>
<path d="M48.3043 91.0537C50.14 91.0537 51.6281 89.5645 51.6281 87.7275C51.6281 85.8905 50.14 84.4014 48.3043 84.4014C46.4686 84.4014 44.9805 85.8905 44.9805 87.7275C44.9805 89.5645 46.4686 91.0537 48.3043 91.0537Z" fill="white" fill-opacity="0.01"/>
<path d="M48.3048 90.6381C49.911 90.6381 51.2131 89.3351 51.2131 87.7278C51.2131 86.1204 49.911 84.8174 48.3048 84.8174C46.6986 84.8174 45.3965 86.1204 45.3965 87.7278C45.3965 89.3351 46.6986 90.6381 48.3048 90.6381Z" stroke="white" stroke-opacity="0.32"/>
<path d="M153.003 29.9355C154.839 29.9355 156.327 28.4463 156.327 26.6093C156.327 24.7724 154.839 23.2832 153.003 23.2832C151.168 23.2832 149.68 24.7724 149.68 26.6093C149.68 28.4463 151.168 29.9355 153.003 29.9355Z" fill="white" fill-opacity="0.01"/>
<path d="M153.004 29.52C154.61 29.52 155.912 28.2169 155.912 26.6096C155.912 25.0022 154.61 23.6992 153.004 23.6992C151.398 23.6992 150.096 25.0022 150.096 26.6096C150.096 28.2169 151.398 29.52 153.004 29.52Z" stroke="white" stroke-opacity="0.32"/>
<path d="M153.003 49.8925C154.839 49.8925 156.327 48.4034 156.327 46.5664C156.327 44.7294 154.839 43.2402 153.003 43.2402C151.168 43.2402 149.68 44.7294 149.68 46.5664C149.68 48.4034 151.168 49.8925 153.003 49.8925Z" fill="white" fill-opacity="0.01"/>
<path d="M153.004 49.477C154.61 49.477 155.912 48.174 155.912 46.5666C155.912 44.9593 154.61 43.6562 153.004 43.6562C151.398 43.6562 150.096 44.9593 150.096 46.5666C150.096 48.174 151.398 49.477 153.004 49.477Z" stroke="white" stroke-opacity="0.32"/>
<path d="M153.003 137.204C154.839 137.204 156.327 135.715 156.327 133.878C156.327 132.041 154.839 130.552 153.003 130.552C151.168 130.552 149.68 132.041 149.68 133.878C149.68 135.715 151.168 137.204 153.003 137.204Z" fill="white" fill-opacity="0.01"/>
<path d="M153.004 136.789C154.61 136.789 155.912 135.486 155.912 133.878C155.912 132.271 154.61 130.968 153.004 130.968C151.398 130.968 150.096 132.271 150.096 133.878C150.096 135.486 151.398 136.789 153.004 136.789Z" stroke="white" stroke-opacity="0.32"/>
<path d="M153.003 159.655C154.839 159.655 156.327 158.166 156.327 156.329C156.327 154.492 154.839 153.003 153.003 153.003C151.168 153.003 149.68 154.492 149.68 156.329C149.68 158.166 151.168 159.655 153.003 159.655Z" fill="white" fill-opacity="0.01"/>
<path d="M153.004 159.24C154.61 159.24 155.912 157.937 155.912 156.329C155.912 154.722 154.61 153.419 153.004 153.419C151.398 153.419 150.096 154.722 150.096 156.329C150.096 157.937 151.398 159.24 153.004 159.24Z" stroke="white" stroke-opacity="0.32"/>
<path d="M297.589 91.0537C299.425 91.0537 300.913 89.5645 300.913 87.7275C300.913 85.8905 299.425 84.4014 297.589 84.4014C295.754 84.4014 294.266 85.8905 294.266 87.7275C294.266 89.5645 295.754 91.0537 297.589 91.0537Z" fill="white" fill-opacity="0.01"/>
<path d="M297.59 90.6381C299.196 90.6381 300.498 89.3351 300.498 87.7278C300.498 86.1204 299.196 84.8174 297.59 84.8174C295.984 84.8174 294.682 86.1204 294.682 87.7278C294.682 89.3351 295.984 90.6381 297.59 90.6381Z" stroke="white" stroke-opacity="0.32"/>
<path d="M28.3609 91.0537C30.1966 91.0537 31.6847 89.5645 31.6847 87.7275C31.6847 85.8905 30.1966 84.4014 28.3609 84.4014C26.5252 84.4014 25.0371 85.8905 25.0371 87.7275C25.0371 89.5645 26.5252 91.0537 28.3609 91.0537Z" fill="white" fill-opacity="0.01"/>
<path d="M28.3615 90.6381C29.9677 90.6381 31.2698 89.3351 31.2698 87.7278C31.2698 86.1204 29.9677 84.8174 28.3615 84.8174C26.7552 84.8174 25.4531 86.1204 25.4531 87.7278C25.4531 89.3351 26.7552 90.6381 28.3615 90.6381Z" stroke="white" stroke-opacity="0.32"/>
<path d="M277.646 91.0537C279.482 91.0537 280.97 89.5645 280.97 87.7275C280.97 85.8905 279.482 84.4014 277.646 84.4014C275.81 84.4014 274.322 85.8905 274.322 87.7275C274.322 89.5645 275.81 91.0537 277.646 91.0537Z" fill="white" fill-opacity="0.01"/>
<path d="M277.647 90.6381C279.253 90.6381 280.555 89.3351 280.555 87.7278C280.555 86.1204 279.253 84.8174 277.647 84.8174C276.04 84.8174 274.738 86.1204 274.738 87.7278C274.738 89.3351 276.04 90.6381 277.647 90.6381Z" stroke="white" stroke-opacity="0.32"/>
<path d="M8.41755 91.0537C10.2532 91.0537 11.7414 89.5645 11.7414 87.7275C11.7414 85.8905 10.2532 84.4014 8.41755 84.4014C6.58187 84.4014 5.09375 85.8905 5.09375 87.7275C5.09375 89.5645 6.58187 91.0537 8.41755 91.0537Z" fill="white" fill-opacity="0.01"/>
<path d="M8.41809 90.6381C10.0243 90.6381 11.3264 89.3351 11.3264 87.7278C11.3264 86.1204 10.0243 84.8174 8.41809 84.8174C6.81187 84.8174 5.50977 86.1204 5.50977 87.7278C5.50977 89.3351 6.81187 90.6381 8.41809 90.6381Z" stroke="white" stroke-opacity="0.32"/>
<path d="M257.703 91.0537C259.538 91.0537 261.027 89.5645 261.027 87.7275C261.027 85.8905 259.538 84.4014 257.703 84.4014C255.867 84.4014 254.379 85.8905 254.379 87.7275C254.379 89.5645 255.867 91.0537 257.703 91.0537Z" fill="white" fill-opacity="0.01"/>
<path d="M257.703 90.6381C259.309 90.6381 260.612 89.3351 260.612 87.7278C260.612 86.1204 259.309 84.8174 257.703 84.8174C256.097 84.8174 254.795 86.1204 254.795 87.7278C254.795 89.3351 256.097 90.6381 257.703 90.6381Z" stroke="white" stroke-opacity="0.32"/>
</g>
</g>
</g>
</g>
<defs>
<filter id="svg-1435646304_36772_filter0_d_54646_1139" x="-5.38477" y="87.8584" width="316.777" height="248.77" filterUnits="userSpaceOnUse" color-interpolation-filters="sRGB">
<feFlood flood-opacity="0" result="BackgroundImageFix"/>
<feColorMatrix in="SourceAlpha" type="matrix" values="0 0 0 0 0 0 0 0 0 0 0 0 0 0 0 0 0 0 127 0" result="hardAlpha"/>
<feOffset dy="16"/>
<feGaussianBlur stdDeviation="16"/>
<feComposite in2="hardAlpha" operator="out"/>
<feColorMatrix type="matrix" values="0 0 0 0 0 0 0 0 0 0 0 0 0 0 0 0 0 0 0.12 0"/>
<feBlend mode="normal" in2="BackgroundImageFix" result="effect1_dropShadow_54646_1139"/>
<feBlend mode="normal" in="SourceGraphic" in2="effect1_dropShadow_54646_1139" result="shape"/>
</filter>
<filter id="svg-1435646304_36772_filter1_d_54646_1139" x="260.52" y="87.8584" width="316.777" height="248.77" filterUnits="userSpaceOnUse" color-interpolation-filters="sRGB">
<feFlood flood-opacity="0" result="BackgroundImageFix"/>
<feColorMatrix in="SourceAlpha" type="matrix" values="0 0 0 0 0 0 0 0 0 0 0 0 0 0 0 0 0 0 127 0" result="hardAlpha"/>
<feOffset dy="16"/>
<feGaussianBlur stdDeviation="16"/>
<feComposite in2="hardAlpha" operator="out"/>
<feColorMatrix type="matrix" values="0 0 0 0 0 0 0 0 0 0 0 0 0 0 0 0 0 0 0.12 0"/>
<feBlend mode="normal" in2="BackgroundImageFix" result="effect1_dropShadow_54646_1139"/>
<feBlend mode="normal" in="SourceGraphic" in2="effect1_dropShadow_54646_1139" result="shape"/>
</filter>
<filter id="svg-1435646304_36772_filter2_d_54646_1139" x="-5.38477" y="-130.004" width="316.777" height="248.77" filterUnits="userSpaceOnUse" color-interpolation-filters="sRGB">
<feFlood flood-opacity="0" result="BackgroundImageFix"/>
<feColorMatrix in="SourceAlpha" type="matrix" values="0 0 0 0 0 0 0 0 0 0 0 0 0 0 0 0 0 0 127 0" result="hardAlpha"/>
<feOffset dy="16"/>
<feGaussianBlur stdDeviation="16"/>
<feComposite in2="hardAlpha" operator="out"/>
<feColorMatrix type="matrix" values="0 0 0 0 0 0 0 0 0 0 0 0 0 0 0 0 0 0 0.12 0"/>
<feBlend mode="normal" in2="BackgroundImageFix" result="effect1_dropShadow_54646_1139"/>
<feBlend mode="normal" in="SourceGraphic" in2="effect1_dropShadow_54646_1139" result="shape"/>
</filter>
<filter id="svg-1435646304_36772_filter3_d_54646_1139" x="260.52" y="-130.004" width="316.777" height="248.77" filterUnits="userSpaceOnUse" color-interpolation-filters="sRGB">
<feFlood flood-opacity="0" result="BackgroundImageFix"/>
<feColorMatrix in="SourceAlpha" type="matrix" values="0 0 0 0 0 0 0 0 0 0 0 0 0 0 0 0 0 0 127 0" result="hardAlpha"/>
<feOffset dy="16"/>
<feGaussianBlur stdDeviation="16"/>
<feComposite in2="hardAlpha" operator="out"/>
<feColorMatrix type="matrix" values="0 0 0 0 0 0 0 0 0 0 0 0 0 0 0 0 0 0 0.12 0"/>
<feBlend mode="normal" in2="BackgroundImageFix" result="effect1_dropShadow_54646_1139"/>
<feBlend mode="normal" in="SourceGraphic" in2="effect1_dropShadow_54646_1139" result="shape"/>
</filter>
<filter id="svg-1435646304_36772_filter4_d_54646_1139" x="-271.289" y="87.8584" width="316.777" height="248.77" filterUnits="userSpaceOnUse" color-interpolation-filters="sRGB">
<feFlood flood-opacity="0" result="BackgroundImageFix"/>
<feColorMatrix in="SourceAlpha" type="matrix" values="0 0 0 0 0 0 0 0 0 0 0 0 0 0 0 0 0 0 127 0" result="hardAlpha"/>
<feOffset dy="16"/>
<feGaussianBlur stdDeviation="16"/>
<feComposite in2="hardAlpha" operator="out"/>
<feColorMatrix type="matrix" values="0 0 0 0 0 0 0 0 0 0 0 0 0 0 0 0 0 0 0.12 0"/>
<feBlend mode="normal" in2="BackgroundImageFix" result="effect1_dropShadow_54646_1139"/>
<feBlend mode="normal" in="SourceGraphic" in2="effect1_dropShadow_54646_1139" result="shape"/>
</filter>
<filter id="svg-1435646304_36772_filter5_d_54646_1139" x="-271.289" y="-130.004" width="316.777" height="248.77" filterUnits="userSpaceOnUse" color-interpolation-filters="sRGB">
<feFlood flood-opacity="0" result="BackgroundImageFix"/>
<feColorMatrix in="SourceAlpha" type="matrix" values="0 0 0 0 0 0 0 0 0 0 0 0 0 0 0 0 0 0 127 0" result="hardAlpha"/>
<feOffset dy="16"/>
<feGaussianBlur stdDeviation="16"/>
<feComposite in2="hardAlpha" operator="out"/>
<feColorMatrix type="matrix" values="0 0 0 0 0 0 0 0 0 0 0 0 0 0 0 0 0 0 0.12 0"/>
<feBlend mode="normal" in2="BackgroundImageFix" result="effect1_dropShadow_54646_1139"/>
<feBlend mode="normal" in="SourceGraphic" in2="effect1_dropShadow_54646_1139" result="shape"/>
</filter>
<filter id="svg-1435646304_36772_filter6_d_54646_1139" x="32.8398" y="140.245" width="240.33" height="94.1035" filterUnits="userSpaceOnUse" color-interpolation-filters="sRGB">
<feFlood flood-opacity="0" result="BackgroundImageFix"/>
<feColorMatrix in="SourceAlpha" type="matrix" values="0 0 0 0 0 0 0 0 0 0 0 0 0 0 0 0 0 0 127 0" result="hardAlpha"/>
<feOffset dy="16"/>
<feGaussianBlur stdDeviation="16"/>
<feComposite in2="hardAlpha" operator="out"/>
<feColorMatrix type="matrix" values="0 0 0 0 0 0 0 0 0 0 0 0 0 0 0 0 0 0 0.12 0"/>
<feBlend mode="normal" in2="BackgroundImageFix" result="effect1_dropShadow_54646_1139"/>
<feBlend mode="normal" in="SourceGraphic" in2="effect1_dropShadow_54646_1139" result="shape"/>
</filter>
<filter id="svg-1435646304_36772_filter7_d_54646_1139" x="32.8398" y="30.4824" width="240.33" height="152.312" filterUnits="userSpaceOnUse" color-interpolation-filters="sRGB">
<feFlood flood-opacity="0" result="BackgroundImageFix"/>
<feColorMatrix in="SourceAlpha" type="matrix" values="0 0 0 0 0 0 0 0 0 0 0 0 0 0 0 0 0 0 127 0" result="hardAlpha"/>
<feOffset dy="16"/>
<feGaussianBlur stdDeviation="16"/>
<feComposite in2="hardAlpha" operator="out"/>
<feColorMatrix type="matrix" values="0 0 0 0 0 0 0 0 0 0 0 0 0 0 0 0 0 0 0.12 0"/>
<feBlend mode="normal" in2="BackgroundImageFix" result="effect1_dropShadow_54646_1139"/>
<feBlend mode="normal" in="SourceGraphic" in2="effect1_dropShadow_54646_1139" result="shape"/>
</filter>
<linearGradient id="svg-1435646304_36772_paint0_linear_54646_1139" x1="0.109375" y1="116.415" x2="313.378" y2="116.415" gradientUnits="userSpaceOnUse">
<stop stop-color="#D9D9D9" stop-opacity="0"/>
<stop offset="0.25" stop-color="#D9D9D9"/>
<stop offset="0.5" stop-color="#D9D9D9"/>
<stop offset="0.75" stop-color="#D9D9D9"/>
<stop offset="1" stop-color="#D9D9D9" stop-opacity="0"/>
</linearGradient>
<linearGradient id="svg-1435646304_36772_paint1_linear_54646_1139" x1="153.004" y1="0" x2="153.004" y2="232.83" gradientUnits="userSpaceOnUse">
<stop stop-color="#D9D9D9" stop-opacity="0"/>
<stop offset="0.25" stop-color="#D9D9D9"/>
<stop offset="0.5" stop-color="#D9D9D9"/>
<stop offset="0.75" stop-color="#D9D9D9"/>
<stop offset="1" stop-color="#D9D9D9" stop-opacity="0"/>
</linearGradient>
<linearGradient id="svg-1435646304_36772_paint2_linear_54646_1139" x1="153.004" y1="103.942" x2="153.004" y2="288.543" gradientUnits="userSpaceOnUse">
<stop stop-color="white"/>
<stop offset="0.328" stop-color="white" stop-opacity="0.24"/>
</linearGradient>
<linearGradient id="svg-1435646304_36772_paint3_linear_54646_1139" x1="142.234" y1="103.943" x2="142.234" y2="330.079" gradientUnits="userSpaceOnUse">
<stop stop-color="white"/>
<stop offset="1" stop-color="white" stop-opacity="0"/>
</linearGradient>
<linearGradient id="svg-1435646304_36772_paint4_linear_54646_1139" x1="418.908" y1="103.942" x2="418.908" y2="288.543" gradientUnits="userSpaceOnUse">
<stop stop-color="white"/>
<stop offset="0.328" stop-color="white" stop-opacity="0.24"/>
</linearGradient>
<linearGradient id="svg-1435646304_36772_paint5_linear_54646_1139" x1="408.139" y1="103.943" x2="408.139" y2="330.079" gradientUnits="userSpaceOnUse">
<stop stop-color="white"/>
<stop offset="1" stop-color="white" stop-opacity="0"/>
</linearGradient>
<linearGradient id="svg-1435646304_36772_paint6_linear_54646_1139" x1="153.004" y1="70.6807" x2="153.004" y2="-113.92" gradientUnits="userSpaceOnUse">
<stop stop-color="white"/>
<stop offset="0.328" stop-color="white" stop-opacity="0.24"/>
</linearGradient>
<linearGradient id="svg-1435646304_36772_paint7_linear_54646_1139" x1="162.942" y1="69.8499" x2="162.942" y2="-156.286" gradientUnits="userSpaceOnUse">
<stop stop-color="white"/>
<stop offset="1" stop-color="white" stop-opacity="0"/>
</linearGradient>
<linearGradient id="svg-1435646304_36772_paint8_linear_54646_1139" x1="418.908" y1="70.6807" x2="418.908" y2="-113.92" gradientUnits="userSpaceOnUse">
<stop stop-color="white"/>
<stop offset="0.328" stop-color="white" stop-opacity="0.24"/>
</linearGradient>
<linearGradient id="svg-1435646304_36772_paint9_linear_54646_1139" x1="428.847" y1="69.8499" x2="428.847" y2="-156.286" gradientUnits="userSpaceOnUse">
<stop stop-color="white"/>
<stop offset="1" stop-color="white" stop-opacity="0"/>
</linearGradient>
<linearGradient id="svg-1435646304_36772_paint10_linear_54646_1139" x1="-112.901" y1="103.942" x2="-112.901" y2="288.543" gradientUnits="userSpaceOnUse">
<stop stop-color="white"/>
<stop offset="0.328" stop-color="white" stop-opacity="0.24"/>
</linearGradient>
<linearGradient id="svg-1435646304_36772_paint11_linear_54646_1139" x1="-123.67" y1="103.943" x2="-123.67" y2="330.079" gradientUnits="userSpaceOnUse">
<stop stop-color="white"/>
<stop offset="1" stop-color="white" stop-opacity="0"/>
</linearGradient>
<linearGradient id="svg-1435646304_36772_paint12_linear_54646_1139" x1="-112.9" y1="70.6807" x2="-112.9" y2="-113.92" gradientUnits="userSpaceOnUse">
<stop stop-color="white"/>
<stop offset="0.328" stop-color="white" stop-opacity="0.24"/>
</linearGradient>
<linearGradient id="svg-1435646304_36772_paint13_linear_54646_1139" x1="-102.962" y1="69.8499" x2="-102.962" y2="-156.286" gradientUnits="userSpaceOnUse">
<stop stop-color="white"/>
<stop offset="1" stop-color="white" stop-opacity="0"/>
</linearGradient>
<linearGradient id="svg-1435646304_36772_paint14_linear_54646_1139" x1="153.004" y1="-10.8093" x2="153.004" y2="166.308" gradientUnits="userSpaceOnUse">
<stop stop-color="white" stop-opacity="0"/>
<stop offset="0.255" stop-color="white"/>
<stop offset="0.91" stop-color="white" stop-opacity="0.81"/>
<stop offset="1" stop-color="white" stop-opacity="0"/>
</linearGradient>
<linearGradient id="svg-1435646304_36772_paint15_linear_54646_1139" x1="153.005" y1="156.329" x2="153.005" y2="186.264" gradientUnits="userSpaceOnUse">
<stop stop-color="white"/>
<stop offset="0.328" stop-color="white" stop-opacity="0.24"/>
</linearGradient>
<linearGradient id="svg-1435646304_36772_paint16_linear_54646_1139" x1="74.4803" y1="157.576" x2="95.6893" y2="187.081" gradientUnits="userSpaceOnUse">
<stop stop-color="white"/>
<stop offset="1" stop-color="white" stop-opacity="0"/>
</linearGradient>
<linearGradient id="svg-1435646304_36772_paint17_linear_54646_1139" x1="145.494" y1="156.329" x2="145.494" y2="193" gradientUnits="userSpaceOnUse">
<stop stop-color="white"/>
<stop offset="1" stop-color="white" stop-opacity="0"/>
</linearGradient>
<linearGradient id="svg-1435646304_36772_paint18_linear_54646_1139" x1="153.005" y1="46.5664" x2="153.005" y2="134.709" gradientUnits="userSpaceOnUse">
<stop stop-color="white"/>
<stop offset="0.328" stop-color="white" stop-opacity="0.24"/>
</linearGradient>
<linearGradient id="svg-1435646304_36772_paint19_linear_54646_1139" x1="145.494" y1="46.5667" x2="145.494" y2="154.542" gradientUnits="userSpaceOnUse">
<stop stop-color="white"/>
<stop offset="1" stop-color="white" stop-opacity="0"/>
</linearGradient>
<clipPath id="svg-1435646304_36772_clip0_54646_1139">
<rect width="306" height="232.83" fill="white"/>
</clipPath>
<clipPath id="svg-1435646304_36772_clip1_54646_1139">
<rect width="305.79" height="232.83" fill="white" transform="translate(0.109375)"/>
</clipPath>
</defs>
</svg>