<svg xmlns="http://www.w3.org/2000/svg" width="13" height="15" viewBox="0 0 13 15" fill="none" id="svg-203303759_951">
<path d="M11.9727 5.65802C11.8963 5.45012 11.7249 5.31467 11.5337 5.31113L6.28385 5.2166L7.17725 1.29645C7.23565 1.03601 7.13646 0.76281 6.93734 0.635716C6.73822 0.508622 6.49108 0.560763 6.33964 0.761821L0.323896 8.80788C0.196809 8.97821 0.164258 9.22034 0.24051 9.42812C0.316761 9.63591 0.487903 9.77145 0.678919 9.77532L5.92877 9.86985L5.03538 13.79C4.97617 14.0509 5.07536 14.3251 5.27503 14.4525C5.3435 14.4969 5.42013 14.5206 5.49826 14.5217C5.6411 14.524 5.77796 14.452 5.87299 14.3246L11.8887 6.27857C12.0161 6.10833 12.0489 5.86603 11.9727 5.65802Z" fill="url(#svg-203303759_951_paint0_linear_54646_855)"/>
<defs>
<linearGradient id="svg-203303759_951_paint0_linear_54646_855" x1="-4.54397" y1="-3.60663" x2="15.2152" y2="10.13" gradientUnits="userSpaceOnUse">
<stop offset="0.149" stop-color="#22C55E"/>
<stop offset="0.684" stop-color="#18763C"/>
</linearGradient>
</defs>
</svg>