<svg xmlns="http://www.w3.org/2000/svg" width="64" height="64" viewBox="0 0 64 64" fill="none" id="svg700436924_20871">
<g filter="url(#svg700436924_20871_filter0_d_54671_141)">
<rect width="64" height="64" rx="32" fill="white" fill-opacity="0.03" shape-rendering="crispEdges"/>
</g>
<path d="M31.8638 18.4388C31.9744 18.4388 32.0805 18.3953 32.1587 18.318C32.2369 18.2406 32.2808 18.1358 32.2808 18.0264V16.4124C32.2808 16.303 32.2369 16.1981 32.1587 16.1208C32.0805 16.0434 31.9744 16 31.8638 16C31.7531 16 31.647 16.0434 31.5688 16.1208C31.4906 16.1981 31.4467 16.303 31.4467 16.4124V18.0256C31.4466 18.0798 31.4573 18.1335 31.4782 18.1836C31.4991 18.2338 31.5298 18.2793 31.5685 18.3177C31.6073 18.3561 31.6533 18.3865 31.7039 18.4073C31.7546 18.4281 31.8089 18.4388 31.8638 18.4388ZM22.0386 22.5743C22.1211 22.5743 22.2017 22.5501 22.2703 22.5047C22.3389 22.4594 22.3923 22.395 22.4239 22.3196C22.4554 22.2443 22.4637 22.1613 22.4475 22.0814C22.4314 22.0014 22.3917 21.9279 22.3333 21.8702L21.1797 20.7285C21.101 20.6534 20.9956 20.6118 20.8863 20.6128C20.7769 20.6137 20.6723 20.6571 20.595 20.7335C20.5176 20.81 20.4738 20.9134 20.4728 21.0216C20.4719 21.1297 20.5139 21.2338 20.5899 21.3116L21.7436 22.4522C21.7822 22.4908 21.8281 22.5214 21.8788 22.5423C21.9294 22.5633 21.9837 22.5741 22.0386 22.5743ZM18.0487 31.5423H16.4171C16.3065 31.5423 16.2004 31.5857 16.1222 31.6631C16.0439 31.7404 16 31.8453 16 31.9546C16 32.064 16.0439 32.1689 16.1222 32.2462C16.2004 32.3236 16.3065 32.367 16.4171 32.367H18.0487C18.1593 32.367 18.2654 32.3236 18.3437 32.2462C18.4219 32.1689 18.4658 32.064 18.4658 31.9546C18.4658 31.8453 18.4219 31.7404 18.3437 31.6631C18.2654 31.5857 18.1593 31.5423 18.0487 31.5423ZM21.9368 41.377L20.7829 42.5179C20.7069 42.5957 20.6649 42.6999 20.6658 42.808C20.6668 42.9161 20.7106 43.0196 20.788 43.096C20.8653 43.1725 20.9699 43.2158 21.0793 43.2168C21.1886 43.2177 21.294 43.1761 21.3726 43.101L22.5266 41.9601C22.5664 41.9221 22.5982 41.8766 22.62 41.8263C22.6419 41.776 22.6534 41.7219 22.6539 41.6671C22.6544 41.6124 22.6438 41.5581 22.6228 41.5074C22.6019 41.4567 22.5709 41.4107 22.5317 41.3719C22.4926 41.3332 22.446 41.3026 22.3948 41.2819C22.3435 41.2611 22.2886 41.2507 22.2332 41.2512C22.1778 41.2516 22.1231 41.263 22.0722 41.2846C22.0213 41.3062 21.9753 41.3377 21.9368 41.377ZM42.2564 41.1863C42.1778 41.1111 42.0724 41.0696 41.9631 41.0705C41.8537 41.0715 41.7491 41.1148 41.6718 41.1913C41.5944 41.2677 41.5506 41.3712 41.5496 41.4793C41.5487 41.5874 41.5907 41.6916 41.6667 41.7694L42.8203 42.9102C42.8591 42.9485 42.9051 42.9789 42.9557 42.9996C43.0063 43.0203 43.0605 43.031 43.1153 43.031C43.1701 43.031 43.2243 43.0203 43.2749 42.9995C43.3255 42.9788 43.3715 42.9484 43.4102 42.9101C43.449 42.8718 43.4797 42.8263 43.5006 42.7763C43.5216 42.7262 43.5324 42.6726 43.5323 42.6185C43.5323 42.5643 43.5215 42.5107 43.5006 42.4606C43.4796 42.4106 43.4488 42.3652 43.4101 42.3269L42.2564 41.1863ZM47.5829 31.2726H45.9513C45.8407 31.2726 45.7346 31.316 45.6563 31.3934C45.5781 31.4707 45.5342 31.5756 45.5342 31.6849C45.5342 31.7943 45.5781 31.8992 45.6563 31.9765C45.7346 32.0539 45.8407 32.0973 45.9513 32.0973H47.5829C47.6935 32.0973 47.7996 32.0539 47.8778 31.9765C47.9561 31.8992 48 31.7943 48 31.6849C48 31.5756 47.9561 31.4707 47.8778 31.3934C47.7996 31.316 47.6935 31.2726 47.5829 31.2726ZM42.0632 22.2625L43.2171 21.1219C43.2931 21.0442 43.3351 20.94 43.3342 20.8319C43.3332 20.7237 43.2894 20.6203 43.212 20.5439C43.1347 20.4674 43.0301 20.424 42.9207 20.4231C42.8114 20.4222 42.706 20.4637 42.6274 20.5388L41.4734 21.6795C41.4336 21.7175 41.4018 21.763 41.38 21.8133C41.3581 21.8636 41.3466 21.9177 41.3461 21.9725C41.3456 22.0272 41.3562 22.0815 41.3772 22.1322C41.3981 22.1829 41.4291 22.2289 41.4683 22.2677C41.5074 22.3064 41.554 22.337 41.6052 22.3577C41.6565 22.3785 41.7114 22.3889 41.7668 22.3884C41.8222 22.3879 41.8769 22.3766 41.9278 22.355C41.9787 22.3333 42.0247 22.3019 42.0632 22.2625ZM39.0557 25.1379C39.0001 25.1379 38.9445 25.1423 38.8908 25.1461C38.8719 25.1461 38.8525 25.1461 38.8335 25.1491C38.7877 25.1533 38.7432 25.1607 38.6981 25.1676C38.6684 25.172 38.6383 25.1755 38.6089 25.181C38.5672 25.189 38.5255 25.1995 38.4851 25.2085C38.4537 25.2162 38.4223 25.2234 38.3914 25.2322C38.3525 25.2434 38.3144 25.2566 38.276 25.2698C38.2446 25.2808 38.2129 25.2918 38.1818 25.3039C38.1456 25.3182 38.11 25.3336 38.0744 25.3498C38.043 25.3641 38.0116 25.379 37.9807 25.3944C37.9499 25.4098 37.9146 25.4287 37.882 25.4471C37.8495 25.4656 37.8197 25.484 37.7892 25.5021C37.7586 25.5203 37.7291 25.5401 37.6999 25.5604C37.6707 25.5808 37.6376 25.6058 37.607 25.6291C37.5809 25.6492 37.5545 25.669 37.5292 25.6899C37.5231 25.6951 37.5164 25.6995 37.5103 25.7047C37.5031 25.6375 37.4925 25.5708 37.4786 25.5046C37.4772 25.498 37.4766 25.4914 37.4755 25.4851V25.4779C37.468 25.434 37.4552 25.3955 37.4444 25.3542C37.4371 25.3267 37.4316 25.2992 37.4235 25.2718C37.4213 25.2643 37.4199 25.2553 37.4177 25.2478C37.379 25.1222 37.3287 25.0005 37.2672 24.8841L37.2628 24.8748C37.2531 24.8564 37.2456 24.8371 37.235 24.8198C37.2008 24.7582 37.1658 24.7005 37.1402 24.6642C37.1166 24.6251 37.0902 24.5877 37.0612 24.5523C37.0534 24.5413 37.0445 24.5317 37.0365 24.521L37.0328 24.5166C36.9912 24.4615 36.9465 24.4088 36.8991 24.3585L36.8938 24.3574C36.8746 24.337 36.8549 24.3145 36.8363 24.2972C36.8176 24.2799 36.8015 24.2658 36.7843 24.2493C36.7615 24.2279 36.7387 24.2065 36.715 24.1858C36.6983 24.1715 36.6828 24.154 36.6658 24.1408L36.6527 24.13L36.6486 24.1262C36.6316 24.1119 36.6146 24.1025 36.5977 24.0893C36.5807 24.0762 36.5626 24.0638 36.5451 24.0509C36.5198 24.033 36.4948 24.0113 36.4692 23.9959C36.455 23.986 36.4386 23.978 36.4242 23.9684C36.4097 23.9588 36.3889 23.9469 36.3711 23.9365C36.3274 23.909 36.2824 23.8845 36.2354 23.8606C36.2137 23.8496 36.1914 23.8397 36.1695 23.8293C36.1397 23.8153 36.1116 23.7999 36.0805 23.7867C36.0691 23.7817 36.0549 23.7779 36.0432 23.7729C36.0154 23.7617 35.986 23.7515 35.957 23.7413C35.9281 23.7311 35.9014 23.7193 35.8706 23.7094C35.8656 23.7078 35.8561 23.7047 35.8466 23.7023C35.8372 23.6998 35.8252 23.6962 35.8144 23.6929H35.8116C35.7608 23.6773 35.7092 23.6643 35.657 23.6539C35.6487 23.6517 35.6309 23.6489 35.6167 23.6465C35.3115 23.5851 34.997 23.5845 34.6916 23.6448C34.6721 23.6487 34.6532 23.6542 34.6338 23.6583C34.5829 23.6696 34.5323 23.6811 34.4825 23.6957C34.4464 23.7061 34.4113 23.7188 34.3757 23.7309C34.3446 23.7416 34.3129 23.752 34.282 23.7638C34.2398 23.7806 34.1986 23.799 34.1569 23.8188C34.1338 23.8296 34.1107 23.8397 34.0882 23.851C34.0457 23.8722 34.0048 23.895 33.9634 23.9186C33.9414 23.9313 33.9194 23.9442 33.8977 23.9577C33.8605 23.981 33.8238 24.0049 33.7879 24.0302C33.7601 24.05 33.7323 24.0709 33.7045 24.0918C33.6767 24.1127 33.6517 24.1325 33.6261 24.154C33.6169 24.1619 33.6066 24.1688 33.5983 24.1768C33.5552 23.8193 33.429 23.4766 33.2296 23.1754C33.0303 22.8743 32.7631 22.6228 32.4491 22.4407C32.4146 22.4198 32.3795 22.3995 32.3437 22.3805C32.332 22.3747 32.3217 22.3667 32.31 22.3612C32.2928 22.3516 32.2775 22.3469 32.2603 22.3381C32.2288 22.323 32.1974 22.3085 32.1652 22.2947C32.144 22.2856 32.1198 22.2722 32.1001 22.2647C32.0804 22.2573 32.0609 22.2524 32.042 22.2452C32.0189 22.237 31.9958 22.2298 31.9725 22.2221C31.9491 22.2144 31.9191 22.2021 31.8891 22.1946C31.8708 22.1889 31.8522 22.1842 31.8334 22.1803C31.8123 22.1748 31.7906 22.171 31.7695 22.166C31.7484 22.1611 31.7211 22.154 31.6969 22.1504C31.6543 22.1395 31.6107 22.1322 31.5668 22.1287C31.5323 22.1232 31.4964 22.1196 31.4633 22.1168C31.4583 22.1168 31.4514 22.1168 31.4461 22.1168C31.4355 22.1168 31.425 22.1138 31.4144 22.113C31.3991 22.113 31.3838 22.113 31.3685 22.113C31.3129 22.1094 31.2545 22.1089 31.1914 22.1102C31.1636 22.1102 31.1338 22.1133 31.1049 22.1149C31.076 22.1166 31.0532 22.1149 31.0268 22.119C31.0185 22.119 31.0098 22.119 31.0015 22.121C30.9756 22.1237 30.9528 22.1278 30.9281 22.1311L30.8933 22.1358C30.8714 22.1391 30.8477 22.1413 30.8269 22.1452L30.8094 22.1487C30.7835 22.1531 30.7601 22.1584 30.741 22.163C30.6788 22.1756 30.6173 22.1914 30.5569 22.2106C30.4977 22.2275 30.4394 22.2474 30.3823 22.2702C30.3614 22.2771 30.3419 22.2851 30.3091 22.2991C30.2763 22.3131 30.2416 22.3315 30.2079 22.348L30.1779 22.3626C30.1579 22.3731 30.1365 22.3816 30.1167 22.3923C30.07 22.4176 30.0227 22.4473 29.9713 22.4784H29.9693C29.9465 22.4929 29.9249 22.5058 29.8984 22.5243C29.8578 22.5518 29.8197 22.5792 29.7858 22.6084C29.7705 22.6202 29.7555 22.6323 29.7402 22.6447L29.6921 22.6804C29.6863 22.6851 29.669 22.7008 29.6643 22.7057L29.6663 22.7079L29.6429 22.7282H29.6412C29.6229 22.7442 29.6037 22.7623 29.5834 22.7832C29.5803 22.7865 29.5767 22.789 29.5737 22.792C29.5706 22.7951 29.5659 22.8006 29.562 22.8044L29.5375 22.8289C29.5008 22.8679 29.4641 22.9075 29.4263 22.9496C29.4163 22.9609 29.407 22.9728 29.3985 22.9853C29.376 23.0128 29.3532 23.0427 29.3281 23.0771L29.3073 23.1046L29.3053 23.1074L29.2831 23.1406C29.2698 23.1607 29.2553 23.1821 29.2411 23.2058C29.186 23.2924 29.1368 23.3825 29.0937 23.4755C29.084 23.4964 29.0743 23.5175 29.0634 23.5417C29.0615 23.5469 29.0601 23.5519 29.0579 23.5571C29.0033 23.6873 28.961 23.8223 28.9314 23.9601C28.9314 23.9659 28.928 23.9714 28.9266 23.9772C28.9252 23.983 28.9266 23.9846 28.925 23.9882C28.913 24.0489 28.9027 24.1102 28.8955 24.1721C28.8896 24.1669 28.883 24.1628 28.8771 24.1578C28.8713 24.1529 28.8604 24.1424 28.8493 24.1336C28.7976 24.0913 28.7448 24.0511 28.7014 24.0236L28.6908 24.0165C28.6872 24.0143 28.6822 24.0104 28.6789 24.0082C28.6197 23.9664 28.5576 23.9287 28.4931 23.8953L28.477 23.8865H28.4751C28.408 23.8495 28.339 23.8159 28.2685 23.7858C28.1233 23.7255 27.9725 23.6795 27.8183 23.6484C27.6457 23.6131 27.4695 23.5977 27.2933 23.6025C27.2677 23.6025 27.2419 23.6063 27.216 23.6077C27.1902 23.6091 27.1718 23.6093 27.1498 23.6121C27.1395 23.6121 27.1329 23.6137 27.1237 23.6143C27.0945 23.6168 27.0653 23.617 27.0361 23.6206C26.9969 23.6256 26.9588 23.6341 26.9202 23.641C26.9085 23.6426 26.8971 23.644 26.8851 23.6462C26.8679 23.6481 26.8508 23.6514 26.834 23.6558H26.8312C26.8106 23.6605 26.7909 23.6663 26.7706 23.6715L26.7447 23.6781C26.7325 23.6808 26.7216 23.6849 26.71 23.688C26.6346 23.7089 26.5603 23.7336 26.4875 23.7619C26.4597 23.7724 26.4291 23.782 26.4041 23.793C26.338 23.8208 26.2738 23.8527 26.2117 23.8884C26.1972 23.8961 26.1875 23.9043 26.1739 23.9118C26.1224 23.9414 26.0715 23.9722 26.0226 24.0058C26.0204 24.0074 26.017 24.0088 26.0148 24.0107C25.9723 24.0382 25.9336 24.0707 25.8936 24.1012C25.8844 24.1086 25.8744 24.1149 25.8658 24.1223C25.4102 24.4783 25.1067 24.9907 25.0157 25.5577C25.0135 25.5703 25.0121 25.5832 25.0102 25.5959C25.0046 25.6333 24.9968 25.6701 24.9932 25.708C24.9907 25.7229 24.9893 25.7355 24.9882 25.749C24.9882 25.757 24.9865 25.766 24.9857 25.7743L24.9843 25.7875C24.9782 25.8402 24.9754 25.8933 24.9757 25.9464V25.9722C24.9757 25.9843 24.974 25.9962 24.974 26.008V28.8734C24.9701 28.8734 24.9665 28.8767 24.9624 28.8781C24.8695 28.9073 24.7786 28.9426 24.6904 28.9836C24.6626 28.9966 24.6348 29.0092 24.607 29.023C24.5239 29.0648 24.4437 29.1119 24.3668 29.164C24.3437 29.1797 24.3223 29.1967 24.3 29.2132C24.2362 29.2601 24.1751 29.3104 24.1168 29.3638C24.099 29.3801 24.0804 29.3952 24.0634 29.412C23.9961 29.4784 23.9334 29.5491 23.8754 29.6236C23.8587 29.6445 23.8426 29.666 23.8268 29.6877C23.7688 29.7661 23.7163 29.8482 23.6694 29.9335C23.6624 29.9461 23.6572 29.961 23.6505 29.9722C23.608 30.0544 23.5709 30.1392 23.5393 30.226C23.5326 30.2441 23.5254 30.2614 23.5192 30.281C23.4875 30.3772 23.4626 30.4755 23.4447 30.5751C23.4408 30.5963 23.438 30.6177 23.4347 30.6395C23.418 30.7449 23.4092 30.8514 23.4083 30.9581V35.2374C23.4089 36.5175 23.7941 37.7686 24.515 38.8319C25.236 39.8952 26.2602 40.7228 27.4576 41.2096V47.5876C27.4576 47.697 27.5016 47.8019 27.5798 47.8792C27.658 47.9566 27.7641 48 27.8747 48H36.9472C37.0578 48 37.1639 47.9566 37.2421 47.8792C37.3203 47.8019 37.3643 47.697 37.3643 47.5876V41.3144C38.605 40.5428 39.628 39.4734 40.3382 38.2058C41.0484 36.9381 41.4227 35.5135 41.4262 34.0643V27.4812C41.4262 26.8599 41.1766 26.264 40.7322 25.8245C40.2879 25.3851 39.6853 25.1381 39.0568 25.1379H39.0557ZM32.5283 28.7808H29.7144V24.4454C29.7141 24.3455 29.7234 24.2458 29.7422 24.1476C29.7561 24.0895 29.7736 24.0323 29.7947 23.9764C29.8072 23.9381 29.8156 23.8994 29.8303 23.8623C29.8666 23.7772 29.9108 23.6956 29.9621 23.6184C29.9668 23.6113 29.971 23.6041 29.976 23.5973V23.5959C30.0297 23.5173 30.0904 23.4437 30.1576 23.3759L30.1673 23.3663C30.1951 23.3388 30.2229 23.3144 30.2538 23.2899L30.3136 23.2418C30.3414 23.2195 30.3728 23.1975 30.4034 23.1775C30.4262 23.1626 30.4498 23.15 30.4735 23.1359C30.5013 23.1197 30.5291 23.1027 30.5569 23.0881H30.5588C30.6014 23.0672 30.6447 23.0491 30.689 23.0331C30.6995 23.029 30.7098 23.0249 30.7212 23.021C30.749 23.0103 30.7804 23.0021 30.8102 22.9935C30.8399 22.985 30.8694 22.977 30.8989 22.9704C30.9378 22.9616 30.9767 22.9531 31.0165 22.9474L31.029 22.9457C31.1331 22.9317 31.2384 22.9277 31.3432 22.9339H31.3607C31.4548 22.9409 31.5479 22.9568 31.6388 22.9814L31.6463 22.9834C31.7375 23.0088 31.826 23.043 31.9105 23.0854L31.9149 23.0876C32.178 23.2248 32.3978 23.431 32.5503 23.6835C32.7028 23.9361 32.782 24.2252 32.7794 24.5193V28.811C32.6971 28.7917 32.6129 28.7815 32.5283 28.7808ZM25.811 28.7808V25.9871C25.8112 25.7082 25.8853 25.4343 26.026 25.1926C26.1667 24.9509 26.3691 24.75 26.6129 24.6098L26.6151 24.6084C26.6905 24.5673 26.7693 24.5327 26.8506 24.505C26.8595 24.5023 26.8687 24.499 26.8785 24.4957H26.8812C26.957 24.472 27.0345 24.4546 27.1131 24.4434C27.128 24.4403 27.143 24.4382 27.1582 24.4371C27.166 24.4371 27.1743 24.4371 27.1821 24.4349C27.1976 24.4346 27.2131 24.4333 27.2285 24.4311C27.2839 24.4249 27.3397 24.4235 27.3954 24.4267C27.4179 24.4267 27.4407 24.4267 27.4629 24.4286C27.5237 24.4333 27.5841 24.4412 27.6439 24.4525C27.6631 24.4564 27.6818 24.4619 27.6996 24.4665C27.7349 24.4751 27.771 24.483 27.803 24.494C27.835 24.505 27.8708 24.5174 27.9042 24.5303C27.9156 24.535 27.9287 24.5386 27.9398 24.5432C27.9509 24.5479 27.9543 24.5498 27.9612 24.5531C27.989 24.5658 28.0188 24.5806 28.0471 24.5946L28.0877 24.6158L28.108 24.6271C28.1467 24.6491 28.1848 24.6724 28.2218 24.698L28.2326 24.7057C28.2696 24.7318 28.3052 24.7607 28.3402 24.7898C28.3558 24.8033 28.37 24.8173 28.3841 24.8294C28.4119 24.8553 28.4397 24.8816 28.4676 24.9097C28.4765 24.9196 28.487 24.9314 28.499 24.9457C28.5218 24.9715 28.5443 24.9979 28.5652 25.0254L28.5754 25.0381C28.586 25.0526 28.5957 25.0678 28.6063 25.0826C28.6255 25.1101 28.645 25.1376 28.6619 25.1667C28.6647 25.1711 28.6669 25.1758 28.6697 25.1802L28.6753 25.1893C28.721 25.2688 28.7594 25.3523 28.7901 25.4386C28.7945 25.4504 28.7993 25.4617 28.8034 25.4741C28.8358 25.5724 28.8578 25.6737 28.8693 25.7765C28.8693 25.7812 28.8693 25.7856 28.8693 25.7902C28.8744 25.8408 28.8774 25.8914 28.8774 25.9425C28.8774 25.9453 28.8774 25.9478 28.8774 25.9505V28.7821L25.811 28.7808ZM33.6189 30.4926C33.6517 30.2999 33.6689 30.105 33.6703 29.9096C33.6688 29.8022 33.6514 29.6956 33.6189 29.5931V25.9409C33.6189 25.9346 33.6189 25.9285 33.6189 25.9222C33.6201 25.7756 33.6429 25.6299 33.6867 25.4898V25.4865C33.7159 25.395 33.7537 25.3065 33.7996 25.222L33.8115 25.2014C33.8307 25.1676 33.8508 25.1346 33.8724 25.1024C33.8761 25.0972 33.8794 25.0917 33.8833 25.0862C33.9064 25.0526 33.9311 25.0202 33.957 24.9886C33.96 24.985 33.962 24.9817 33.9653 24.9779C33.9851 24.9548 34.0026 24.9358 34.024 24.9144C34.0307 24.9078 34.0418 24.8957 34.0476 24.8888L34.0696 24.8665C34.1392 24.7968 34.2155 24.734 34.2976 24.679C34.3015 24.6766 34.3054 24.6746 34.309 24.6722C34.3875 24.6204 34.4708 24.5762 34.5579 24.5402C34.5629 24.538 34.5681 24.5366 34.5731 24.5344C34.757 24.4614 34.9534 24.424 35.1515 24.4245C35.193 24.4238 35.2344 24.4261 35.2755 24.4313C35.2881 24.4333 35.3009 24.4346 35.3136 24.4352C35.3239 24.4352 35.3339 24.4371 35.3442 24.4377C35.3756 24.4399 35.4069 24.4445 35.4376 24.4514C35.4457 24.4531 35.4538 24.4542 35.4618 24.4553C35.7642 24.518 36.0403 24.6696 36.254 24.8902C36.2942 24.9304 36.3314 24.9735 36.3652 25.0191C36.4229 25.0933 36.4735 25.1725 36.5165 25.2558C36.5532 25.3251 36.5837 25.3974 36.6077 25.4719C36.6581 25.6234 36.6838 25.7819 36.6839 25.9414V27.4823C36.6839 27.4851 36.6839 27.4878 36.6839 27.4906V31.2759C36.6762 31.6755 36.5093 32.056 36.2194 32.3346C35.9296 32.6133 35.5402 32.7676 35.1359 32.7639C34.7317 32.7603 34.3452 32.5991 34.0605 32.3153C33.7758 32.0315 33.6159 31.6481 33.6155 31.2484L33.6189 30.4926ZM37.5214 31.2759C37.5214 31.2668 37.5214 31.2583 37.5214 31.2484V27.4535C37.527 27.0793 37.6723 26.7203 37.9293 26.4456C38.1864 26.1709 38.5371 25.9998 38.914 25.9653C39.291 25.9308 39.6675 26.0353 39.9712 26.2586C40.2749 26.482 40.4844 26.8084 40.5595 27.1753C40.5802 27.2756 40.5906 27.3777 40.5906 27.4801V32.7898C40.5906 33.1923 40.4289 33.5783 40.141 33.8629C39.8532 34.1475 39.4628 34.3074 39.0557 34.3074C38.6486 34.3074 38.2582 34.1475 37.9704 33.8629C37.6825 33.5783 37.5208 33.1923 37.5208 32.7898L37.5214 31.2759ZM36.7356 40.7269C36.673 40.7633 36.6211 40.8153 36.5851 40.8776C36.549 40.94 36.5301 41.0105 36.5301 41.0823V47.1753H28.2918V40.9256C28.2918 40.8407 28.2653 40.7578 28.2158 40.6883C28.1663 40.6188 28.0963 40.5661 28.0154 40.5375C26.9115 40.1453 25.9569 39.4258 25.282 38.4772C24.6071 37.5286 24.2449 36.3972 24.2447 35.2374V30.9589C24.2453 30.8707 24.2546 30.7828 24.2725 30.6964C24.2778 30.6689 24.2878 30.6455 24.2945 30.6197C24.3085 30.5622 24.3263 30.5057 24.3478 30.4506C24.3593 30.4231 24.3757 30.3956 24.3879 30.3698C24.4115 30.32 24.438 30.2718 24.4674 30.2252C24.4838 30.2004 24.5027 30.1776 24.5208 30.1537C24.5534 30.1094 24.5887 30.067 24.6265 30.0269C24.6468 30.0061 24.6687 29.9868 24.6901 29.967C24.7312 29.9293 24.7744 29.894 24.8197 29.8614C24.8436 29.8444 24.8687 29.8287 24.8937 29.8133C24.9408 29.7842 24.9898 29.7579 25.0402 29.7347C25.0686 29.7215 25.0975 29.7094 25.127 29.6984C25.1777 29.6794 25.2295 29.6634 25.2821 29.6506C25.3155 29.6423 25.3489 29.6344 25.3831 29.6286C25.4595 29.6143 25.5369 29.6066 25.6147 29.6055H32.5283C32.5887 29.6056 32.6477 29.6232 32.6981 29.6561C32.7485 29.689 32.788 29.7359 32.8116 29.7908V29.793C32.8274 29.8299 32.8355 29.8695 32.8356 29.9096C32.8349 30.6676 32.53 31.3945 31.9878 31.9305C31.4457 32.4666 30.7105 32.768 29.9438 32.7687H27.2138C27.1222 32.7692 27.0332 32.7996 26.9608 32.8551C26.8884 32.9106 26.8365 32.9882 26.8131 33.0758C26.7897 33.1634 26.7962 33.2562 26.8314 33.3398C26.8667 33.4234 26.9289 33.4932 27.0083 33.5384C27.0467 33.5599 30.831 35.7058 30.831 37.992C30.8312 38.0926 30.8685 38.1897 30.9359 38.2649C31.0033 38.3402 31.0963 38.3886 31.1972 38.4008C31.2142 38.403 31.2313 38.4041 31.2484 38.4041C31.3415 38.4041 31.4319 38.3732 31.5053 38.3165C31.5786 38.2597 31.6306 38.1803 31.653 38.091C31.6808 37.9835 32.3403 35.4617 34.4683 35.4617C34.5789 35.4617 34.685 35.4183 34.7632 35.3409C34.8415 35.2636 34.8854 35.1587 34.8854 35.0493C34.8854 34.94 34.8415 34.8351 34.7632 34.7578C34.685 34.6804 34.5789 34.637 34.4683 34.637C32.9343 34.637 31.9269 35.6465 31.3569 36.6439C30.7863 35.3682 29.5386 34.2796 28.5985 33.5923H29.9446C30.529 33.5918 31.1051 33.4551 31.626 33.1933C32.147 32.9315 32.5983 32.5519 32.9432 32.0855C33.0782 32.4369 33.297 32.7508 33.581 33.0007C33.865 33.2505 34.2058 33.4289 34.5745 33.5207C34.9431 33.6125 35.3287 33.6149 35.6986 33.5277C36.0684 33.4406 36.4114 33.2665 36.6986 33.0202C36.7405 33.4439 36.8986 33.8482 37.1557 34.1897C37.4128 34.5311 37.7593 34.7968 38.1577 34.958C38.5562 35.1192 38.9917 35.1699 39.4171 35.1045C39.8426 35.0392 40.242 34.8603 40.5722 34.5872C40.4833 35.8413 40.0877 37.0552 39.4194 38.1246C38.7511 39.1941 37.8301 40.0871 36.7356 40.7269Z" fill="url(#svg700436924_20871_paint0_linear_54671_141)"/>
<defs>
<filter id="svg700436924_20871_filter0_d_54671_141" x="-16.2973" y="-12.6757" width="96.5946" height="96.5946" filterUnits="userSpaceOnUse" color-interpolation-filters="sRGB">
<feFlood flood-opacity="0" result="BackgroundImageFix"/>
<feColorMatrix in="SourceAlpha" type="matrix" values="0 0 0 0 0 0 0 0 0 0 0 0 0 0 0 0 0 0 127 0" result="hardAlpha"/>
<feMorphology radius="1.81081" operator="dilate" in="SourceAlpha" result="effect1_dropShadow_54671_141"/>
<feOffset dy="3.62162"/>
<feGaussianBlur stdDeviation="7.24324"/>
<feComposite in2="hardAlpha" operator="out"/>
<feColorMatrix type="matrix" values="0 0 0 0 0 0 0 0 0 0 0 0 0 0 0 0 0 0 0.08 0"/>
<feBlend mode="normal" in2="BackgroundImageFix" result="effect1_dropShadow_54671_141"/>
<feBlend mode="normal" in="SourceGraphic" in2="effect1_dropShadow_54671_141" result="shape"/>
</filter>
<linearGradient id="svg700436924_20871_paint0_linear_54671_141" x1="23.8589" y1="21.9647" x2="41.5516" y2="43.8489" gradientUnits="userSpaceOnUse">
<stop offset="0.0552454" stop-color="#8A66FC"/>
<stop offset="0.857617" stop-color="#5A34DF"/>
</linearGradient>
</defs>
</svg>