<svg xmlns="http://www.w3.org/2000/svg" width="1439" height="834" viewBox="0 0 1439 834" fill="none" id="svg-654112387_32560">
<g clip-path="url(#svg-654112387_32560_clip0_54646_113)">
<g opacity="0.5">
<g opacity="0.1">
<path d="M125.303 224.058L179.933 255.788C181.422 256.653 182.338 258.244 182.338 259.966V323.486C182.338 325.208 181.422 326.799 179.933 327.664L125.303 359.394C123.803 360.266 121.949 360.266 120.449 359.394L65.8191 327.664C64.3303 326.799 63.4141 325.208 63.4141 323.486V259.966C63.4141 258.244 64.3303 256.653 65.8191 255.788L120.449 224.058C121.949 223.186 123.803 223.186 125.303 224.058Z" stroke="#242424" stroke-width="1.75358"/>
</g>
<g opacity="0.1">
<path d="M250.964 224.058L305.596 255.788C307.085 256.653 308.001 258.244 308.001 259.966V323.486C308.001 325.208 307.085 326.799 305.596 327.664L250.964 359.394C249.464 360.266 247.612 360.266 246.111 359.394L191.48 327.664C189.992 326.799 189.076 325.208 189.076 323.486V259.966C189.076 258.244 189.992 256.653 191.48 255.788L246.111 224.058C247.612 223.186 249.464 223.186 250.964 224.058Z" stroke="#242424" stroke-width="1.75358"/>
</g>
<g opacity="0.1">
<path d="M502.299 224.058L556.93 255.788C558.419 256.653 559.335 258.244 559.335 259.966V323.486C559.335 325.208 558.419 326.799 556.93 327.664L502.299 359.394C500.799 360.266 498.946 360.266 497.446 359.394L442.814 327.664C441.326 326.799 440.41 325.208 440.41 323.486V259.966C440.41 258.244 441.326 256.653 442.814 255.788L497.446 224.058C498.946 223.186 500.799 223.186 502.299 224.058Z" stroke="#242424" stroke-width="1.75358"/>
</g>
<g opacity="0.1">
<path d="M627.969 222.312L682.6 254.042C684.089 254.907 685.004 256.498 685.004 258.22V321.74C685.004 323.462 684.089 325.053 682.6 325.918L627.969 357.648C626.469 358.519 624.615 358.519 623.115 357.648L568.484 325.918C566.995 325.053 566.08 323.462 566.08 321.74V258.22C566.08 256.498 566.995 254.907 568.484 254.042L623.115 222.312C624.615 221.44 626.469 221.44 627.969 222.312Z" stroke="#242424" stroke-width="1.75358"/>
</g>
<g opacity="0.1">
<path d="M879.295 222.312L933.926 254.042C935.417 254.907 936.329 256.498 936.329 258.22V321.74C936.329 323.462 935.417 325.053 933.926 325.918L879.295 357.648C877.795 358.519 875.943 358.519 874.442 357.648L819.811 325.918C818.322 325.053 817.406 323.462 817.406 321.74V258.22C817.406 256.498 818.322 254.907 819.811 254.042L874.442 222.312C875.943 221.44 877.795 221.44 879.295 222.312Z" stroke="#242424" stroke-width="1.75358"/>
</g>
<g opacity="0.1">
<path d="M1004.96 222.312L1059.6 254.042C1061.08 254.907 1062 256.498 1062 258.22V321.74C1062 323.462 1061.08 325.053 1059.6 325.918L1004.96 357.648C1003.47 358.519 1001.61 358.519 1000.11 357.648L945.475 325.918C943.993 325.053 943.072 323.462 943.072 321.74V258.22C943.072 256.498 943.993 254.907 945.475 254.042L1000.11 222.312C1001.61 221.44 1003.47 221.44 1004.96 222.312Z" stroke="#242424" stroke-width="1.75358"/>
</g>
<g opacity="0.1">
<path d="M1130.62 222.312L1185.25 254.042C1186.75 254.907 1187.66 256.498 1187.66 258.22V321.74C1187.66 323.462 1186.75 325.053 1185.25 325.918L1130.62 357.648C1129.12 358.519 1127.27 358.519 1125.77 357.648L1071.14 325.918C1069.65 325.053 1068.74 323.462 1068.74 321.74V258.22C1068.74 256.498 1069.65 254.907 1071.14 254.042L1125.77 222.312C1127.27 221.44 1129.12 221.44 1130.62 222.312Z" stroke="#242424" stroke-width="1.75358"/>
</g>
<g opacity="0.1">
<path d="M1256.3 222.312L1310.93 254.042C1312.41 254.907 1313.33 256.498 1313.33 258.22V321.74C1313.33 323.462 1312.41 325.053 1310.93 325.918L1256.3 357.648C1254.8 358.519 1252.94 358.519 1251.44 357.648L1196.81 325.918C1195.33 325.053 1194.41 323.462 1194.41 321.74V258.22C1194.41 256.498 1195.33 254.907 1196.81 254.042L1251.44 222.312C1252.94 221.44 1254.8 221.44 1256.3 222.312Z" stroke="#242424" stroke-width="1.75358"/>
</g>
<g opacity="0.1">
<path d="M1381.96 222.312L1436.6 254.042C1438.09 254.907 1439 256.498 1439 258.22V321.74C1439 323.462 1438.09 325.053 1436.6 325.918L1381.96 357.648C1380.46 358.519 1378.61 358.519 1377.12 357.648L1322.48 325.918C1320.99 325.053 1320.08 323.462 1320.08 321.74V258.22C1320.08 256.498 1320.99 254.907 1322.48 254.042L1377.12 222.312C1378.61 221.44 1380.46 221.44 1381.96 222.312Z" stroke="#242424" stroke-width="1.75358"/>
</g>
<g opacity="0.1">
<path d="M125.303 2.44271L179.933 34.1729C181.422 35.0374 182.338 36.6288 182.338 38.3508V101.871C182.338 103.593 181.422 105.184 179.933 106.049L125.303 137.779C123.803 138.65 121.949 138.65 120.449 137.779L65.8191 106.049C64.3303 105.184 63.4141 103.593 63.4141 101.871V38.3508C63.4141 36.6288 64.3303 35.0374 65.8191 34.1729L120.449 2.44271C121.949 1.57118 123.803 1.57118 125.303 2.44271Z" stroke="#242424" stroke-width="1.75358"/>
</g>
<g opacity="0.1">
<path d="M376.631 2.44271L431.263 34.1729C432.752 35.0374 433.668 36.6288 433.668 38.3508V101.871C433.668 103.593 432.752 105.184 431.263 106.049L376.631 137.779C375.131 138.65 373.279 138.65 371.779 137.779L317.147 106.049C315.658 105.184 314.742 103.593 314.742 101.871V38.3508C314.742 36.6288 315.658 35.0374 317.147 34.1729L371.779 2.44271C373.279 1.57118 375.131 1.57118 376.631 2.44271Z" stroke="#242424" stroke-width="1.75358"/>
</g>
<g opacity="0.1">
<path d="M502.297 2.44271L556.928 34.1729C558.417 35.0374 559.333 36.6288 559.333 38.3508V101.871C559.333 103.593 558.417 105.184 556.928 106.049L502.297 137.779C500.797 138.65 498.944 138.65 497.444 137.779L442.812 106.049C441.324 105.184 440.408 103.593 440.408 101.871V38.3508C440.408 36.6288 441.324 35.0374 442.812 34.1729L497.444 2.44271C498.944 1.57118 500.797 1.57118 502.297 2.44271Z" stroke="#242424" stroke-width="1.75358"/>
</g>
<g opacity="0.1">
<path d="M627.969 0.695637L682.6 32.4258C684.089 33.2903 685.004 34.8817 685.004 36.6037V100.124C685.004 101.846 684.089 103.437 682.6 104.302L627.969 136.032C626.469 136.903 624.615 136.903 623.115 136.032L568.484 104.302C566.995 103.437 566.08 101.846 566.08 100.124V36.6037C566.08 34.8817 566.995 33.2903 568.484 32.4258L623.115 0.695637C624.615 -0.175889 626.469 -0.175889 627.969 0.695637Z" stroke="#242424" stroke-width="1.75358"/>
</g>
<g opacity="0.1">
<path d="M753.632 0.695637L808.264 32.4258C809.753 33.2903 810.669 34.8817 810.669 36.6037V100.124C810.669 101.846 809.753 103.437 808.264 104.302L753.632 136.032C752.132 136.903 750.28 136.903 748.78 136.032L694.149 104.302C692.66 103.437 691.744 101.846 691.744 100.124V36.6037C691.744 34.8817 692.66 33.2903 694.149 32.4258L748.78 0.695637C750.28 -0.175889 752.132 -0.175889 753.632 0.695637Z" stroke="#242424" stroke-width="1.75358"/>
</g>
<g opacity="0.1">
<path d="M879.295 0.695637L933.926 32.4258C935.417 33.2903 936.329 34.8817 936.329 36.6037V100.124C936.329 101.846 935.417 103.437 933.926 104.302L879.295 136.032C877.795 136.903 875.943 136.903 874.442 136.032L819.811 104.302C818.322 103.437 817.406 101.846 817.406 100.124V36.6037C817.406 34.8817 818.322 33.2903 819.811 32.4258L874.442 0.695637C875.943 -0.175889 877.795 -0.175889 879.295 0.695637Z" stroke="#242424" stroke-width="1.75358"/>
</g>
<g opacity="0.1">
<path d="M1130.62 0.695637L1185.25 32.4258C1186.75 33.2903 1187.66 34.8817 1187.66 36.6037V100.124C1187.66 101.846 1186.75 103.437 1185.25 104.302L1130.62 136.032C1129.12 136.903 1127.27 136.903 1125.77 136.032L1071.14 104.302C1069.65 103.437 1068.74 101.846 1068.74 100.124V36.6037C1068.74 34.8817 1069.65 33.2903 1071.14 32.4258L1125.77 0.695637C1127.27 -0.175889 1129.12 -0.175889 1130.62 0.695637Z" stroke="#242424" stroke-width="1.75358"/>
</g>
<g opacity="0.1">
<path d="M1256.3 0.695637L1310.93 32.4258C1312.41 33.2903 1313.33 34.8817 1313.33 36.6037V100.124C1313.33 101.846 1312.41 103.437 1310.93 104.302L1256.3 136.032C1254.8 136.903 1252.94 136.903 1251.44 136.032L1196.81 104.302C1195.33 103.437 1194.41 101.846 1194.41 100.124V36.6037C1194.41 34.8817 1195.33 33.2903 1196.81 32.4258L1251.44 0.695637C1252.94 -0.175889 1254.8 -0.175889 1256.3 0.695637Z" stroke="#242424" stroke-width="1.75358"/>
</g>
<g opacity="0.1">
<path d="M1381.96 0.695637L1436.6 32.4258C1438.09 33.2903 1439 34.8817 1439 36.6037V100.124C1439 101.846 1438.09 103.437 1436.6 104.302L1381.96 136.032C1380.46 136.903 1378.61 136.903 1377.12 136.032L1322.48 104.302C1320.99 103.437 1320.08 101.846 1320.08 100.124V36.6037C1320.08 34.8817 1320.99 33.2903 1322.48 32.4258L1377.12 0.695637C1378.61 -0.175889 1380.46 -0.175889 1381.96 0.695637Z" stroke="#242424" stroke-width="1.75358"/>
</g>
<g opacity="0.1">
<path d="M61.8911 113.394L116.521 145.124C118.01 145.989 118.926 147.58 118.926 149.302V212.822C118.926 214.544 118.01 216.135 116.521 217L61.8911 248.73C60.3909 249.602 58.5374 249.602 57.0372 248.73L2.40699 217C0.918198 216.135 0.00195312 214.544 0.00195312 212.822V149.302C0.00195312 147.58 0.918198 145.989 2.40699 145.124L57.0372 113.394C58.5374 112.522 60.3909 112.522 61.8911 113.394Z" stroke="#242424" stroke-width="1.75358"/>
</g>
<g opacity="0.1">
<path d="M438.889 113.394L493.52 145.124C495.009 145.989 495.924 147.58 495.924 149.302V212.822C495.924 214.544 495.009 216.135 493.52 217L438.889 248.73C437.389 249.602 435.536 249.602 434.036 248.73L379.404 217C377.915 216.135 377 214.544 377 212.822V149.302C377 147.58 377.915 145.989 379.404 145.124L434.036 113.394C435.536 112.522 437.389 112.522 438.889 113.394Z" stroke="#242424" stroke-width="1.75358"/>
</g>
<g opacity="0.1">
<path d="M564.557 113.394L619.188 145.124C620.677 145.989 621.592 147.58 621.592 149.302V212.822C621.592 214.544 620.677 216.135 619.188 217L564.557 248.73C563.057 249.602 561.203 249.602 559.703 248.73L505.072 217C503.583 216.135 502.668 214.544 502.668 212.822V149.302C502.668 147.58 503.583 145.989 505.072 145.124L559.703 113.394C561.203 112.522 563.057 112.522 564.557 113.394Z" stroke="#242424" stroke-width="1.75358"/>
</g>
<g opacity="0.1">
<path d="M815.887 113.394L870.518 145.124C872.009 145.989 872.921 147.58 872.921 149.302V212.822C872.921 214.544 872.009 216.135 870.518 217L815.887 248.73C814.387 249.602 812.534 249.602 811.034 248.73L756.403 217C754.914 216.135 753.998 214.544 753.998 212.822V149.302C753.998 147.58 754.914 145.989 756.403 145.124L811.034 113.394C812.534 112.522 814.387 112.522 815.887 113.394Z" stroke="#242424" stroke-width="1.75358"/>
</g>
<g opacity="0.1">
<path d="M941.555 113.394L996.188 145.124C997.669 145.989 998.59 147.58 998.59 149.302V212.822C998.59 214.544 997.669 216.135 996.188 217L941.555 248.73C940.055 249.602 938.197 249.602 936.697 248.73L882.065 217C880.583 216.135 879.662 214.544 879.662 212.822V149.302C879.662 147.58 880.583 145.989 882.065 145.124L936.697 113.394C938.197 112.522 940.055 112.522 941.555 113.394Z" stroke="#242424" stroke-width="1.75358"/>
</g>
<g opacity="0.1">
<path d="M1318.55 113.394L1373.19 145.124C1374.68 145.989 1375.59 147.58 1375.59 149.302V212.822C1375.59 214.544 1374.68 216.135 1373.19 217L1318.55 248.73C1317.05 249.602 1315.2 249.602 1313.71 248.73L1259.07 217C1257.58 216.135 1256.67 214.544 1256.67 212.822V149.302C1256.67 147.58 1257.58 145.989 1259.07 145.124L1313.71 113.394C1315.2 112.522 1317.05 112.522 1318.55 113.394Z" stroke="#242424" stroke-width="1.75358"/>
</g>
<g opacity="0.1">
<path d="M125.303 662.636L179.933 694.365C181.422 695.231 182.338 696.821 182.338 698.543V762.063C182.338 763.785 181.422 765.377 179.933 766.241L125.303 797.97C123.803 798.842 121.949 798.842 120.449 797.97L65.8191 766.241C64.3303 765.377 63.4141 763.785 63.4141 762.063V698.543C63.4141 696.821 64.3303 695.231 65.8191 694.365L120.449 662.636C121.949 661.765 123.803 661.765 125.303 662.636Z" stroke="#242424" stroke-width="1.75358"/>
</g>
<g opacity="0.1">
<path d="M250.965 662.636L305.595 694.365C307.084 695.231 308.001 696.821 308.001 698.543V762.063C308.001 763.785 307.084 765.377 305.595 766.241L250.965 797.97C249.465 798.842 247.612 798.842 246.111 797.97L191.481 766.241C189.992 765.377 189.076 763.785 189.076 762.063V698.543C189.076 696.821 189.992 695.231 191.481 694.365L246.111 662.636C247.612 661.765 249.465 661.765 250.965 662.636Z" stroke="#242424" stroke-width="1.75358"/>
</g>
<g opacity="0.1">
<path d="M376.637 662.636L431.268 694.365C432.757 695.231 433.672 696.821 433.672 698.543V762.063C433.672 763.785 432.757 765.377 431.268 766.241L376.637 797.97C375.137 798.842 373.283 798.842 371.783 797.97L317.153 766.241C315.664 765.377 314.748 763.785 314.748 762.063V698.543C314.748 696.821 315.664 695.231 317.153 694.365L371.783 662.636C373.283 661.765 375.137 661.765 376.637 662.636Z" stroke="#242424" stroke-width="1.75358"/>
</g>
<g opacity="0.1">
<path d="M502.299 662.636L556.93 694.365C558.419 695.231 559.335 696.821 559.335 698.543V762.063C559.335 763.785 558.419 765.377 556.93 766.241L502.299 797.97C500.799 798.842 498.946 798.842 497.446 797.97L442.814 766.241C441.326 765.377 440.41 763.785 440.41 762.063V698.543C440.41 696.821 441.326 695.231 442.814 694.365L497.446 662.636C498.946 661.765 500.799 661.765 502.299 662.636Z" stroke="#242424" stroke-width="1.75358"/>
</g>
<g opacity="0.1">
<path d="M627.969 662.636L682.6 694.365C684.089 695.231 685.004 696.821 685.004 698.543V762.063C685.004 763.785 684.089 765.377 682.6 766.241L627.969 797.97C626.469 798.842 624.615 798.842 623.115 797.97L568.484 766.241C566.995 765.377 566.08 763.785 566.08 762.063V698.543C566.08 696.821 566.995 695.231 568.484 694.365L623.115 662.636C624.615 661.765 626.469 661.765 627.969 662.636Z" stroke="#242424" stroke-width="1.75358"/>
</g>
<g opacity="0.1">
<path d="M753.629 662.636L808.261 694.365C809.75 695.231 810.666 696.821 810.666 698.543V762.063C810.666 763.785 809.75 765.377 808.261 766.241L753.629 797.97C752.129 798.842 750.277 798.842 748.777 797.97L694.146 766.241C692.657 765.377 691.74 763.785 691.74 762.063V698.543C691.74 696.821 692.657 695.231 694.146 694.365L748.777 662.636C750.277 661.765 752.129 661.765 753.629 662.636Z" stroke="#242424" stroke-width="1.75358"/>
</g>
<g opacity="0.1">
<path d="M879.295 662.636L933.926 694.365C935.417 695.231 936.329 696.821 936.329 698.543V762.063C936.329 763.785 935.417 765.377 933.926 766.241L879.295 797.97C877.795 798.842 875.943 798.842 874.442 797.97L819.811 766.241C818.322 765.377 817.406 763.785 817.406 762.063V698.543C817.406 696.821 818.322 695.231 819.811 694.365L874.442 662.636C875.943 661.765 877.795 661.765 879.295 662.636Z" stroke="#242424" stroke-width="1.75358"/>
</g>
<g opacity="0.1">
<path d="M1004.96 662.636L1059.6 694.365C1061.08 695.231 1062 696.821 1062 698.543V762.063C1062 763.785 1061.08 765.377 1059.6 766.241L1004.96 797.97C1003.47 798.842 1001.61 798.842 1000.11 797.97L945.475 766.241C943.993 765.377 943.072 763.785 943.072 762.063V698.543C943.072 696.821 943.993 695.231 945.475 694.365L1000.11 662.636C1001.61 661.765 1003.47 661.765 1004.96 662.636Z" stroke="#242424" stroke-width="1.75358"/>
</g>
<g opacity="0.1">
<path d="M1130.62 662.636L1185.25 694.365C1186.75 695.231 1187.66 696.821 1187.66 698.543V762.063C1187.66 763.785 1186.75 765.377 1185.25 766.241L1130.62 797.97C1129.12 798.842 1127.27 798.842 1125.77 797.97L1071.14 766.241C1069.65 765.377 1068.74 763.785 1068.74 762.063V698.543C1068.74 696.821 1069.65 695.231 1071.14 694.365L1125.77 662.636C1127.27 661.765 1129.12 661.765 1130.62 662.636Z" stroke="#242424" stroke-width="1.75358"/>
</g>
<g opacity="0.1">
<path d="M1256.29 662.636L1310.93 694.365C1312.41 695.231 1313.33 696.821 1313.33 698.543V762.063C1313.33 763.785 1312.41 765.377 1310.93 766.241L1256.29 797.97C1254.8 798.842 1252.94 798.842 1251.44 797.97L1196.8 766.241C1195.32 765.377 1194.4 763.785 1194.4 762.063V698.543C1194.4 696.821 1195.32 695.231 1196.8 694.365L1251.44 662.636C1252.94 661.765 1254.8 661.765 1256.29 662.636Z" stroke="#242424" stroke-width="1.75358"/>
</g>
<g opacity="0.1">
<path d="M1381.96 662.636L1436.6 694.365C1438.09 695.231 1439 696.821 1439 698.543V762.063C1439 763.785 1438.09 765.377 1436.6 766.241L1381.96 797.97C1380.46 798.842 1378.61 798.842 1377.12 797.97L1322.48 766.241C1320.99 765.377 1320.08 763.785 1320.08 762.063V698.543C1320.08 696.821 1320.99 695.231 1322.48 694.365L1377.12 662.636C1378.61 661.765 1380.46 661.765 1381.96 662.636Z" stroke="#242424" stroke-width="1.75358"/>
</g>
<g opacity="0.1">
<path d="M250.964 443.187L305.596 474.915C307.085 475.781 308.001 477.372 308.001 479.094V542.614C308.001 544.335 307.085 545.927 305.596 546.791L250.964 578.521C249.464 579.393 247.612 579.393 246.111 578.521L191.48 546.791C189.992 545.927 189.076 544.335 189.076 542.614V479.094C189.076 477.372 189.992 475.781 191.48 474.915L246.111 443.187C247.612 442.315 249.464 442.315 250.964 443.187Z" stroke="#242424" stroke-width="1.75358"/>
</g>
<g opacity="0.1">
<path d="M125.302 443.187L179.934 474.915C181.423 475.781 182.338 477.372 182.338 479.094V542.614C182.338 544.335 181.423 545.927 179.934 546.791L125.302 578.521C123.802 579.393 121.949 579.393 120.449 578.521L65.8182 546.791C64.3294 545.927 63.4141 544.335 63.4141 542.614V479.094C63.4141 477.372 64.3294 475.781 65.8182 474.915L120.449 443.187C121.949 442.315 123.802 442.315 125.302 443.187Z" stroke="#242424" stroke-width="1.75358"/>
</g>
<g opacity="0.1">
<path d="M376.637 443.187L431.268 474.915C432.757 475.781 433.672 477.372 433.672 479.094V542.614C433.672 544.335 432.757 545.927 431.268 546.791L376.637 578.521C375.137 579.393 373.283 579.393 371.783 578.521L317.153 546.791C315.664 545.927 314.748 544.335 314.748 542.614V479.094C314.748 477.372 315.664 475.781 317.153 474.915L371.783 443.187C373.283 442.315 375.137 442.315 376.637 443.187Z" stroke="#242424" stroke-width="1.75358"/>
</g>
<g opacity="0.1">
<path d="M753.629 443.187L808.261 474.915C809.75 475.781 810.666 477.372 810.666 479.094V542.614C810.666 544.335 809.75 545.927 808.261 546.791L753.629 578.521C752.129 579.393 750.277 579.393 748.777 578.521L694.146 546.791C692.657 545.927 691.74 544.335 691.74 542.614V479.094C691.74 477.372 692.657 475.781 694.146 474.915L748.777 443.187C750.277 442.315 752.129 442.315 753.629 443.187Z" fill="white"/>
</g>
<g opacity="0.1">
<path d="M879.295 443.187L933.926 474.915C935.417 475.781 936.329 477.372 936.329 479.094V542.614C936.329 544.335 935.417 545.927 933.926 546.791L879.295 578.521C877.795 579.393 875.943 579.393 874.442 578.521L819.811 546.791C818.322 545.927 817.406 544.335 817.406 542.614V479.094C817.406 477.372 818.322 475.781 819.811 474.915L874.442 443.187C875.943 442.315 877.795 442.315 879.295 443.187Z" stroke="#242424" stroke-width="1.75358"/>
</g>
<g opacity="0.1">
<path d="M1256.3 443.187L1310.93 474.915C1312.41 475.781 1313.33 477.372 1313.33 479.094V542.614C1313.33 544.335 1312.41 545.927 1310.93 546.791L1256.3 578.521C1254.8 579.393 1252.94 579.393 1251.44 578.521L1196.81 546.791C1195.33 545.927 1194.41 544.335 1194.41 542.614V479.094C1194.41 477.372 1195.33 475.781 1196.81 474.915L1251.44 443.187C1252.94 442.315 1254.8 442.315 1256.3 443.187Z" stroke="#242424" stroke-width="1.75358"/>
</g>
<g opacity="0.1">
<path d="M187.555 332.746L242.186 364.477C243.675 365.341 244.59 366.933 244.59 368.654V432.174C244.59 433.896 243.675 435.488 242.186 436.352L187.555 468.083C186.055 468.954 184.201 468.954 182.701 468.083L128.07 436.352C126.581 435.488 125.666 433.896 125.666 432.174V368.654C125.666 366.933 126.581 365.341 128.07 364.477L182.701 332.746C184.201 331.875 186.055 331.875 187.555 332.746Z" stroke="#242424" stroke-width="1.75358"/>
</g>
<g opacity="0.1">
<path d="M313.221 332.746L367.852 364.477C369.341 365.341 370.256 366.933 370.256 368.654V432.174C370.256 433.896 369.341 435.488 367.852 436.352L313.221 468.083C311.721 468.954 309.867 468.954 308.367 468.083L253.736 436.352C252.247 435.488 251.332 433.896 251.332 432.174V368.654C251.332 366.933 252.247 365.341 253.736 364.477L308.367 332.746C309.867 331.875 311.721 331.875 313.221 332.746Z" stroke="#242424" stroke-width="1.75358"/>
</g>
<g opacity="0.1">
<path d="M438.885 332.746L493.515 364.477C495.004 365.341 495.92 366.933 495.92 368.654V432.174C495.92 433.896 495.004 435.488 493.515 436.352L438.885 468.083C437.385 468.954 435.532 468.954 434.031 468.083L379.4 436.352C377.911 435.488 376.996 433.896 376.996 432.174V368.654C376.996 366.933 377.911 365.341 379.4 364.477L434.031 332.746C435.532 331.875 437.385 331.875 438.885 332.746Z" stroke="#242424" stroke-width="1.75358"/>
</g>
<g opacity="0.1">
<path d="M690.219 332.746L744.851 364.477C746.34 365.341 747.256 366.933 747.256 368.654V432.174C747.256 433.896 746.34 435.488 744.851 436.352L690.219 468.083C688.719 468.954 686.867 468.954 685.367 468.083L630.736 436.352C629.247 435.488 628.33 433.896 628.33 432.174V368.654C628.33 366.933 629.247 365.341 630.736 364.477L685.367 332.746C686.867 331.875 688.719 331.875 690.219 332.746Z" stroke="#242424" stroke-width="1.75358"/>
</g>
<g opacity="0.1">
<path d="M815.885 332.747L870.516 364.478C872.005 365.342 872.922 366.934 872.922 368.655V432.175C872.922 433.897 872.005 435.489 870.516 436.353L815.885 468.084C814.385 468.955 812.533 468.955 811.033 468.084L756.402 436.353C754.913 435.489 753.996 433.897 753.996 432.175V368.655C753.996 366.934 754.913 365.342 756.402 364.478L811.033 332.747C812.533 331.876 814.385 331.876 815.885 332.747Z" stroke="#242424" stroke-width="1.75358"/>
</g>
<g opacity="0.1">
<path d="M941.546 332.747L996.179 364.478C997.669 365.342 998.581 366.934 998.581 368.655V432.175C998.581 433.897 997.669 435.489 996.179 436.353L941.546 468.084C940.046 468.955 938.196 468.955 936.697 468.084L882.065 436.353C880.576 435.489 879.66 433.897 879.66 432.175V368.655C879.66 366.934 880.576 365.342 882.065 364.478L936.697 332.747C938.196 331.876 940.046 331.876 941.546 332.747Z" stroke="#242424" stroke-width="1.75358"/>
</g>
<g opacity="0.1">
<path d="M1192.88 332.747L1247.51 364.478C1249 365.342 1249.91 366.934 1249.91 368.655V432.175C1249.91 433.897 1249 435.489 1247.51 436.353L1192.88 468.084C1191.38 468.955 1189.53 468.955 1188.03 468.084L1133.39 436.353C1131.9 435.489 1130.99 433.897 1130.99 432.175V368.655C1130.99 366.934 1131.9 365.342 1133.39 364.478L1188.03 332.747C1189.53 331.876 1191.38 331.876 1192.88 332.747Z" stroke="#242424" stroke-width="1.75358"/>
</g>
<g opacity="0.1">
<path d="M61.8891 773.074L116.519 804.804C118.008 805.668 118.924 807.26 118.924 808.981V872.501C118.924 874.223 118.008 875.813 116.519 876.679L61.8891 908.409C60.3889 909.28 58.5354 909.28 57.0352 908.409L2.40504 876.679C0.916244 875.813 0 874.223 0 872.501V808.981C0 807.26 0.916244 805.668 2.40504 804.804L57.0352 773.074C58.5354 772.202 60.3889 772.202 61.8891 773.074Z" stroke="#242424" stroke-width="1.75358"/>
</g>
<g opacity="0.1">
<path d="M313.221 773.074L367.852 804.804C369.341 805.668 370.256 807.26 370.256 808.981V872.501C370.256 874.223 369.341 875.813 367.852 876.679L313.221 908.409C311.721 909.28 309.867 909.28 308.367 908.409L253.736 876.679C252.247 875.813 251.332 874.223 251.332 872.501V808.981C251.332 807.26 252.247 805.668 253.736 804.804L308.367 773.074C309.867 772.202 311.721 772.202 313.221 773.074Z" stroke="#242424" stroke-width="1.75358"/>
</g>
<g opacity="0.1">
<path d="M438.885 773.074L493.515 804.804C495.004 805.668 495.92 807.26 495.92 808.981V872.501C495.92 874.223 495.004 875.813 493.515 876.679L438.885 908.409C437.385 909.28 435.532 909.28 434.031 908.409L379.4 876.679C377.911 875.813 376.996 874.223 376.996 872.501V808.981C376.996 807.26 377.911 805.668 379.4 804.804L434.031 773.074C435.532 772.202 437.385 772.202 438.885 773.074Z" stroke="#242424" stroke-width="1.75358"/>
</g>
<g opacity="0.1">
<path d="M564.555 773.074L619.186 804.804C620.675 805.668 621.59 807.26 621.59 808.981V872.501C621.59 874.223 620.675 875.813 619.186 876.679L564.555 908.409C563.055 909.28 561.201 909.28 559.701 908.409L505.071 876.679C503.582 875.813 502.666 874.223 502.666 872.501V808.981C502.666 807.26 503.582 805.668 505.071 804.804L559.701 773.074C561.201 772.202 563.055 772.202 564.555 773.074Z" stroke="#242424" stroke-width="1.75358"/>
</g>
<g opacity="0.1">
<path d="M690.219 773.074L744.851 804.804C746.34 805.668 747.256 807.26 747.256 808.981V872.501C747.256 874.223 746.34 875.813 744.851 876.679L690.219 908.409C688.719 909.28 686.867 909.28 685.367 908.409L630.736 876.679C629.247 875.813 628.33 874.223 628.33 872.501V808.981C628.33 807.26 629.247 805.668 630.736 804.804L685.367 773.074C686.867 772.202 688.719 772.202 690.219 773.074Z" stroke="#242424" stroke-width="1.75358"/>
</g>
<g opacity="0.1">
<path d="M815.885 773.074L870.516 804.804C872.005 805.668 872.922 807.26 872.922 808.981V872.501C872.922 874.223 872.005 875.813 870.516 876.679L815.885 908.409C814.385 909.28 812.533 909.28 811.033 908.409L756.402 876.679C754.913 875.813 753.996 874.223 753.996 872.501V808.981C753.996 807.26 754.913 805.668 756.402 804.804L811.033 773.074C812.533 772.202 814.385 772.202 815.885 773.074Z" stroke="#242424" stroke-width="1.75358"/>
</g>
<g opacity="0.1">
<path d="M941.546 773.074L996.179 804.804C997.669 805.668 998.581 807.26 998.581 808.981V872.501C998.581 874.223 997.669 875.813 996.179 876.679L941.546 908.409C940.046 909.28 938.196 909.28 936.697 908.409L882.065 876.679C880.576 875.813 879.66 874.223 879.66 872.501V808.981C879.66 807.26 880.576 805.668 882.065 804.804L936.697 773.074C938.196 772.202 940.046 772.202 941.546 773.074Z" stroke="#242424" stroke-width="1.75358"/>
</g>
<g opacity="0.1">
<path d="M1067.22 773.074L1121.85 804.804C1123.33 805.668 1124.25 807.26 1124.25 808.981V872.501C1124.25 874.223 1123.33 875.813 1121.85 876.679L1067.22 908.409C1065.72 909.28 1063.87 909.28 1062.36 908.409L1007.74 876.679C1006.25 875.813 1005.33 874.223 1005.33 872.501V808.981C1005.33 807.26 1006.25 805.668 1007.74 804.804L1062.36 773.074C1063.87 772.202 1065.72 772.202 1067.22 773.074Z" stroke="#242424" stroke-width="1.75358"/>
</g>
<g opacity="0.1">
<path d="M1192.88 773.074L1247.51 804.804C1249 805.668 1249.91 807.26 1249.91 808.981V872.501C1249.91 874.223 1249 875.813 1247.51 876.679L1192.88 908.409C1191.38 909.28 1189.53 909.28 1188.03 908.409L1133.39 876.679C1131.9 875.813 1130.99 874.223 1130.99 872.501V808.981C1130.99 807.26 1131.9 805.668 1133.39 804.804L1188.03 773.074C1189.53 772.202 1191.38 772.202 1192.88 773.074Z" stroke="#242424" stroke-width="1.75358"/>
</g>
<g opacity="0.1">
<path d="M1318.55 773.074L1373.18 804.804C1374.67 805.668 1375.58 807.26 1375.58 808.981V872.501C1375.58 874.223 1374.67 875.813 1373.18 876.679L1318.55 908.409C1317.05 909.28 1315.2 909.28 1313.69 908.409L1259.07 876.679C1257.58 875.813 1256.66 874.223 1256.66 872.501V808.981C1256.66 807.26 1257.58 805.668 1259.07 804.804L1313.69 773.074C1315.2 772.202 1317.05 772.202 1318.55 773.074Z" stroke="#242424" stroke-width="1.75358"/>
</g>
<g opacity="0.1">
<path d="M61.8891 553.623L116.519 585.354C118.008 586.218 118.924 587.809 118.924 589.531V653.051C118.924 654.773 118.008 656.364 116.519 657.228L61.8891 688.959C60.3889 689.83 58.5354 689.83 57.0352 688.959L2.40504 657.228C0.916244 656.364 0 654.773 0 653.051V589.531C0 587.809 0.916244 586.218 2.40504 585.354L57.0352 553.623C58.5354 552.752 60.3889 552.752 61.8891 553.623Z" stroke="#242424" stroke-width="1.75358"/>
</g>
<g opacity="0.1">
<path d="M187.555 553.623L242.186 585.354C243.675 586.218 244.59 587.809 244.59 589.531V653.051C244.59 654.773 243.675 656.364 242.186 657.228L187.555 688.959C186.055 689.83 184.201 689.83 182.701 688.959L128.07 657.228C126.581 656.364 125.666 654.773 125.666 653.051V589.531C125.666 587.809 126.581 586.218 128.07 585.354L182.701 553.623C184.201 552.752 186.055 552.752 187.555 553.623Z" stroke="#242424" stroke-width="1.75358"/>
</g>
<g opacity="0.1">
<path d="M313.221 553.623L367.852 585.354C369.341 586.218 370.256 587.809 370.256 589.531V653.051C370.256 654.773 369.341 656.364 367.852 657.228L313.221 688.959C311.721 689.83 309.867 689.83 308.367 688.959L253.736 657.228C252.247 656.364 251.332 654.773 251.332 653.051V589.531C251.332 587.809 252.247 586.218 253.736 585.354L308.367 553.623C309.867 552.752 311.721 552.752 313.221 553.623Z" stroke="#242424" stroke-width="1.75358"/>
</g>
<g opacity="0.1">
<path d="M438.885 553.623L493.515 585.354C495.004 586.218 495.92 587.809 495.92 589.531V653.051C495.92 654.773 495.004 656.364 493.515 657.228L438.885 688.959C437.385 689.83 435.532 689.83 434.031 688.959L379.4 657.228C377.911 656.364 376.996 654.773 376.996 653.051V589.531C376.996 587.809 377.911 586.218 379.4 585.354L434.031 553.623C435.532 552.752 437.385 552.752 438.885 553.623Z" stroke="#242424" stroke-width="1.75358"/>
</g>
<g opacity="0.1">
<path d="M564.555 553.623L619.186 585.354C620.675 586.218 621.59 587.809 621.59 589.531V653.051C621.59 654.773 620.675 656.364 619.186 657.228L564.555 688.959C563.055 689.83 561.201 689.83 559.701 688.959L505.071 657.228C503.582 656.364 502.666 654.773 502.666 653.051V589.531C502.666 587.809 503.582 586.218 505.071 585.354L559.701 553.623C561.201 552.752 563.055 552.752 564.555 553.623Z" stroke="#242424" stroke-width="1.75358"/>
</g>
<g opacity="0.1">
<path d="M690.219 553.623L744.851 585.354C746.34 586.218 747.256 587.809 747.256 589.531V653.051C747.256 654.773 746.34 656.364 744.851 657.228L690.219 688.959C688.719 689.83 686.867 689.83 685.367 688.959L630.736 657.228C629.247 656.364 628.33 654.773 628.33 653.051V589.531C628.33 587.809 629.247 586.218 630.736 585.354L685.367 553.623C686.867 552.752 688.719 552.752 690.219 553.623Z" stroke="#242424" stroke-width="1.75358"/>
</g>
<g opacity="0.1">
<path d="M815.885 553.623L870.516 585.354C872.005 586.218 872.922 587.809 872.922 589.531V653.051C872.922 654.773 872.005 656.364 870.516 657.228L815.885 688.959C814.385 689.83 812.533 689.83 811.033 688.959L756.402 657.228C754.913 656.364 753.996 654.773 753.996 653.051V589.531C753.996 587.809 754.913 586.218 756.402 585.354L811.033 553.623C812.533 552.752 814.385 552.752 815.885 553.623Z" stroke="#242424" stroke-width="1.75358"/>
</g>
<g opacity="0.1">
<path d="M1067.22 553.623L1121.85 585.354C1123.33 586.218 1124.25 587.809 1124.25 589.531V653.051C1124.25 654.773 1123.33 656.364 1121.85 657.228L1067.22 688.959C1065.72 689.83 1063.87 689.83 1062.36 688.959L1007.74 657.228C1006.25 656.364 1005.33 654.773 1005.33 653.051V589.531C1005.33 587.809 1006.25 586.218 1007.74 585.354L1062.36 553.623C1063.87 552.752 1065.72 552.752 1067.22 553.623Z" stroke="#242424" stroke-width="1.75358"/>
</g>
<g opacity="0.1">
<path d="M1192.88 553.623L1247.51 585.354C1249 586.218 1249.91 587.809 1249.91 589.531V653.051C1249.91 654.773 1249 656.364 1247.51 657.228L1192.88 688.959C1191.38 689.83 1189.53 689.83 1188.03 688.959L1133.39 657.228C1131.9 656.364 1130.99 654.773 1130.99 653.051V589.531C1130.99 587.809 1131.9 586.218 1133.39 585.354L1188.03 553.623C1189.53 552.752 1191.38 552.752 1192.88 553.623Z" stroke="#242424" stroke-width="1.75358"/>
</g>
<g opacity="0.1">
<path d="M1318.55 553.623L1373.18 585.354C1374.67 586.218 1375.58 587.809 1375.58 589.531V653.051C1375.58 654.773 1374.67 656.364 1373.18 657.228L1318.55 688.959C1317.05 689.83 1315.2 689.83 1313.69 688.959L1259.07 657.228C1257.58 656.364 1256.66 654.773 1256.66 653.051V589.531C1256.66 587.809 1257.58 586.218 1259.07 585.354L1313.69 553.623C1315.2 552.752 1317.05 552.752 1318.55 553.623Z" stroke="#242424" stroke-width="1.75358"/>
</g>
<g opacity="0.37">
<path d="M188.426 773.298L243.057 805.027C244.546 805.893 245.461 807.483 245.461 809.205V872.725C245.461 874.447 244.546 876.039 243.057 876.903L188.426 908.633C186.926 909.504 185.073 909.504 183.572 908.633L128.941 876.903C127.452 876.039 126.537 874.447 126.537 872.725V809.205C126.537 807.483 127.452 805.893 128.941 805.027L183.572 773.298C185.073 772.427 186.926 772.427 188.426 773.298Z" stroke="#DBDCDD" stroke-width="1.75358"/>
</g>
<g opacity="0.37">
<path d="M815.887 773.81L870.518 805.539C872.007 806.405 872.923 807.995 872.923 809.717V873.237C872.923 874.959 872.007 876.55 870.518 877.415L815.887 909.144C814.387 910.016 812.534 910.016 811.034 909.144L756.403 877.415C754.914 876.55 753.998 874.959 753.998 873.237V809.717C753.998 807.995 754.914 806.405 756.403 805.539L811.034 773.81C812.534 772.938 814.387 772.938 815.887 773.81Z" stroke="white" stroke-width="1.75358"/>
</g>
<g opacity="0.37">
<path d="M627.964 0.653644L682.595 32.3829C684.084 33.2483 685 34.8388 685 36.5608V100.081C685 101.803 684.084 103.394 682.595 104.259L627.964 135.988C626.464 136.86 624.611 136.86 623.11 135.988L568.479 104.259C566.99 103.394 566.074 101.803 566.074 100.081V36.5608C566.074 34.8388 566.99 33.2483 568.479 32.3829L623.11 0.653644C624.611 -0.217881 626.464 -0.217881 627.964 0.653644Z" stroke="#EBEBEB" stroke-width="1.75358"/>
</g>
</g>
</g>
<defs>
<clipPath id="svg-654112387_32560_clip0_54646_113">
<rect width="1439" height="834" fill="white"/>
</clipPath>
</defs>
</svg>