<svg xmlns="http://www.w3.org/2000/svg" width="306" height="233" viewBox="0 0 306 233" fill="none" id="svg1314459238_12747">
<g clip-path="url(#svg1314459238_12747_clip0_54646_1237)">
<mask id="svg1314459238_12747_mask0_54646_1237" style="mask-type:alpha" maskUnits="userSpaceOnUse" x="0" y="0" width="306" height="233">
<path d="M295.819 0H9.97141C4.46435 0 0 4.46749 0 9.97843V222.852C0 228.363 4.46435 232.83 9.97141 232.83H295.819C301.326 232.83 305.79 228.363 305.79 222.852V9.97843C305.79 4.46749 301.326 0 295.819 0Z" fill="url(#svg1314459238_12747_paint0_linear_54646_1237)"/>
</mask>
<g mask="url(#svg1314459238_12747_mask0_54646_1237)">
<mask id="svg1314459238_12747_mask1_54646_1237" style="mask-type:alpha" maskUnits="userSpaceOnUse" x="0" y="0" width="306" height="233">
<path d="M295.819 0H9.97141C4.46435 0 0 4.46749 0 9.97843V222.852C0 228.363 4.46435 232.83 9.97141 232.83H295.819C301.326 232.83 305.79 228.363 305.79 222.852V9.97843C305.79 4.46749 301.326 0 295.819 0Z" fill="url(#svg1314459238_12747_paint1_linear_54646_1237)"/>
</mask>
<g mask="url(#svg1314459238_12747_mask1_54646_1237)">
<g filter="url(#svg1314459238_12747_filter0_d_54646_1237)">
<path d="M422.124 6.65234H13.296C9.62467 6.65234 6.64844 9.63067 6.64844 13.3046V246.135C6.64844 249.809 9.62467 252.787 13.296 252.787H422.124C425.795 252.787 428.772 249.809 428.772 246.135V13.3046C428.772 9.63067 425.795 6.65234 422.124 6.65234Z" fill="white" fill-opacity="0.01"/>
<path d="M422.124 6.65234H13.296C9.62467 6.65234 6.64844 9.63067 6.64844 13.3046V246.135C6.64844 249.809 9.62467 252.787 13.296 252.787H422.124C425.795 252.787 428.772 249.809 428.772 246.135V13.3046C428.772 9.63067 425.795 6.65234 422.124 6.65234Z" fill="url(#svg1314459238_12747_paint2_linear_54646_1237)" fill-opacity="0.04"/>
<path d="M35.3159 24.946C35.3159 25.0563 35.2721 25.1621 35.1941 25.24C35.1162 25.318 35.0104 25.3618 34.9001 25.3618C34.7899 25.3618 34.6841 25.318 34.6061 25.24C34.5282 25.1621 34.4844 25.0563 34.4844 24.946C34.4844 24.8358 34.5282 24.73 34.6061 24.652C34.6841 24.5741 34.7899 24.5303 34.9001 24.5303C35.0104 24.5303 35.1162 24.5741 35.1941 24.652C35.2721 24.73 35.3159 24.8358 35.3159 24.946ZM35.3159 29.9353C35.3159 30.0455 35.2721 30.1513 35.1941 30.2292C35.1162 30.3072 35.0104 30.351 34.9001 30.351C34.7899 30.351 34.6841 30.3072 34.6061 30.2292C34.5282 30.1513 34.4844 30.0455 34.4844 29.9353C34.4844 29.825 34.5282 29.7192 34.6061 29.6413C34.6841 29.5633 34.7899 29.5195 34.9001 29.5195C35.0104 29.5195 35.1162 29.5633 35.1941 29.6413C35.2721 29.7192 35.3159 29.825 35.3159 29.9353ZM35.3159 34.9245C35.3159 35.0347 35.2721 35.1405 35.1941 35.2185C35.1162 35.2964 35.0104 35.3402 34.9001 35.3402C34.7899 35.3402 34.6841 35.2964 34.6061 35.2185C34.5282 35.1405 34.4844 35.0347 34.4844 34.9245C34.4844 34.8142 34.5282 34.7084 34.6061 34.6305C34.6841 34.5525 34.7899 34.5087 34.9001 34.5087C35.0104 34.5087 35.1162 34.5525 35.1941 34.6305C35.2721 34.7084 35.3159 34.8142 35.3159 34.9245Z" stroke="white" stroke-opacity="0.5" stroke-linecap="round" stroke-linejoin="round"/>
<path d="M38.0176 24.9463H45.0807M38.0176 29.9355H45.0807M38.0176 34.9247H45.0807" stroke="white" stroke-opacity="0.5" stroke-width="1.5" stroke-linecap="round" stroke-linejoin="round"/>
<path d="M39.8874 62.573C40.6036 62.573 41.2905 62.2882 41.797 61.7814C42.3034 61.2746 42.588 60.5872 42.588 59.8705C42.588 59.1537 42.3034 58.4663 41.797 57.9595C41.2905 57.4527 40.6036 57.168 39.8874 57.168C39.1711 57.168 38.4842 57.4527 37.9778 57.9595C37.4713 58.4663 37.1868 59.1537 37.1868 59.8705C37.1868 60.5872 37.4713 61.2746 37.9778 61.7814C38.4842 62.2882 39.1711 62.573 39.8874 62.573ZM35.6055 69.2252H44.1684C45.1174 69.2252 45.8486 68.4087 45.4057 67.5688C44.7534 66.334 43.2677 64.8597 39.8874 64.8597C36.5071 64.8597 35.0205 66.334 34.369 67.5688C33.9261 68.4087 34.6565 69.2252 35.6055 69.2252Z" stroke="white" stroke-opacity="0.5" stroke-width="1.5" stroke-linecap="round" stroke-linejoin="round"/>
<path d="M222.695 85.6484H19.9434V87.3115H222.695V85.6484Z" fill="white" fill-opacity="0.1"/>
<mask id="svg1314459238_12747_mask2_54646_1237" style="mask-type:luminance" maskUnits="userSpaceOnUse" x="19" y="99" width="194" height="111">
<path d="M207.738 99.7842H24.9291C22.1755 99.7842 19.9434 102.018 19.9434 104.773V204.558C19.9434 207.313 22.1755 209.547 24.9291 209.547H207.738C210.492 209.547 212.724 207.313 212.724 204.558V104.773C212.724 102.018 210.492 99.7842 207.738 99.7842Z" fill="white"/>
</mask>
<g mask="url(#svg1314459238_12747_mask2_54646_1237)">
<path d="M19.9434 104.773C19.9434 103.45 20.4686 102.181 21.4036 101.245C22.3386 100.31 23.6068 99.7842 24.9291 99.7842H207.738C209.061 99.7842 210.329 100.31 211.264 101.245C212.199 102.181 212.724 103.45 212.724 104.773V143.024H19.9434V104.773Z" fill="white" fill-opacity="0.05"/>
<path d="M56.5045 121.404C56.5045 114.056 50.552 108.1 43.2093 108.1C35.8665 108.1 29.9141 114.056 29.9141 121.404C29.9141 128.752 35.8665 134.709 43.2093 134.709C50.552 134.709 56.5045 128.752 56.5045 121.404Z" fill="white" fill-opacity="0.1"/>
<mask id="svg1314459238_12747_mask3_54646_1237" style="mask-type:luminance" maskUnits="userSpaceOnUse" x="34" y="115" width="18" height="13">
<path d="M34.9004 115.583H51.5194V127.225H34.9004V115.583Z" fill="white"/>
</mask>
<g mask="url(#svg1314459238_12747_mask3_54646_1237)">
<path fill-rule="evenodd" clip-rule="evenodd" d="M39.0493 117.293L34.9004 121.404C35.73 122.225 36.6775 122.919 37.7115 123.461C38.0072 124.235 38.4654 124.937 39.0551 125.52C41.3494 127.792 45.0704 127.792 47.3647 125.52C47.9544 124.937 48.4126 124.235 48.7083 123.461C49.7423 122.919 50.6898 122.225 51.5194 121.404L47.3738 117.297C47.3705 117.294 47.3675 117.291 47.3647 117.287C45.0704 115.015 41.3494 115.015 39.0551 117.287C39.0534 117.29 39.0515 117.292 39.0493 117.293ZM46.9683 124.202C45.7567 124.607 44.4874 124.813 43.2099 124.813C41.9302 124.813 40.6614 124.607 39.4523 124.202C39.8943 124.779 40.4631 125.246 41.1148 125.568C41.7664 125.89 42.4833 126.058 43.2099 126.058C43.9366 126.058 44.6534 125.89 45.3051 125.568C45.9567 125.246 46.5263 124.779 46.9683 124.202ZM39.9717 118.028C40.7761 118.552 41.6954 118.874 42.651 118.964C43.6065 119.055 44.5698 118.913 45.4585 118.55C45.8045 118.408 46.1362 118.233 46.4489 118.028C45.5713 117.205 44.4134 116.747 43.2103 116.747C42.0072 116.747 40.8493 117.205 39.9717 118.028Z" fill="white"/>
</g>
<path d="M56.0896 121.404C56.0896 114.286 50.3231 108.516 43.2098 108.516C36.0965 108.516 30.3301 114.286 30.3301 121.404C30.3301 128.523 36.0965 134.293 43.2098 134.293C50.3231 134.293 56.0896 128.523 56.0896 121.404Z" stroke="white" stroke-opacity="0.1"/>
<path d="M212.724 143.856H19.9434V142.193H212.724V143.856Z" fill="white" fill-opacity="0.1"/>
<path d="M19.9434 143.024H212.724V209.547H19.9434V143.024Z" fill="white" fill-opacity="0.05"/>
<path d="M202.753 149.677H29.9156C28.0799 149.677 26.5918 151.166 26.5918 153.003V172.96C26.5918 174.797 28.0799 176.286 29.9156 176.286H202.753C204.589 176.286 206.077 174.797 206.077 172.96V153.003C206.077 151.166 204.589 149.677 202.753 149.677Z" fill="white" fill-opacity="0.05"/>
<path d="M61.4916 164.54C61.9048 164.54 62.3011 164.376 62.5933 164.083C62.8855 163.791 63.0497 163.395 63.0497 162.981C63.0497 162.567 62.8855 162.171 62.5933 161.879C62.3011 161.586 61.9048 161.422 61.4916 161.422C61.0784 161.422 60.6821 161.586 60.3899 161.879C60.0977 162.171 59.9336 162.567 59.9336 162.981C59.9336 163.395 60.0977 163.791 60.3899 164.083C60.6821 164.376 61.0784 164.54 61.4916 164.54Z" fill="white" fill-opacity="0.1"/>
<path d="M202.752 150.092H29.9142C28.308 150.092 27.0059 151.395 27.0059 153.002V172.959C27.0059 174.566 28.308 175.869 29.9142 175.869H202.752C204.358 175.869 205.66 174.566 205.66 172.959V153.002C205.66 151.395 204.358 150.092 202.752 150.092Z" stroke="white" stroke-opacity="0.1"/>
<path d="M61.4916 191.15C61.9048 191.15 62.3011 190.985 62.5933 190.693C62.8855 190.4 63.0497 190.004 63.0497 189.59C63.0497 189.177 62.8855 188.78 62.5933 188.488C62.3011 188.196 61.9048 188.031 61.4916 188.031C61.0784 188.031 60.6821 188.196 60.3899 188.488C60.0977 188.78 59.9336 189.177 59.9336 189.59C59.9336 190.004 60.0977 190.4 60.3899 190.693C60.6821 190.985 61.0784 191.15 61.4916 191.15Z" fill="white" fill-opacity="0.1"/>
</g>
<path d="M207.739 100.2H24.9296C22.4055 100.2 20.3594 102.248 20.3594 104.774V204.558C20.3594 207.084 22.4055 209.131 24.9296 209.131H207.739C210.263 209.131 212.309 207.084 212.309 204.558V104.774C212.309 102.248 210.263 100.2 207.739 100.2Z" stroke="white" stroke-opacity="0.1"/>
<path d="M207.739 100.2H24.9296C22.4055 100.2 20.3594 102.248 20.3594 104.774V204.558C20.3594 207.084 22.4055 209.131 24.9296 209.131H207.739C210.263 209.131 212.309 207.084 212.309 204.558V104.774C212.309 102.248 210.263 100.2 207.739 100.2Z" stroke="url(#svg1314459238_12747_paint3_linear_54646_1237)" stroke-opacity="0.16"/>
<path d="M345.676 85.6484H222.695V87.3115H345.676V85.6484Z" fill="white" fill-opacity="0.1"/>
<path d="M406.335 99.7842H240.976C238.222 99.7842 235.99 102.018 235.99 104.773V157.992C235.99 160.747 238.222 162.981 240.976 162.981H406.335C409.089 162.981 411.321 160.747 411.321 157.992V104.773C411.321 102.018 409.089 99.7842 406.335 99.7842Z" fill="white" fill-opacity="0.05"/>
<path d="M406.336 100.2H240.976C238.452 100.2 236.406 102.248 236.406 104.774V157.992C236.406 160.518 238.452 162.565 240.976 162.565H406.336C408.86 162.565 410.906 160.518 410.906 157.992V104.774C410.906 102.248 408.86 100.2 406.336 100.2Z" stroke="white" stroke-opacity="0.1"/>
<path d="M406.335 176.285H240.976C238.222 176.285 235.99 178.519 235.99 181.274V234.493C235.99 237.248 238.222 239.482 240.976 239.482H406.335C409.089 239.482 411.321 237.248 411.321 234.493V181.274C411.321 178.519 409.089 176.285 406.335 176.285Z" fill="white" fill-opacity="0.05"/>
<path d="M406.336 176.701H240.976C238.452 176.701 236.406 178.749 236.406 181.275V234.493C236.406 237.019 238.452 239.066 240.976 239.066H406.336C408.86 239.066 410.906 237.019 410.906 234.493V181.275C410.906 178.749 408.86 176.701 406.336 176.701Z" stroke="white" stroke-opacity="0.1"/>
<path d="M223.527 239.482V6.65234H221.865V239.482H223.527Z" fill="white" fill-opacity="0.1"/>
<path d="M422.125 7.06836H13.2966C9.85467 7.06836 7.06445 9.86054 7.06445 13.3049V246.135C7.06445 249.579 9.85467 252.371 13.2966 252.371H422.125C425.566 252.371 428.357 249.579 428.357 246.135V13.3049C428.357 9.86054 425.566 7.06836 422.125 7.06836Z" stroke="white" stroke-opacity="0.05"/>
<path d="M422.125 7.06836H13.2966C9.85467 7.06836 7.06445 9.86054 7.06445 13.3049V246.135C7.06445 249.579 9.85467 252.371 13.2966 252.371H422.125C425.566 252.371 428.357 249.579 428.357 246.135V13.3049C428.357 9.86054 425.566 7.06836 422.125 7.06836Z" stroke="url(#svg1314459238_12747_paint4_linear_54646_1237)" stroke-opacity="0.16"/>
</g>
</g>
</g>
</g>
<defs>
<filter id="svg1314459238_12747_filter0_d_54646_1237" x="-25.4355" y="-9.43164" width="486.293" height="310.303" filterUnits="userSpaceOnUse" color-interpolation-filters="sRGB">
<feFlood flood-opacity="0" result="BackgroundImageFix"/>
<feColorMatrix in="SourceAlpha" type="matrix" values="0 0 0 0 0 0 0 0 0 0 0 0 0 0 0 0 0 0 127 0" result="hardAlpha"/>
<feOffset dy="16"/>
<feGaussianBlur stdDeviation="16"/>
<feComposite in2="hardAlpha" operator="out"/>
<feColorMatrix type="matrix" values="0 0 0 0 0 0 0 0 0 0 0 0 0 0 0 0 0 0 0.12 0"/>
<feBlend mode="normal" in2="BackgroundImageFix" result="effect1_dropShadow_54646_1237"/>
<feBlend mode="normal" in="SourceGraphic" in2="effect1_dropShadow_54646_1237" result="shape"/>
</filter>
<linearGradient id="svg1314459238_12747_paint0_linear_54646_1237" x1="0" y1="116.415" x2="305.79" y2="116.415" gradientUnits="userSpaceOnUse">
<stop stop-color="#D9D9D9"/>
<stop offset="0.25" stop-color="#D9D9D9"/>
<stop offset="0.5" stop-color="#D9D9D9"/>
<stop offset="1" stop-color="#D9D9D9" stop-opacity="0"/>
</linearGradient>
<linearGradient id="svg1314459238_12747_paint1_linear_54646_1237" x1="152.895" y1="0" x2="152.895" y2="232.83" gradientUnits="userSpaceOnUse">
<stop stop-color="#D9D9D9"/>
<stop offset="0.25" stop-color="#D9D9D9"/>
<stop offset="0.5" stop-color="#D9D9D9"/>
<stop offset="0.75" stop-color="#D9D9D9"/>
<stop offset="1" stop-color="#D9D9D9" stop-opacity="0"/>
</linearGradient>
<linearGradient id="svg1314459238_12747_paint2_linear_54646_1237" x1="217.71" y1="6.65234" x2="217.71" y2="252.787" gradientUnits="userSpaceOnUse">
<stop stop-color="white"/>
<stop offset="0.328" stop-color="white" stop-opacity="0.24"/>
</linearGradient>
<linearGradient id="svg1314459238_12747_paint3_linear_54646_1237" x1="116.334" y1="99.7844" x2="116.334" y2="209.547" gradientUnits="userSpaceOnUse">
<stop stop-color="white"/>
<stop offset="1" stop-color="white" stop-opacity="0"/>
</linearGradient>
<linearGradient id="svg1314459238_12747_paint4_linear_54646_1237" x1="199.713" y1="6.65259" x2="199.713" y2="308.167" gradientUnits="userSpaceOnUse">
<stop stop-color="white"/>
<stop offset="1" stop-color="white" stop-opacity="0"/>
</linearGradient>
<clipPath id="svg1314459238_12747_clip0_54646_1237">
<rect width="305.79" height="232.83" fill="white"/>
</clipPath>
</defs>
</svg>