<svg xmlns="http://www.w3.org/2000/svg" width="1440" height="804" viewBox="0 0 1440 804" fill="none" id="svg-1299630908_20233">
<mask id="svg-1299630908_20233_mask0_54646_1066" style="mask-type:alpha" maskUnits="userSpaceOnUse" x="0" y="0" width="1440" height="804">
<rect width="1440" height="804" rx="16" fill="url(#svg-1299630908_20233_paint0_diamond_54646_1066)"/>
</mask>
<g mask="url(#svg-1299630908_20233_mask0_54646_1066)">
<g opacity="0.2">
<path d="M754.486 44.1872L815.543 102.804M627.675 -4.50934L491.471 -16.2326M622.039 -176.751L669.945 -64.0274M766.697 -25.2505L942.354 -84.7685" stroke="white" stroke-opacity="0.5" stroke-width="2.26088"/>
<path d="M700.945 360.715C908.458 360.715 1076.68 199.217 1076.68 -0.000366211C1076.68 -199.218 908.458 -360.716 700.945 -360.716C493.432 -360.716 325.209 -199.218 325.209 -0.000366211C325.209 199.217 493.432 360.715 700.945 360.715Z" fill="white" fill-opacity="0.03"/>
<path d="M700.945 360.715C908.458 360.715 1076.68 199.217 1076.68 -0.000366211C1076.68 -199.218 908.458 -360.716 700.945 -360.716C493.432 -360.716 325.209 -199.218 325.209 -0.000366211C325.209 199.217 493.432 360.715 700.945 360.715Z" fill="url(#svg-1299630908_20233_paint1_linear_54646_1066)" fill-opacity="0.04"/>
<path d="M700.945 359.814C907.939 359.814 1075.74 198.72 1075.74 0.000213623C1075.74 -198.719 907.939 -359.813 700.945 -359.813C493.95 -359.813 326.148 -198.719 326.148 0.000213623C326.148 198.72 493.95 359.814 700.945 359.814Z" stroke="url(#svg-1299630908_20233_paint2_linear_54646_1066)" stroke-opacity="0.08" stroke-width="2.26088"/>
<path d="M700.944 288.572C866.954 288.572 1001.53 159.374 1001.53 9.15527e-05C1001.53 -159.374 866.954 -288.572 700.944 -288.572C534.934 -288.572 400.355 -159.374 400.355 9.15527e-05C400.355 159.374 534.934 288.572 700.944 288.572Z" fill="white" fill-opacity="0.03"/>
<path d="M700.944 288.572C866.954 288.572 1001.53 159.374 1001.53 9.15527e-05C1001.53 -159.374 866.954 -288.572 700.944 -288.572C534.934 -288.572 400.355 -159.374 400.355 9.15527e-05C400.355 159.374 534.934 288.572 700.944 288.572Z" fill="url(#svg-1299630908_20233_paint3_linear_54646_1066)" fill-opacity="0.04"/>
<path d="M700.946 287.672C866.438 287.672 1000.6 158.878 1000.6 0.00161743C1000.6 -158.874 866.438 -287.669 700.946 -287.669C535.454 -287.669 401.297 -158.874 401.297 0.00161743C401.297 158.878 535.454 287.672 700.946 287.672Z" stroke="url(#svg-1299630908_20233_paint4_linear_54646_1066)" stroke-opacity="0.08" stroke-width="2.26088"/>
<path d="M700.945 216.429C825.453 216.429 926.387 119.53 926.387 -0.000411987C926.387 -119.531 825.453 -216.43 700.945 -216.43C576.437 -216.43 475.504 -119.531 475.504 -0.000411987C475.504 119.53 576.437 216.429 700.945 216.429Z" fill="white" fill-opacity="0.03"/>
<path d="M700.945 216.429C825.453 216.429 926.387 119.53 926.387 -0.000411987C926.387 -119.531 825.453 -216.43 700.945 -216.43C576.437 -216.43 475.504 -119.531 475.504 -0.000411987C475.504 119.53 576.437 216.429 700.945 216.429Z" fill="url(#svg-1299630908_20233_paint5_linear_54646_1066)" fill-opacity="0.04"/>
<path d="M700.945 215.528C824.934 215.528 925.447 119.033 925.447 0.000137329C925.447 -119.032 824.934 -215.527 700.945 -215.527C576.956 -215.527 476.443 -119.032 476.443 0.000137329C476.443 119.033 576.956 215.528 700.945 215.528Z" stroke="url(#svg-1299630908_20233_paint6_linear_54646_1066)" stroke-opacity="0.08" stroke-width="2.26088"/>
<path d="M700.947 144.286C783.952 144.286 851.241 79.6871 851.241 4.57764e-05C851.241 -79.687 783.952 -144.286 700.947 -144.286C617.941 -144.286 550.652 -79.687 550.652 4.57764e-05C550.652 79.6871 617.941 144.286 700.947 144.286Z" fill="white" fill-opacity="0.03"/>
<path d="M700.947 144.286C783.952 144.286 851.241 79.6871 851.241 4.57764e-05C851.241 -79.687 783.952 -144.286 700.947 -144.286C617.941 -144.286 550.652 -79.687 550.652 4.57764e-05C550.652 79.6871 617.941 144.286 700.947 144.286Z" fill="url(#svg-1299630908_20233_paint7_linear_54646_1066)" fill-opacity="0.04"/>
<path d="M700.947 143.384C783.433 143.384 850.302 79.1886 850.302 -0.00038147C850.302 -79.1894 783.433 -143.385 700.947 -143.385C618.46 -143.385 551.592 -79.1894 551.592 -0.00038147C551.592 79.1886 618.46 143.384 700.947 143.384Z" stroke="url(#svg-1299630908_20233_paint8_linear_54646_1066)" stroke-opacity="0.08" stroke-width="2.26088"/>
<path d="M700.946 180.357C804.703 180.357 888.814 99.6082 888.814 -0.000671387C888.814 -99.6095 804.703 -180.358 700.946 -180.358C597.189 -180.358 513.078 -99.6095 513.078 -0.000671387C513.078 99.6082 597.189 180.357 700.946 180.357Z" stroke="white" stroke-width="2.26088" stroke-miterlimit="16" stroke-linecap="round" stroke-linejoin="round" stroke-dasharray="0.02 9.04"/>
<path d="M700.945 252.502C846.204 252.502 963.96 139.453 963.96 0.000823975C963.96 -139.452 846.204 -252.5 700.945 -252.5C555.685 -252.5 437.93 -139.452 437.93 0.000823975C437.93 139.453 555.685 252.502 700.945 252.502Z" stroke="white" stroke-width="2.26088" stroke-miterlimit="16" stroke-linecap="round" stroke-linejoin="round" stroke-dasharray="0.02 9.04"/>
<path d="M700.945 324.644C887.707 324.644 1039.11 179.296 1039.11 0.000335693C1039.11 -179.296 887.707 -324.644 700.945 -324.644C514.184 -324.644 362.783 -179.296 362.783 0.000335693C362.783 179.296 514.184 324.644 700.945 324.644Z" stroke="white" stroke-width="2.26088" stroke-miterlimit="16" stroke-linecap="round" stroke-linejoin="round" stroke-dasharray="0.02 9.04"/>
<path d="M700.948 72.1436C742.451 72.1436 776.095 39.844 776.095 0.000511169C776.095 -39.843 742.451 -72.1426 700.948 -72.1426C659.445 -72.1426 625.801 -39.843 625.801 0.000511169C625.801 39.844 659.445 72.1436 700.948 72.1436Z" fill="white" fill-opacity="0.03"/>
<path d="M700.948 72.1436C742.451 72.1436 776.095 39.844 776.095 0.000511169C776.095 -39.843 742.451 -72.1426 700.948 -72.1426C659.445 -72.1426 625.801 -39.843 625.801 0.000511169C625.801 39.844 659.445 72.1436 700.948 72.1436Z" fill="url(#svg-1299630908_20233_paint9_linear_54646_1066)" fill-opacity="0.04"/>
<path d="M700.948 71.2424C741.932 71.2424 775.156 39.3466 775.156 0.00106812C775.156 -39.3444 741.932 -71.2402 700.948 -71.2402C659.964 -71.2402 626.74 -39.3444 626.74 0.00106812C626.74 39.3466 659.964 71.2424 700.948 71.2424Z" stroke="url(#svg-1299630908_20233_paint10_linear_54646_1066)" stroke-opacity="0.08" stroke-width="2.26088"/>
<path d="M700.948 71.2424C741.932 71.2424 775.156 39.3466 775.156 0.00106812C775.156 -39.3444 741.932 -71.2402 700.948 -71.2402C659.964 -71.2402 626.74 -39.3444 626.74 0.00106812C626.74 39.3466 659.964 71.2424 700.948 71.2424Z" stroke="white" stroke-opacity="0.5" stroke-width="2.26088"/>
<path d="M700.947 108.215C763.201 108.215 813.668 59.7661 813.668 0.000770569C813.668 -59.7645 763.201 -108.214 700.947 -108.214C638.693 -108.214 588.227 -59.7645 588.227 0.000770569C588.227 59.7661 638.693 108.215 700.947 108.215Z" stroke="white" stroke-width="2.26088" stroke-miterlimit="16" stroke-linecap="round" stroke-linejoin="round" stroke-dasharray="0.02 9.04"/>
<g filter="url(#svg-1299630908_20233_filter0_d_54646_1066)">
</g>
<path d="M492.412 -28.8581C492.412 -84.639 445.31 -129.858 387.206 -129.858C329.102 -129.858 282 -84.639 282 -28.8581C282 26.9229 329.102 72.1423 387.206 72.1423C445.31 72.1423 492.412 26.9229 492.412 -28.8581Z" fill="white" fill-opacity="0.02"/>
<g filter="url(#svg-1299630908_20233_filter1_d_54646_1066)">
<path d="M387.208 57.7128C437.011 57.7128 477.384 18.9533 477.384 -28.8589C477.384 -76.6712 437.011 -115.431 387.208 -115.431C337.405 -115.431 297.031 -76.6712 297.031 -28.8589C297.031 18.9533 337.405 57.7128 387.208 57.7128Z" fill="white" fill-opacity="0.03"/>
<path d="M387.208 57.7128C437.011 57.7128 477.384 18.9533 477.384 -28.8589C477.384 -76.6712 437.011 -115.431 387.208 -115.431C337.405 -115.431 297.031 -76.6712 297.031 -28.8589C297.031 18.9533 337.405 57.7128 387.208 57.7128Z" fill="url(#svg-1299630908_20233_paint11_linear_54646_1066)" fill-opacity="0.04"/>
<path d="M387.21 56.8115C436.494 56.8115 476.447 18.4558 476.447 -28.8584C476.447 -76.1726 436.494 -114.528 387.21 -114.528C337.926 -114.528 297.973 -76.1726 297.973 -28.8584C297.973 18.4558 337.926 56.8115 387.21 56.8115Z" stroke="white" stroke-opacity="0.05" stroke-width="2.26088"/>
<path d="M387.21 56.8115C436.494 56.8115 476.447 18.4558 476.447 -28.8584C476.447 -76.1726 436.494 -114.528 387.21 -114.528C337.926 -114.528 297.973 -76.1726 297.973 -28.8584C297.973 18.4558 337.926 56.8115 387.21 56.8115Z" stroke="url(#svg-1299630908_20233_paint12_linear_54646_1066)" stroke-opacity="0.16" stroke-width="2.26088"/>
</g>
<path d="M491.475 -28.8565C491.475 -84.1394 444.793 -128.955 387.208 -128.955C329.623 -128.955 282.941 -84.1394 282.941 -28.8565C282.941 26.4264 329.623 71.242 387.208 71.242C444.793 71.242 491.475 26.4264 491.475 -28.8565Z" stroke="url(#svg-1299630908_20233_paint13_linear_54646_1066)" stroke-opacity="0.12" stroke-width="2.26088"/>
<path d="M491.475 -28.8565C491.475 -84.1394 444.793 -128.955 387.208 -128.955C329.623 -128.955 282.941 -84.1394 282.941 -28.8565C282.941 26.4264 329.623 71.242 387.208 71.242C444.793 71.242 491.475 26.4264 491.475 -28.8565Z" stroke="url(#svg-1299630908_20233_paint14_linear_54646_1066)" stroke-opacity="0.5" stroke-width="2.26088"/>
<path d="M975.232 155.108C975.232 107.296 934.859 68.5361 885.055 68.5361C835.252 68.5361 794.879 107.296 794.879 155.108C794.879 202.92 835.252 241.68 885.055 241.68C934.859 241.68 975.232 202.92 975.232 155.108Z" fill="white" fill-opacity="0.02"/>
<g filter="url(#svg-1299630908_20233_filter2_d_54646_1066)">
<path d="M885.057 227.25C926.56 227.25 960.204 194.95 960.204 155.107C960.204 115.263 926.56 82.9639 885.057 82.9639C843.555 82.9639 809.91 115.263 809.91 155.107C809.91 194.95 843.555 227.25 885.057 227.25Z" fill="white" fill-opacity="0.03"/>
<path d="M885.057 227.25C926.56 227.25 960.204 194.95 960.204 155.107C960.204 115.263 926.56 82.9639 885.057 82.9639C843.555 82.9639 809.91 115.263 809.91 155.107C809.91 194.95 843.555 227.25 885.057 227.25Z" fill="url(#svg-1299630908_20233_paint15_linear_54646_1066)" fill-opacity="0.04"/>
<path d="M885.057 226.349C926.041 226.349 959.265 194.453 959.265 155.108C959.265 115.762 926.041 83.8662 885.057 83.8662C844.074 83.8662 810.85 115.762 810.85 155.108C810.85 194.453 844.074 226.349 885.057 226.349Z" stroke="white" stroke-opacity="0.05" stroke-width="2.26088"/>
<path d="M885.057 226.349C926.041 226.349 959.265 194.453 959.265 155.108C959.265 115.762 926.041 83.8662 885.057 83.8662C844.074 83.8662 810.85 115.762 810.85 155.108C810.85 194.453 844.074 226.349 885.057 226.349Z" stroke="url(#svg-1299630908_20233_paint16_linear_54646_1066)" stroke-opacity="0.16" stroke-width="2.26088"/>
</g>
<path d="M974.295 155.107C974.295 107.793 934.342 69.4375 885.058 69.4375C835.773 69.4375 795.82 107.793 795.82 155.107C795.82 202.422 835.773 240.777 885.058 240.777C934.342 240.777 974.295 202.422 974.295 155.107Z" stroke="url(#svg-1299630908_20233_paint17_linear_54646_1066)" stroke-opacity="0.12" stroke-width="2.26088"/>
<path d="M974.295 155.107C974.295 107.793 934.342 69.4375 885.058 69.4375C835.773 69.4375 795.82 107.793 795.82 155.107C795.82 202.422 835.773 240.777 885.058 240.777C934.342 240.777 974.295 202.422 974.295 155.107Z" stroke="url(#svg-1299630908_20233_paint18_linear_54646_1066)" stroke-opacity="0.5" stroke-width="2.26088"/>
<mask id="svg-1299630908_20233_mask1_54646_1066" style="mask-type:luminance" maskUnits="userSpaceOnUse" x="655" y="-44" width="92" height="88">
<path d="M655.857 -43.2852H746.034V43.2866H655.857V-43.2852Z" fill="white"/>
</mask>
<g mask="url(#svg-1299630908_20233_mask1_54646_1066)">
<path d="M664.875 0.000701904C664.875 -19.1262 681.022 -34.628 700.946 -34.628C720.869 -34.628 737.016 -19.1262 737.016 0.000701904H746.034C746.034 -23.9057 725.848 -43.2852 700.946 -43.2852C676.044 -43.2852 655.857 -23.9057 655.857 0.000701904H664.875Z" fill="url(#svg-1299630908_20233_paint19_linear_54646_1066)" fill-opacity="0.5"/>
<path d="M737.016 0.000976562C737.016 19.1279 720.869 34.6297 700.946 34.6297C681.022 34.6297 664.875 19.1279 664.875 0.000976562H655.857C655.857 23.9074 676.044 43.2868 700.946 43.2868C725.848 43.2868 746.034 23.9074 746.034 0.000976562H737.016Z" fill="url(#svg-1299630908_20233_paint20_linear_54646_1066)" fill-opacity="0.5"/>
<path d="M678.4 0.000976562C678.4 11.9551 688.493 21.6439 700.945 21.6439C713.395 21.6439 723.489 11.9551 723.489 0.000976562H732.506C732.506 16.7346 718.373 30.3011 700.945 30.3011C683.514 30.3011 669.383 16.7346 669.383 0.000976562H678.4Z" fill="url(#svg-1299630908_20233_paint21_linear_54646_1066)" fill-opacity="0.5"/>
<path d="M709.961 0.000976562C709.913 2.2664 708.942 4.42343 707.256 6.00923C705.57 7.59503 703.304 8.48323 700.944 8.48323C698.583 8.48323 696.317 7.59503 694.631 6.00923C692.945 4.42343 691.974 2.2664 691.926 0.000976562H682.908C682.908 4.59303 684.808 8.99699 688.191 12.2441C691.573 15.4911 696.16 17.3153 700.944 17.3153C705.727 17.3153 710.314 15.4911 713.696 12.2441C717.079 8.99699 718.979 4.59303 718.979 0.000976562H709.961Z" fill="url(#svg-1299630908_20233_paint22_linear_54646_1066)" fill-opacity="0.5"/>
</g>
</g>
</g>
<defs>
<filter id="svg-1299630908_20233_filter0_d_54646_1066" x="874.517" y="-254.635" width="340.462" height="332.725" filterUnits="userSpaceOnUse" color-interpolation-filters="sRGB">
<feFlood flood-opacity="0" result="BackgroundImageFix"/>
<feColorMatrix in="SourceAlpha" type="matrix" values="0 0 0 0 0 0 0 0 0 0 0 0 0 0 0 0 0 0 127 0" result="hardAlpha"/>
<feOffset dy="36.174"/>
<feGaussianBlur stdDeviation="36.174"/>
<feComposite in2="hardAlpha" operator="out"/>
<feColorMatrix type="matrix" values="0 0 0 0 0 0 0 0 0 0 0 0 0 0 0 0 0 0 0.12 0"/>
<feBlend mode="normal" in2="BackgroundImageFix" result="effect1_dropShadow_54646_1066"/>
<feBlend mode="normal" in="SourceGraphic" in2="effect1_dropShadow_54646_1066" result="shape"/>
</filter>
<filter id="svg-1299630908_20233_filter1_d_54646_1066" x="224.494" y="-151.833" width="325.432" height="318.298" filterUnits="userSpaceOnUse" color-interpolation-filters="sRGB">
<feFlood flood-opacity="0" result="BackgroundImageFix"/>
<feColorMatrix in="SourceAlpha" type="matrix" values="0 0 0 0 0 0 0 0 0 0 0 0 0 0 0 0 0 0 127 0" result="hardAlpha"/>
<feOffset dy="36.174"/>
<feGaussianBlur stdDeviation="36.174"/>
<feComposite in2="hardAlpha" operator="out"/>
<feColorMatrix type="matrix" values="0 0 0 0 0 0 0 0 0 0 0 0 0 0 0 0 0 0 0.12 0"/>
<feBlend mode="normal" in2="BackgroundImageFix" result="effect1_dropShadow_54646_1066"/>
<feBlend mode="normal" in="SourceGraphic" in2="effect1_dropShadow_54646_1066" result="shape"/>
</filter>
<filter id="svg-1299630908_20233_filter2_d_54646_1066" x="737.371" y="46.5613" width="295.374" height="289.44" filterUnits="userSpaceOnUse" color-interpolation-filters="sRGB">
<feFlood flood-opacity="0" result="BackgroundImageFix"/>
<feColorMatrix in="SourceAlpha" type="matrix" values="0 0 0 0 0 0 0 0 0 0 0 0 0 0 0 0 0 0 127 0" result="hardAlpha"/>
<feOffset dy="36.174"/>
<feGaussianBlur stdDeviation="36.174"/>
<feComposite in2="hardAlpha" operator="out"/>
<feColorMatrix type="matrix" values="0 0 0 0 0 0 0 0 0 0 0 0 0 0 0 0 0 0 0.12 0"/>
<feBlend mode="normal" in2="BackgroundImageFix" result="effect1_dropShadow_54646_1066"/>
<feBlend mode="normal" in="SourceGraphic" in2="effect1_dropShadow_54646_1066" result="shape"/>
</filter>
<radialGradient id="svg-1299630908_20233_paint0_diamond_54646_1066" cx="0" cy="0" r="1" gradientUnits="userSpaceOnUse" gradientTransform="translate(-428.25 -163.824) rotate(26.9525) scale(3171.2 3626.2)">
<stop/>
<stop offset="0.228042"/>
<stop offset="0.560632" stop-color="#22155C"/>
<stop offset="0.724369" stop-color="#3F259D"/>
<stop offset="0.839688" stop-color="#704AE7"/>
<stop offset="1" stop-color="#C6B8F6"/>
</radialGradient>
<linearGradient id="svg-1299630908_20233_paint1_linear_54646_1066" x1="700.945" y1="-360.716" x2="700.945" y2="360.715" gradientUnits="userSpaceOnUse">
<stop stop-color="white"/>
<stop offset="0.328" stop-color="white" stop-opacity="0.24"/>
</linearGradient>
<linearGradient id="svg-1299630908_20233_paint2_linear_54646_1066" x1="700.945" y1="-360.715" x2="700.945" y2="360.716" gradientUnits="userSpaceOnUse">
<stop stop-color="white"/>
<stop offset="1" stop-color="white" stop-opacity="0"/>
</linearGradient>
<linearGradient id="svg-1299630908_20233_paint3_linear_54646_1066" x1="700.944" y1="-288.572" x2="700.944" y2="288.572" gradientUnits="userSpaceOnUse">
<stop stop-color="white"/>
<stop offset="0.328" stop-color="white" stop-opacity="0.24"/>
</linearGradient>
<linearGradient id="svg-1299630908_20233_paint4_linear_54646_1066" x1="700.946" y1="-288.571" x2="700.946" y2="288.574" gradientUnits="userSpaceOnUse">
<stop stop-color="white"/>
<stop offset="1" stop-color="white" stop-opacity="0"/>
</linearGradient>
<linearGradient id="svg-1299630908_20233_paint5_linear_54646_1066" x1="700.945" y1="-216.43" x2="700.945" y2="216.429" gradientUnits="userSpaceOnUse">
<stop stop-color="white"/>
<stop offset="0.328" stop-color="white" stop-opacity="0.24"/>
</linearGradient>
<linearGradient id="svg-1299630908_20233_paint6_linear_54646_1066" x1="700.945" y1="-216.429" x2="700.945" y2="216.429" gradientUnits="userSpaceOnUse">
<stop stop-color="white"/>
<stop offset="1" stop-color="white" stop-opacity="0"/>
</linearGradient>
<linearGradient id="svg-1299630908_20233_paint7_linear_54646_1066" x1="700.947" y1="-144.286" x2="700.947" y2="144.286" gradientUnits="userSpaceOnUse">
<stop stop-color="white"/>
<stop offset="0.328" stop-color="white" stop-opacity="0.24"/>
</linearGradient>
<linearGradient id="svg-1299630908_20233_paint8_linear_54646_1066" x1="700.947" y1="-144.287" x2="700.947" y2="144.286" gradientUnits="userSpaceOnUse">
<stop stop-color="white"/>
<stop offset="1" stop-color="white" stop-opacity="0"/>
</linearGradient>
<linearGradient id="svg-1299630908_20233_paint9_linear_54646_1066" x1="700.948" y1="-72.1426" x2="700.948" y2="72.1436" gradientUnits="userSpaceOnUse">
<stop stop-color="white"/>
<stop offset="0.328" stop-color="white" stop-opacity="0.24"/>
</linearGradient>
<linearGradient id="svg-1299630908_20233_paint10_linear_54646_1066" x1="700.948" y1="-72.142" x2="700.948" y2="72.1442" gradientUnits="userSpaceOnUse">
<stop stop-color="white"/>
<stop offset="1" stop-color="white" stop-opacity="0"/>
</linearGradient>
<linearGradient id="svg-1299630908_20233_paint11_linear_54646_1066" x1="387.208" y1="-115.431" x2="387.208" y2="57.7128" gradientUnits="userSpaceOnUse">
<stop stop-color="white"/>
<stop offset="0.328" stop-color="white" stop-opacity="0.24"/>
</linearGradient>
<linearGradient id="svg-1299630908_20233_paint12_linear_54646_1066" x1="320.958" y1="-92.4616" x2="404.809" y2="-5.11933" gradientUnits="userSpaceOnUse">
<stop stop-color="white"/>
<stop offset="1" stop-color="white" stop-opacity="0"/>
</linearGradient>
<linearGradient id="svg-1299630908_20233_paint13_linear_54646_1066" x1="387.208" y1="-129.857" x2="387.208" y2="72.1438" gradientUnits="userSpaceOnUse">
<stop stop-color="white"/>
<stop offset="1" stop-color="white" stop-opacity="0"/>
</linearGradient>
<linearGradient id="svg-1299630908_20233_paint14_linear_54646_1066" x1="492.414" y1="-16.2315" x2="437.041" y2="-22.0971" gradientUnits="userSpaceOnUse">
<stop stop-color="white"/>
<stop offset="1" stop-color="white" stop-opacity="0"/>
</linearGradient>
<linearGradient id="svg-1299630908_20233_paint15_linear_54646_1066" x1="885.057" y1="82.9639" x2="885.057" y2="227.25" gradientUnits="userSpaceOnUse">
<stop stop-color="white"/>
<stop offset="0.328" stop-color="white" stop-opacity="0.24"/>
</linearGradient>
<linearGradient id="svg-1299630908_20233_paint16_linear_54646_1066" x1="829.847" y1="102.104" x2="899.724" y2="174.891" gradientUnits="userSpaceOnUse">
<stop stop-color="white"/>
<stop offset="1" stop-color="white" stop-opacity="0"/>
</linearGradient>
<linearGradient id="svg-1299630908_20233_paint17_linear_54646_1066" x1="885.058" y1="68.5357" x2="885.058" y2="241.679" gradientUnits="userSpaceOnUse">
<stop stop-color="white"/>
<stop offset="1" stop-color="white" stop-opacity="0"/>
</linearGradient>
<linearGradient id="svg-1299630908_20233_paint18_linear_54646_1066" x1="811.789" y1="103.705" x2="865.851" y2="160.019" gradientUnits="userSpaceOnUse">
<stop stop-color="white"/>
<stop offset="1" stop-color="white" stop-opacity="0"/>
</linearGradient>
<linearGradient id="svg-1299630908_20233_paint19_linear_54646_1066" x1="640.828" y1="-32.4637" x2="745.203" y2="2.48242" gradientUnits="userSpaceOnUse">
<stop stop-color="white"/>
<stop offset="1" stop-color="white" stop-opacity="0"/>
</linearGradient>
<linearGradient id="svg-1299630908_20233_paint20_linear_54646_1066" x1="761.063" y1="32.4654" x2="656.688" y2="-2.48075" gradientUnits="userSpaceOnUse">
<stop stop-color="white"/>
<stop offset="1" stop-color="white" stop-opacity="0"/>
</linearGradient>
<linearGradient id="svg-1299630908_20233_paint21_linear_54646_1066" x1="761.062" y1="32.4654" x2="656.687" y2="-2.48075" gradientUnits="userSpaceOnUse">
<stop stop-color="white"/>
<stop offset="1" stop-color="white" stop-opacity="0"/>
</linearGradient>
<linearGradient id="svg-1299630908_20233_paint22_linear_54646_1066" x1="761.061" y1="32.4654" x2="656.686" y2="-2.48075" gradientUnits="userSpaceOnUse">
<stop stop-color="white"/>
<stop offset="1" stop-color="white" stop-opacity="0"/>
</linearGradient>
</defs>
</svg>