<svg xmlns="http://www.w3.org/2000/svg" width="64" height="64" viewBox="0 0 64 64" fill="none" id="svg999526126_15390">
<g filter="url(#svg999526126_15390_filter0_d_54671_143)">
<rect width="64" height="64" rx="32" fill="white" fill-opacity="0.03" shape-rendering="crispEdges"/>
</g>
<path d="M37.3037 47.0041L35.6361 47.4535C35.3085 47.5417 35.1145 47.8788 35.2028 48.2064C35.291 48.5339 35.6281 48.7279 35.9557 48.6397L37.6234 48.1903C37.9509 48.1021 38.1449 47.765 38.0566 47.4374C37.9684 47.1099 37.6313 46.9159 37.3037 47.0041Z" fill="url(#svg999526126_15390_paint0_linear_54671_143)"/>
<path d="M31.6547 48.9935L33.3818 48.9911C33.7211 48.9906 33.9957 48.7152 33.9952 48.376C33.9948 48.0367 33.7194 47.7621 33.3801 47.7626L31.653 47.765C31.3137 47.7655 31.0391 48.0409 31.0396 48.3801C31.0401 48.7193 31.3155 48.994 31.6547 48.9935Z" fill="url(#svg999526126_15390_paint1_linear_54671_143)"/>
<path d="M27.7398 47.0275C27.4119 46.9403 27.0754 47.1352 26.9881 47.4631C26.9008 47.7909 27.0958 48.1274 27.4237 48.2147L29.0926 48.6591C29.4205 48.7464 29.757 48.5514 29.8443 48.2236C29.9316 47.8957 29.7366 47.5592 29.4087 47.4719L27.7398 47.0275Z" fill="url(#svg999526126_15390_paint2_linear_54671_143)"/>
<path d="M33.3629 16H31.6357C31.2965 16 31.0215 16.275 31.0215 16.6143C31.0215 16.9535 31.2965 17.2285 31.6357 17.2285H33.3629C33.7021 17.2285 33.9771 16.9535 33.9771 16.6143C33.9771 16.275 33.7021 16 33.3629 16Z" fill="url(#svg999526126_15390_paint3_linear_54671_143)"/>
<path d="M35.9287 16.3462C35.601 16.2585 35.2642 16.453 35.1765 16.7807C35.0887 17.1084 35.2832 17.4452 35.6109 17.5329L37.2793 17.9796C37.607 18.0674 37.9438 17.8729 38.0315 17.5452C38.1193 17.2175 37.9248 16.8807 37.5971 16.7929L35.9287 16.3462Z" fill="url(#svg999526126_15390_paint4_linear_54671_143)"/>
<path d="M39.9918 17.7791C39.698 17.6096 39.3223 17.7103 39.1527 18.0041C38.9832 18.2979 39.0839 18.6736 39.3777 18.8432L40.8736 19.7065C41.1674 19.876 41.5431 19.7753 41.7127 19.4815C41.8822 19.1877 41.7815 18.812 41.4877 18.6424L39.9918 17.7791Z" fill="url(#svg999526126_15390_paint5_linear_54671_143)"/>
<path d="M43.5392 20.2234C43.2992 19.9836 42.9103 19.9837 42.6705 20.2237C42.4307 20.4637 42.4309 20.8526 42.6708 21.0924L43.8925 22.3132C44.1325 22.553 44.5214 22.5529 44.7612 22.3129C45.001 22.073 45.0009 21.684 44.7609 21.4443L43.5392 20.2234Z" fill="url(#svg999526126_15390_paint6_linear_54671_143)"/>
<path d="M46.3437 23.4951C46.1739 23.2014 45.7982 23.1009 45.5045 23.2707C45.2108 23.4405 45.1103 23.8162 45.2801 24.1099L46.1444 25.6052C46.3142 25.8989 46.6899 25.9994 46.9836 25.8296C47.2773 25.6598 47.3778 25.2841 47.208 24.9904L46.3437 23.4951Z" fill="url(#svg999526126_15390_paint7_linear_54671_143)"/>
<path d="M48.2012 27.3958C48.1133 27.0681 47.7764 26.8738 47.4487 26.9618C47.1211 27.0498 46.9268 27.3867 47.0148 27.7143L47.4627 29.3824C47.5506 29.71 47.8875 29.9043 48.2152 29.8163C48.5428 29.7284 48.7371 29.3914 48.6491 29.0638L48.2012 27.3958Z" fill="url(#svg999526126_15390_paint8_linear_54671_143)"/>
<path d="M48.9919 33.3521L48.9907 31.625C48.9904 31.2858 48.7152 31.0109 48.376 31.0112C48.0367 31.0114 47.7619 31.2866 47.7622 31.6259L47.7634 33.353C47.7636 33.6922 48.0388 33.9671 48.378 33.9668C48.7173 33.9666 48.9921 33.6914 48.9919 33.3521Z" fill="url(#svg999526126_15390_paint9_linear_54671_143)"/>
<path d="M47.6478 35.5013L47.1988 37.1766C47.1106 37.5057 47.3058 37.844 47.6349 37.9322C47.964 38.0204 48.3022 37.8251 48.3904 37.496L48.8395 35.8207C48.9277 35.4917 48.7324 35.1534 48.4034 35.0652C48.0743 34.977 47.736 35.1722 47.6478 35.5013Z" fill="url(#svg999526126_15390_paint10_linear_54671_143)"/>
<path d="M46.1549 39.3656L45.2929 40.8623C45.1236 41.1562 45.2246 41.5318 45.5186 41.7011C45.8126 41.8704 46.1881 41.7694 46.3575 41.4754L47.2195 39.9787C47.3888 39.6848 47.2877 39.3092 46.9938 39.1399C46.6998 38.9706 46.3242 39.0716 46.1549 39.3656Z" fill="url(#svg999526126_15390_paint11_linear_54671_143)"/>
<path d="M43.9136 42.6717L42.6937 43.8943C42.454 44.1344 42.4544 44.5234 42.6946 44.763C42.9347 45.0026 43.3236 45.0022 43.5633 44.7621L44.7832 43.5395C45.0229 43.2994 45.0225 42.9105 44.7823 42.6708C44.5422 42.4312 44.1533 42.4316 43.9136 42.6717Z" fill="url(#svg999526126_15390_paint12_linear_54671_143)"/>
<path d="M41.0038 45.4729L39.5012 46.3364C39.2061 46.506 39.1043 46.8828 39.2739 47.178C39.4435 47.4731 39.8203 47.5749 40.1155 47.4052L41.6181 46.5417C41.9132 46.372 42.015 45.9953 41.8453 45.7001C41.6757 45.405 41.299 45.3032 41.0038 45.4729Z" fill="url(#svg999526126_15390_paint13_linear_54671_143)"/>
<path d="M24.1351 45.292C23.841 45.1229 23.4655 45.2242 23.2964 45.5183C23.1273 45.8124 23.2286 46.1879 23.5227 46.357L25.02 47.2179C25.3141 47.387 25.6896 47.2857 25.8587 46.9916C26.0278 46.6976 25.9265 46.3221 25.6324 46.1529L24.1351 45.292Z" fill="url(#svg999526126_15390_paint14_linear_54671_143)"/>
<path d="M21.1128 42.7079C20.8725 42.4685 20.4836 42.4691 20.2441 42.7094C20.0047 42.9497 20.0053 43.3387 20.2456 43.5781L21.4691 44.7973C21.7094 45.0367 22.0983 45.036 22.3377 44.7957C22.5772 44.5554 22.5765 44.1665 22.3362 43.9271L21.1128 42.7079Z" fill="url(#svg999526126_15390_paint15_linear_54671_143)"/>
<path d="M18.8572 39.4082C18.687 39.1148 18.3112 39.0148 18.0177 39.185C17.7242 39.3552 17.6243 39.7311 17.7945 40.0245L18.6609 41.5186C18.8311 41.8121 19.207 41.912 19.5004 41.7418C19.7939 41.5717 19.8938 41.1958 19.7237 40.9023L18.8572 39.4082Z" fill="url(#svg999526126_15390_paint16_linear_54671_143)"/>
<path d="M17.5376 35.6485C17.4491 35.321 17.1119 35.1273 16.7844 35.2158C16.4569 35.3042 16.2631 35.6415 16.3516 35.969L16.8021 37.6363C16.8906 37.9638 17.2279 38.1576 17.5554 38.0691C17.8829 37.9806 18.0766 37.6434 17.9881 37.3159L17.5376 35.6485Z" fill="url(#svg999526126_15390_paint17_linear_54671_143)"/>
<path d="M16.0025 31.6733L16.0064 33.4004C16.0072 33.7396 16.2828 34.014 16.6221 34.0133C16.9613 34.0125 17.2357 33.7369 17.2349 33.3976L17.231 31.6705C17.2302 31.3312 16.9546 31.0568 16.6154 31.0576C16.2761 31.0584 16.0017 31.334 16.0025 31.6733Z" fill="url(#svg999526126_15390_paint18_linear_54671_143)"/>
<path d="M16.7766 27.4304L16.3334 29.0997C16.2464 29.4276 16.4416 29.7639 16.7695 29.851C17.0973 29.9381 17.4337 29.7428 17.5208 29.4149L17.964 27.7456C18.0511 27.4178 17.8558 27.0814 17.528 26.9943C17.2001 26.9073 16.8637 27.1025 16.7766 27.4304Z" fill="url(#svg999526126_15390_paint19_linear_54671_143)"/>
<path d="M18.6247 23.5368L17.7648 25.0347C17.5959 25.3289 17.6975 25.7043 17.9917 25.8732C18.2859 26.0421 18.6613 25.9405 18.8302 25.6463L19.6901 24.1485C19.859 23.8543 19.7575 23.4788 19.4633 23.3099C19.1691 23.141 18.7936 23.2426 18.6247 23.5368Z" fill="url(#svg999526126_15390_paint20_linear_54671_143)"/>
<path d="M21.413 20.2531L20.1949 21.4776C19.9557 21.7181 19.9567 22.107 20.1972 22.3463C20.4377 22.5855 20.8266 22.5845 21.0659 22.344L22.284 21.1196C22.5232 20.879 22.5222 20.4901 22.2817 20.2509C22.0412 20.0116 21.6522 20.0126 21.413 20.2531Z" fill="url(#svg999526126_15390_paint21_linear_54671_143)"/>
<path d="M24.8671 17.799L23.3818 18.6626C23.09 18.8322 22.991 19.2062 23.1606 19.498C23.3303 19.7897 23.7043 19.8887 23.996 19.7191L25.4814 18.8555C25.7731 18.6859 25.8721 18.3119 25.7025 18.0202C25.5329 17.7284 25.1589 17.6294 24.8671 17.799Z" fill="url(#svg999526126_15390_paint22_linear_54671_143)"/>
<path d="M29.0158 16.3506L27.3487 16.8023C27.0213 16.891 26.8278 17.2283 26.9165 17.5558C27.0052 17.8832 27.3426 18.0767 27.67 17.988L29.3371 17.5363C29.6645 17.4476 29.858 17.1103 29.7693 16.7828C29.6806 16.4554 29.3432 16.2619 29.0158 16.3506Z" fill="url(#svg999526126_15390_paint23_linear_54671_143)"/>
<path d="M43.9143 32.7659C43.8569 31.1901 43.4911 29.6409 42.8376 28.206C42.1913 26.7907 41.2729 25.5163 40.1349 24.4554C39.0107 23.4113 37.6921 22.5986 36.2542 22.0634C34.8367 21.5345 33.3292 21.289 31.8171 21.3407C30.3183 21.3938 28.8448 21.7425 27.4812 22.3669C26.1469 22.9796 24.9462 23.8489 23.9474 24.9251C22.966 25.985 22.2024 27.2274 21.7 28.5817C21.2072 29.9171 20.9813 31.3363 21.0351 32.7587C21.144 29.9554 22.3602 27.3098 24.4172 25.4021C26.4136 23.56 29.0594 22.5854 31.7738 22.6921C34.3984 22.8018 36.8725 23.9479 38.6534 25.879C40.3715 27.7505 41.2761 30.2277 41.1683 32.7659C41.1683 32.802 41.1683 32.8454 41.1683 32.8815C41.1636 33.0661 41.1968 33.2496 41.2658 33.4208C41.3348 33.5921 41.4382 33.7473 41.5695 33.8771C41.7008 34.0068 41.8573 34.1083 42.0294 34.1752C42.2015 34.2421 42.3854 34.273 42.5699 34.2661C42.7544 34.2592 42.9355 34.2145 43.102 34.1349C43.2686 34.0553 43.417 33.9424 43.5383 33.8032C43.6595 33.664 43.7509 33.5014 43.8069 33.3255C43.8629 33.1496 43.8822 32.964 43.8638 32.7804L43.9143 32.7659Z" fill="url(#svg999526126_15390_paint24_linear_54671_143)"/>
<path d="M33.1165 28.242L30.7968 30.5617C30.365 30.4951 29.9232 30.5681 29.5357 30.7699C29.1483 30.9718 28.8353 31.292 28.6425 31.684C28.4496 32.0761 28.3868 32.5194 28.4634 32.9495C28.5399 33.3797 28.7517 33.7742 29.0679 34.0756C29.3842 34.3771 29.7884 34.5697 30.2217 34.6256C30.655 34.6814 31.0948 34.5975 31.4772 34.3861C31.8595 34.1746 32.1644 33.8467 32.3475 33.45C32.5305 33.0533 32.5822 32.6086 32.495 32.1804L34.7642 29.9113L35.429 30.5762L36.5202 26.4932L32.4372 27.5844L33.1165 28.242Z" fill="url(#svg999526126_15390_paint25_linear_54671_143)"/>
<defs>
<filter id="svg999526126_15390_filter0_d_54671_143" x="-16.2973" y="-12.6757" width="96.5946" height="96.5946" filterUnits="userSpaceOnUse" color-interpolation-filters="sRGB">
<feFlood flood-opacity="0" result="BackgroundImageFix"/>
<feColorMatrix in="SourceAlpha" type="matrix" values="0 0 0 0 0 0 0 0 0 0 0 0 0 0 0 0 0 0 127 0" result="hardAlpha"/>
<feMorphology radius="1.81081" operator="dilate" in="SourceAlpha" result="effect1_dropShadow_54671_143"/>
<feOffset dy="3.62162"/>
<feGaussianBlur stdDeviation="7.24324"/>
<feComposite in2="hardAlpha" operator="out"/>
<feColorMatrix type="matrix" values="0 0 0 0 0 0 0 0 0 0 0 0 0 0 0 0 0 0 0.08 0"/>
<feBlend mode="normal" in2="BackgroundImageFix" result="effect1_dropShadow_54671_143"/>
<feBlend mode="normal" in="SourceGraphic" in2="effect1_dropShadow_54671_143" result="shape"/>
</filter>
<linearGradient id="svg999526126_15390_paint0_linear_54671_143" x1="34.7694" y1="47.4678" x2="38.0377" y2="46.7068" gradientUnits="userSpaceOnUse">
<stop stop-color="#FF9444"/>
<stop offset="0.773672" stop-color="#FF4003"/>
</linearGradient>
<linearGradient id="svg999526126_15390_paint1_linear_54671_143" x1="34.2227" y1="49.2016" x2="30.8688" y2="49.0908" gradientUnits="userSpaceOnUse">
<stop stop-color="#FF9444"/>
<stop offset="0.773672" stop-color="#FF4003"/>
</linearGradient>
<linearGradient id="svg999526126_15390_paint2_linear_54671_143" x1="26.3138" y1="48.0165" x2="26.6809" y2="46.6701" gradientUnits="userSpaceOnUse">
<stop stop-color="#FF9444"/>
<stop offset="0.773672" stop-color="#FF4003"/>
</linearGradient>
<linearGradient id="svg999526126_15390_paint3_linear_54671_143" x1="30.7952" y1="15.7883" x2="34.1489" y2="15.9038" gradientUnits="userSpaceOnUse">
<stop stop-color="#FF9444"/>
<stop offset="0.773672" stop-color="#FF4003"/>
</linearGradient>
<linearGradient id="svg999526126_15390_paint4_linear_54671_143" x1="34.5013" y1="17.3332" x2="34.8703" y2="15.9872" gradientUnits="userSpaceOnUse">
<stop stop-color="#FF9444"/>
<stop offset="0.773672" stop-color="#FF4003"/>
</linearGradient>
<linearGradient id="svg999526126_15390_paint5_linear_54671_143" x1="38.3576" y1="18.3631" x2="39.0624" y2="17.1585" gradientUnits="userSpaceOnUse">
<stop stop-color="#FF9444"/>
<stop offset="0.773672" stop-color="#FF4003"/>
</linearGradient>
<linearGradient id="svg999526126_15390_paint6_linear_54671_143" x1="41.8096" y1="20.3648" x2="42.802" y2="19.3835" gradientUnits="userSpaceOnUse">
<stop stop-color="#FF9444"/>
<stop offset="0.773672" stop-color="#FF4003"/>
</linearGradient>
<linearGradient id="svg999526126_15390_paint7_linear_54671_143" x1="44.6364" y1="23.1843" x2="45.8488" y2="22.4931" gradientUnits="userSpaceOnUse">
<stop stop-color="#FF9444"/>
<stop offset="0.773672" stop-color="#FF4003"/>
</linearGradient>
<linearGradient id="svg999526126_15390_paint8_linear_54671_143" x1="46.6326" y1="26.6537" x2="47.9826" y2="26.2998" gradientUnits="userSpaceOnUse">
<stop stop-color="#FF9444"/>
<stop offset="0.773672" stop-color="#FF4003"/>
</linearGradient>
<linearGradient id="svg999526126_15390_paint9_linear_54671_143" x1="49.2017" y1="30.7843" x2="49.0886" y2="34.1381" gradientUnits="userSpaceOnUse">
<stop stop-color="#FF9444"/>
<stop offset="0.773672" stop-color="#FF4003"/>
</linearGradient>
<linearGradient id="svg999526126_15390_paint10_linear_54671_143" x1="46.7749" y1="37.9369" x2="47.7589" y2="34.7138" gradientUnits="userSpaceOnUse">
<stop stop-color="#FF9444"/>
<stop offset="0.773672" stop-color="#FF4003"/>
</linearGradient>
<linearGradient id="svg999526126_15390_paint11_linear_54671_143" x1="44.69" y1="41.485" x2="46.4639" y2="38.6365" gradientUnits="userSpaceOnUse">
<stop stop-color="#FF9444"/>
<stop offset="0.773672" stop-color="#FF4003"/>
</linearGradient>
<linearGradient id="svg999526126_15390_paint12_linear_54671_143" x1="41.9501" y1="44.3398" x2="44.4008" y2="42.0474" gradientUnits="userSpaceOnUse">
<stop stop-color="#FF9444"/>
<stop offset="0.773672" stop-color="#FF4003"/>
</linearGradient>
<linearGradient id="svg999526126_15390_paint13_linear_54671_143" x1="38.6641" y1="46.5725" x2="41.6396" y2="44.9962" gradientUnits="userSpaceOnUse">
<stop stop-color="#FF9444"/>
<stop offset="0.773672" stop-color="#FF4003"/>
</linearGradient>
<linearGradient id="svg999526126_15390_paint14_linear_54671_143" x1="22.5019" y1="45.8785" x2="23.2048" y2="44.6728" gradientUnits="userSpaceOnUse">
<stop stop-color="#FF9444"/>
<stop offset="0.773672" stop-color="#FF4003"/>
</linearGradient>
<linearGradient id="svg999526126_15390_paint15_linear_54671_143" x1="19.3834" y1="42.8517" x2="20.3744" y2="41.869" gradientUnits="userSpaceOnUse">
<stop stop-color="#FF9444"/>
<stop offset="0.773672" stop-color="#FF4003"/>
</linearGradient>
<linearGradient id="svg999526126_15390_paint16_linear_54671_143" x1="17.1495" y1="39.0998" x2="18.3609" y2="38.4069" gradientUnits="userSpaceOnUse">
<stop stop-color="#FF9444"/>
<stop offset="0.773672" stop-color="#FF4003"/>
</linearGradient>
<linearGradient id="svg999526126_15390_paint17_linear_54671_143" x1="15.9678" y1="34.9089" x2="17.3172" y2="34.5529" gradientUnits="userSpaceOnUse">
<stop stop-color="#FF9444"/>
<stop offset="0.773672" stop-color="#FF4003"/>
</linearGradient>
<linearGradient id="svg999526126_15390_paint18_linear_54671_143" x1="15.7967" y1="34.2414" x2="15.9045" y2="30.8874" gradientUnits="userSpaceOnUse">
<stop stop-color="#FF9444"/>
<stop offset="0.773672" stop-color="#FF4003"/>
</linearGradient>
<linearGradient id="svg999526126_15390_paint19_linear_54671_143" x1="15.9131" y1="29.8577" x2="16.8854" y2="26.646" gradientUnits="userSpaceOnUse">
<stop stop-color="#FF9444"/>
<stop offset="0.773672" stop-color="#FF4003"/>
</linearGradient>
<linearGradient id="svg999526126_15390_paint20_linear_54671_143" x1="17.1628" y1="25.6582" x2="18.9327" y2="22.8072" gradientUnits="userSpaceOnUse">
<stop stop-color="#FF9444"/>
<stop offset="0.773672" stop-color="#FF4003"/>
</linearGradient>
<linearGradient id="svg999526126_15390_paint21_linear_54671_143" x1="19.4521" y1="21.9242" x2="21.8992" y2="19.628" gradientUnits="userSpaceOnUse">
<stop stop-color="#FF9444"/>
<stop offset="0.773672" stop-color="#FF4003"/>
</linearGradient>
<linearGradient id="svg999526126_15390_paint22_linear_54671_143" x1="22.5531" y1="18.9008" x2="25.495" y2="17.3233" gradientUnits="userSpaceOnUse">
<stop stop-color="#FF9444"/>
<stop offset="0.773672" stop-color="#FF4003"/>
</linearGradient>
<linearGradient id="svg999526126_15390_paint23_linear_54671_143" x1="26.4821" y1="16.8178" x2="29.7493" y2="16.0522" gradientUnits="userSpaceOnUse">
<stop stop-color="#FF9444"/>
<stop offset="0.773672" stop-color="#FF4003"/>
</linearGradient>
<linearGradient id="svg999526126_15390_paint24_linear_54671_143" x1="19.2751" y1="19.1057" x2="45.2586" y2="19.7638" gradientUnits="userSpaceOnUse">
<stop stop-color="#FF9444"/>
<stop offset="0.773672" stop-color="#FF4003"/>
</linearGradient>
<linearGradient id="svg999526126_15390_paint25_linear_54671_143" x1="27.8124" y1="25.0891" x2="36.9993" y2="25.2196" gradientUnits="userSpaceOnUse">
<stop stop-color="#FF9444"/>
<stop offset="0.773672" stop-color="#FF4003"/>
</linearGradient>
</defs>
</svg>